<?xml version="1.0" encoding="UTF-8" standalone="no"?>
<!-- Created with Inkscape (http://www.inkscape.org/) -->

<svg
   width="500"
   height="350"
   viewBox="0 0 132.29166 92.604169"
   version="1.1"
   id="svg1"
   inkscape:version="1.4.2 (ebf0e940, 2025-05-08)"
   sodipodi:docname="g-stuck.svg"
   inkscape:export-filename="g-stuck.svg"
   inkscape:export-xdpi="96"
   inkscape:export-ydpi="96"
   xmlns:inkscape="http://www.inkscape.org/namespaces/inkscape"
   xmlns:sodipodi="http://sodipodi.sourceforge.net/DTD/sodipodi-0.dtd"
   xmlns="http://www.w3.org/2000/svg"
   xmlns:svg="http://www.w3.org/2000/svg">
  <sodipodi:namedview
     id="namedview1"
     pagecolor="#ffffff"
     bordercolor="#000000"
     borderopacity="0.25"
     inkscape:showpageshadow="2"
     inkscape:pageopacity="0.0"
     inkscape:pagecheckerboard="0"
     inkscape:deskcolor="#d1d1d1"
     inkscape:document-units="mm"
     inkscape:zoom="1"
     inkscape:cx="244"
     inkscape:cy="184"
     inkscape:window-width="1192"
     inkscape:window-height="763"
     inkscape:window-x="43"
     inkscape:window-y="25"
     inkscape:window-maximized="0"
     inkscape:current-layer="layer1">
    <inkscape:page
       x="0"
       y="0"
       width="132.29166"
       height="92.604172"
       id="page2"
       margin="0"
       bleed="0" />
  </sodipodi:namedview>
  <defs
     id="defs1" />
  <g
     inkscape:label="Layer 1"
     inkscape:groupmode="layer"
     id="layer1">
    <path
       d="m 12.690008,6.1209033 h 4.563717 v 0.8061522 h -3.672471 v 1.9974659 h 3.229087 v 0.7837591 h -3.229087 v 2.9917205 h -0.891246 z m 7.407643,1.6750051 q 0.510563,0 0.989775,0.2418457 0.479213,0.237367 0.730016,0.61805 0.241846,0.3627684 0.322461,0.8464597 0.07166,0.3314181 0.07166,1.0569552 h -3.515719 q 0.02239,0.730015 0.344854,1.173399 0.32246,0.438905 0.998733,0.438905 0.631485,0 1.00769,-0.416512 0.214974,-0.241845 0.304546,-0.559828 h 0.792716 q -0.03135,0.264239 -0.210495,0.591179 -0.174666,0.322461 -0.394119,0.528477 -0.367247,0.35829 -0.90916,0.483691 -0.291111,0.07166 -0.658358,0.07166 -0.895724,0 -1.518253,-0.6494 -0.622529,-0.653879 -0.622529,-1.827278 0,-1.1554849 0.627008,-1.8765433 0.627007,-0.7210583 1.639176,-0.7210583 z m 1.285365,2.1228674 q -0.04927,-0.5239989 -0.22841,-0.8375025 -0.331418,-0.5822211 -1.10622,-0.5822211 -0.555349,0 -0.931554,0.4030761 -0.376204,0.3985975 -0.398597,1.0166475 z M 20.021514,7.7869512 Z m 5.177288,0.00896 q 0.510563,0 0.989776,0.2418457 0.479213,0.237367 0.730015,0.61805 0.241846,0.3627684 0.322461,0.8464597 0.07166,0.3314181 0.07166,1.0569554 h -3.515719 q 0.02239,0.730015 0.344854,1.173399 0.322461,0.438905 0.998733,0.438905 0.631486,0 1.00769,-0.416512 0.214974,-0.241845 0.304547,-0.559828 h 0.792716 q -0.03135,0.264239 -0.210495,0.591179 -0.174667,0.322461 -0.394119,0.528477 -0.367247,0.35829 -0.909161,0.483691 -0.29111,0.07166 -0.658357,0.07166 -0.895725,0 -1.518254,-0.6494 -0.622528,-0.653879 -0.622528,-1.827278 0,-1.1554851 0.627007,-1.8765435 0.627007,-0.7210583 1.639176,-0.7210583 z m 1.285365,2.1228674 Q 26.434907,9.3947797 26.255757,9.0812761 25.924339,8.499055 25.149537,8.499055 q -0.555349,0 -0.931553,0.4030761 -0.376205,0.3985975 -0.398598,1.0166475 z M 25.122666,7.7869512 Z m 3.202216,-1.6660479 h 0.806152 v 6.5790977 h -0.806152 z m 2.01538,1.8048852 h 0.819588 v 4.7742125 h -0.819588 z m 0,-1.8048852 h 0.819588 v 0.9136392 h -0.819588 z m 2.037773,1.7824921 h 0.765844 v 0.6807507 q 0.340376,-0.4209906 0.721059,-0.6046141 0.380683,-0.1836236 0.84646,-0.1836236 1.021126,0 1.379416,0.7121011 0.197059,0.3896402 0.197059,1.1151772 V 12.700001 H 35.468285 V 9.6769301 q 0,-0.438905 -0.12988,-0.7076224 -0.214974,-0.4478623 -0.779281,-0.4478623 -0.286631,0 -0.470255,0.058222 -0.331418,0.09853 -0.582221,0.3941188 -0.201538,0.237367 -0.264239,0.4926485 -0.05822,0.2508029 -0.05822,0.7210583 v 2.512508 h -0.806152 z m 1.894458,-0.1164442 z m 4.899614,0.03135 q 0.564306,0 0.985297,0.2776747 0.22841,0.1567518 0.465777,0.4568195 V 7.9481816 h 0.743451 v 4.3621794 q 0,0.913639 -0.268717,1.442116 -0.501606,0.97634 -1.894458,0.97634 -0.774802,0 -1.303279,-0.349333 Q 37.3717,14.03463 37.309,13.295658 h 0.819588 q 0.05822,0.322461 0.232888,0.497127 0.273196,0.268717 0.859896,0.268717 0.927075,0 1.213707,-0.653879 0.170187,-0.385161 0.156751,-1.374937 -0.241845,0.367247 -0.582221,0.546392 -0.340375,0.179145 -0.900203,0.179145 -0.77928,0 -1.36598,-0.550871 -0.582221,-0.555349 -0.582221,-1.831757 0,-1.2047493 0.5867,-1.8810214 0.591178,-0.6762721 1.424202,-0.6762724 z m 1.451074,2.4632428 q 0,-0.8912461 -0.367247,-1.3211939 -0.367247,-0.4299478 -0.936033,-0.4299478 -0.850938,0 -1.164442,0.7971949 -0.165709,0.4254692 -0.165709,1.1151778 0,0.81063 0.32694,1.2361 0.331418,0.42099 0.886767,0.42099 0.868853,0 1.222664,-0.783759 0.19706,-0.443383 0.19706,-1.034562 z M 39.266158,7.7869512 Z"
       id="text1"
       style="font-size:9.17222px;font-family:Helvetica;-inkscape-font-specification:Helvetica;fill:#004aad;stroke-width:0.677"
       aria-label="Feeling" />
    <path
       d="m 18.254195,32.72358 q 1.126548,0 1.829348,-0.248048 1.333254,-0.475423 1.333254,-1.767336 0,-0.754477 -0.661459,-1.16789 -0.66146,-0.403076 -2.077396,-0.713135 l -1.612307,-0.361736 q -2.37712,-0.537436 -3.286627,-1.167889 -1.53996,-1.054201 -1.53996,-3.296962 0,-2.04639 1.488284,-3.400315 1.488283,-1.353924 4.371833,-1.353924 2.408126,0 4.103115,1.281577 1.705325,1.271243 1.788008,3.700039 h -3.05925 q -0.08268,-1.374596 -1.198895,-1.953373 -0.744142,-0.382406 -1.850019,-0.382406 -1.229901,0 -1.963708,0.496095 -0.733806,0.496094 -0.733806,1.38493 0,0.816489 0.723471,1.219566 0.465088,0.268718 1.984378,0.630454 l 2.625167,0.630453 q 1.725995,0.413412 2.604496,1.105878 1.36426,1.074871 1.36426,3.110926 0,2.087731 -1.601972,3.472661 -1.591636,1.374596 -4.506192,1.374596 -2.976567,0 -4.681892,-1.353925 -1.705325,-1.36426 -1.705325,-3.74138 h 3.038579 q 0.144694,1.043866 0.568442,1.560631 0.775147,0.940513 2.656173,0.940513 z M 37.911941,19.690763 v 2.697514 H 33.354072 V 34.924999 H 30.150128 V 22.388277 h -4.578539 v -2.697514 z m 10.87274,9.363784 v -9.363784 h 3.23495 v 9.363784 q 0,2.428796 -0.754478,3.782721 -1.405601,2.480473 -5.364022,2.480473 -3.958421,0 -5.374357,-2.480473 -0.754477,-1.353925 -0.754477,-3.782721 v -9.363784 h 3.234949 v 9.363784 q 0,1.570966 0.372071,2.294437 0.578777,1.281578 2.521814,1.281578 1.932702,0 2.511479,-1.281578 0.372071,-0.723471 0.372071,-2.294437 z m 17.022242,4.733569 q -1.705325,1.560631 -4.361498,1.560631 -3.286626,0 -5.167651,-2.108402 -1.881025,-2.118737 -1.881025,-5.80844 0,-3.989427 2.139407,-6.149506 1.860355,-1.881025 4.733569,-1.881025 3.844733,0 5.622405,2.521814 0.981854,1.415937 1.054201,2.842208 h -3.183273 q -0.310059,-1.095542 -0.795819,-1.653648 -0.868165,-0.992189 -2.57349,-0.992189 -1.736331,0 -2.738855,1.405601 -1.002525,1.395266 -1.002525,3.958421 0,2.563155 1.054201,3.844733 1.064536,1.271242 2.697514,1.271242 1.674319,0 2.55282,-1.095542 0.485759,-0.589112 0.806154,-1.767337 h 3.152267 q -0.413412,2.490808 -2.108402,4.051439 z m 18.035106,1.136883 h -4.09278 l -4.702563,-6.655935 -1.519289,1.560631 v 5.095304 H 70.3958 V 19.690763 h 3.131597 v 6.273529 l 5.880787,-6.273529 h 4.113451 l -6.242523,6.273529 z m 8.216565,-5.622405 q -0.124024,0.392742 -0.134359,1.219566 h -2.790532 q 0.06201,-1.746666 0.330729,-2.408125 0.268718,-0.671795 1.384931,-1.539961 l 0.754477,-0.589112 q 0.372071,-0.279053 0.599448,-0.609783 0.413412,-0.568441 0.413412,-1.250571 0,-0.785483 -0.465089,-1.426272 -0.454753,-0.651124 -1.674319,-0.651124 -1.198895,0 -1.705325,0.795818 -0.496094,0.795818 -0.496094,1.653649 H 85.28897 q 0.124024,-2.945562 2.056725,-4.175463 1.219566,-0.785483 2.997238,-0.785483 2.335779,0 3.875739,1.116213 1.550295,1.116213 1.550295,3.307297 0,1.343589 -0.671794,2.263431 -0.392742,0.558107 -1.508955,1.426272 l -0.733806,0.568442 q -0.599448,0.465088 -0.795818,1.085206 z m 0.08268,5.622405 h -3.07992 v -2.986902 h 3.07992 z"
       id="text2"
       style="font-weight:bold;font-size:21.1667px;font-family:Helvetica;-inkscape-font-specification:'Helvetica Bold';fill:#1a1a1a;stroke-width:0.677"
       aria-label="STUCK?" />
    <path
       id="path2"
       style="fill:#9fd7f5;fill-opacity:0.1;stroke-width:0.627312"
       d="M 56.091667,63.764584 A 26.722916,26.722916 0 0 1 29.368752,90.487499 26.722916,26.722916 0 0 1 2.6458359,63.764584 26.722916,26.722916 0 0 1 29.368752,37.041668 26.722916,26.722916 0 0 1 56.091667,63.764584 Z" />
    <g
       id="text3"
       style="font-weight:bold;font-size:7.76111px;font-family:Helvetica;-inkscape-font-specification:'Helvetica Bold';fill:#9fd7f5;fill-opacity:0.1;stroke-width:0.677"
       aria-label="• Spinning your wheels?&#10;• Caught in a loop of indecision?&#10;• Procrastinating?&#10;• Unmotivated?&#10;">
      <path
         style="font-weight:normal;-inkscape-font-specification:Helvetica;fill:#1a1a1a;fill-opacity:1"
         d="m 22.877155,50.664265 q 0,0.363803 -0.238745,0.602548 -0.234955,0.238745 -0.598758,0.238745 -0.363802,0 -0.602547,-0.238745 -0.234955,-0.238745 -0.234955,-0.602548 0,-0.363802 0.234955,-0.598757 0.238745,-0.234955 0.602547,-0.234955 0.363803,0 0.598758,0.234955 0.238745,0.234955 0.238745,0.598757 z m 3.717602,0.985298 q 0.02653,0.4737 0.223587,0.769289 0.37517,0.553283 1.322572,0.553283 0.424435,0 0.773079,-0.121268 0.674549,-0.234955 0.674549,-0.841292 0,-0.454752 -0.28422,-0.648022 -0.28801,-0.189481 -0.901926,-0.329696 l -0.754131,-0.170532 q -0.738973,-0.166743 -1.045931,-0.367592 -0.530544,-0.348643 -0.530544,-1.042141 0,-0.750342 0.519175,-1.231621 0.519176,-0.48128 1.470367,-0.48128 0.875398,0 1.485525,0.424436 0.613916,0.420646 0.613916,1.349099 h -0.708656 q -0.05684,-0.447174 -0.242535,-0.685919 -0.344854,-0.435804 -1.170988,-0.435804 -0.66697,0 -0.95877,0.280431 -0.291799,0.28043 -0.291799,0.651812 0,0.409277 0.341064,0.598757 0.223587,0.121267 1.011825,0.303168 l 0.780658,0.178112 q 0.564651,0.128846 0.871609,0.352433 0.530545,0.390329 0.530545,1.133092 0,0.924663 -0.67455,1.322572 -0.67076,0.397908 -1.561317,0.397908 -1.038352,0 -1.62574,-0.530545 -0.587389,-0.526755 -0.57602,-1.42868 z m 1.523421,-3.922241 z m 4.782481,5.259971 q 0.47749,0 0.792027,-0.397908 0.318327,-0.401699 0.318327,-1.197515 0,-0.48507 -0.140216,-0.833713 -0.265272,-0.67076 -0.970138,-0.67076 -0.708656,0 -0.970139,0.708656 -0.140216,0.37896 -0.140216,0.962559 0,0.469911 0.140216,0.799607 0.265272,0.629074 0.970139,0.629074 z m -1.765956,-3.581176 h 0.663181 v 0.538124 q 0.204638,-0.276641 0.447173,-0.428226 0.344854,-0.227376 0.810975,-0.227376 0.689708,0 1.170988,0.530545 0.48128,0.526755 0.48128,1.508262 0,1.326362 -0.693498,1.894802 -0.439594,0.360013 -1.023193,0.360013 -0.458542,0 -0.76929,-0.200849 -0.181901,-0.113688 -0.405487,-0.390329 v 2.072913 h -0.682129 z m 4.369414,0 h 0.693497 v 4.039718 h -0.693497 z m 0,-1.527211 h 0.693497 v 0.77308 h -0.693497 z m 1.72427,1.508263 h 0.648022 v 0.57602 q 0.28801,-0.356223 0.610126,-0.511597 0.322117,-0.155374 0.716236,-0.155374 0.864029,0 1.167198,0.602547 0.166742,0.329696 0.166742,0.943612 v 2.603458 h -0.693497 v -2.557983 q 0,-0.371381 -0.109899,-0.598757 -0.181901,-0.378961 -0.659391,-0.378961 -0.242535,0 -0.397908,0.04926 -0.280431,0.08337 -0.492649,0.333485 -0.170532,0.200849 -0.223587,0.416857 -0.04926,0.212218 -0.04926,0.610126 v 2.125968 h -0.682129 z m 1.603002,-0.09853 z m 2.713358,0.09853 h 0.648023 v 0.57602 q 0.288009,-0.356223 0.610126,-0.511597 0.322116,-0.155374 0.716235,-0.155374 0.86403,0 1.167198,0.602547 0.166743,0.329696 0.166743,0.943612 v 2.603458 h -0.693498 v -2.557983 q 0,-0.371381 -0.109898,-0.598757 -0.181901,-0.378961 -0.659391,-0.378961 -0.242535,0 -0.397909,0.04926 -0.280431,0.08337 -0.492648,0.333485 -0.170533,0.200849 -0.223587,0.416857 -0.04927,0.212218 -0.04927,0.610126 v 2.125968 h -0.682129 z m 1.603003,-0.09853 z m 2.713356,0.117478 h 0.693497 v 4.039718 h -0.693497 z m 0,-1.527211 h 0.693497 v 0.77308 h -0.693497 z m 1.72427,1.508263 h 0.648022 v 0.57602 q 0.28801,-0.356223 0.610126,-0.511597 0.322117,-0.155374 0.716236,-0.155374 0.864029,0 1.167198,0.602547 0.166742,0.329696 0.166742,0.943612 v 2.603458 h -0.693497 v -2.557983 q 0,-0.371381 -0.109899,-0.598757 -0.181901,-0.378961 -0.659391,-0.378961 -0.242535,0 -0.397908,0.04926 -0.280431,0.08337 -0.492649,0.333485 -0.170532,0.200849 -0.223587,0.416857 -0.04926,0.212218 -0.04926,0.610126 v 2.125968 h -0.682128 z m 1.603002,-0.09853 z m 4.145829,0.02653 q 0.47749,0 0.833713,0.234956 0.193269,0.132636 0.394118,0.386539 v -0.511596 h 0.629075 v 3.691075 q 0,0.773079 -0.227377,1.220252 -0.424435,0.826134 -1.603002,0.826134 -0.655602,0 -1.102775,-0.295589 -0.447173,-0.2918 -0.500228,-0.917085 h 0.693498 q 0.04927,0.272852 0.197059,0.420647 0.231166,0.227376 0.727604,0.227376 0.784448,0 1.026983,-0.553282 0.144005,-0.325906 0.132636,-1.163409 -0.204638,0.310748 -0.492648,0.462332 -0.28801,0.151584 -0.761711,0.151584 -0.659391,0 -1.155829,-0.466121 -0.492649,-0.469911 -0.492649,-1.549949 0,-1.019403 0.496438,-1.591633 0.500228,-0.572231 1.205095,-0.572231 z m 1.227831,2.084283 q 0,-0.754132 -0.310747,-1.117934 -0.310748,-0.363802 -0.792027,-0.363802 -0.720025,0 -0.985298,0.67455 -0.140215,0.360012 -0.140215,0.943611 0,0.685919 0.276641,1.045931 0.280431,0.356223 0.750342,0.356223 0.735183,0 1.034562,-0.663181 0.166742,-0.37517 0.166742,-0.875398 z m -1.14825,-2.11081 z m 7.495836,0.09853 h 0.754132 q -0.144005,0.390329 -0.640444,1.781114 -0.371381,1.045931 -0.621495,1.705322 -0.591178,1.553738 -0.833713,1.894802 -0.242534,0.341064 -0.833713,0.341064 -0.144005,0 -0.223586,-0.01137 -0.07579,-0.01137 -0.18948,-0.04169 v -0.621495 q 0.178111,0.04926 0.257693,0.06063 0.07958,0.01137 0.140215,0.01137 0.18948,0 0.276641,-0.06442 0.09095,-0.06063 0.151584,-0.151584 0.01895,-0.03032 0.136426,-0.310748 0.117478,-0.28043 0.170532,-0.416856 l -1.500683,-4.176144 h 0.773079 l 1.087617,3.304535 z m -1.098985,-0.09853 z m 4.054876,3.717602 q 0.678339,0 0.928453,-0.511597 0.253904,-0.515386 0.253904,-1.14446 0,-0.568441 -0.181901,-0.924664 -0.28801,-0.560861 -0.992877,-0.560861 -0.625284,0 -0.909505,0.47749 -0.28422,0.47749 -0.28422,1.15204 0,0.648022 0.28422,1.080037 0.284221,0.432015 0.901926,0.432015 z m 0.02653,-3.73655 q 0.784448,0 1.326362,0.522965 0.541913,0.522966 0.541913,1.53858 0,0.981507 -0.47749,1.621951 -0.47749,0.640443 -1.481735,0.640443 -0.837503,0 -1.330151,-0.564651 -0.492649,-0.568441 -0.492649,-1.523421 0,-1.023194 0.519176,-1.62953 0.519176,-0.606337 1.394574,-0.606337 z m -0.02274,0.01895 z m 3.384117,0.09853 v 2.694409 q 0,0.310747 0.09853,0.507807 0.181901,0.363802 0.678339,0.363802 0.712446,0 0.970139,-0.636654 0.140215,-0.341064 0.140215,-0.936032 v -1.993332 h 0.682129 v 4.058666 h -0.644232 l 0.0076,-0.598757 q -0.132636,0.231165 -0.329696,0.390329 -0.390329,0.318327 -0.947401,0.318327 -0.867819,0 -1.182357,-0.57981 -0.170532,-0.310747 -0.170532,-0.829923 v -2.758832 z m 0.936033,-0.09853 z m 2.717147,0.09853 h 0.648023 v 0.701077 q 0.07958,-0.204639 0.390329,-0.496439 0.310747,-0.295589 0.716235,-0.295589 0.01895,0 0.06442,0.0038 0.04548,0.0038 0.155374,0.01516 v 0.720025 q -0.06063,-0.01137 -0.113688,-0.01516 -0.04926,-0.0038 -0.109899,-0.0038 -0.515386,0 -0.792027,0.333485 -0.276641,0.329696 -0.276641,0.761711 v 2.334396 h -0.682129 z m 5.036384,0 0.780659,3.198426 0.792027,-3.198426 h 0.7655 l 0.795817,3.179478 0.829924,-3.179478 h 0.682128 l -1.178567,4.058666 h -0.708656 l -0.826133,-3.141582 -0.799607,3.141582 h -0.708656 l -1.170988,-4.058666 z m 5.290287,-1.527211 h 0.682129 v 2.076703 q 0.242535,-0.306958 0.435805,-0.432014 0.329695,-0.216008 0.822344,-0.216008 0.882978,0 1.197515,0.617706 0.170532,0.337274 0.170532,0.936032 v 2.603458 h -0.701077 v -2.557983 q 0,-0.447173 -0.113688,-0.655601 -0.185691,-0.333486 -0.697287,-0.333486 -0.424436,0 -0.76929,0.2918 -0.344854,0.291799 -0.344854,1.102775 v 2.152495 h -0.682129 z m 6.006521,1.43626 q 0.432014,0 0.837502,0.204639 0.405488,0.200849 0.617706,0.522965 0.204638,0.306958 0.272851,0.716236 0.06063,0.28043 0.06063,0.894346 h -2.97484 q 0.01895,0.617706 0.2918,0.992877 0.272851,0.371381 0.845082,0.371381 0.534334,0 0.852661,-0.352433 0.181901,-0.204639 0.257693,-0.473701 h 0.67076 q -0.02653,0.223587 -0.178112,0.500228 -0.147794,0.272851 -0.333485,0.447173 -0.310747,0.303168 -0.769289,0.409277 -0.246325,0.06063 -0.557072,0.06063 -0.757921,0 -1.284676,-0.549493 -0.526755,-0.553282 -0.526755,-1.546158 0,-0.977718 0.530544,-1.587844 0.530545,-0.610127 1.386996,-0.610127 z m 1.087616,1.796273 q -0.04169,-0.443384 -0.19327,-0.708656 -0.280431,-0.492649 -0.936032,-0.492649 -0.469911,0 -0.788238,0.341065 -0.318327,0.337274 -0.337275,0.86024 z m -1.15204,-1.803852 z m 4.380784,0.0076 q 0.432015,0 0.837503,0.204639 0.405487,0.200849 0.617705,0.522965 0.204639,0.306958 0.272852,0.716236 0.06063,0.28043 0.06063,0.894346 h -2.974839 q 0.01895,0.617706 0.291799,0.992877 0.272852,0.371381 0.845082,0.371381 0.534334,0 0.852661,-0.352433 0.181901,-0.204639 0.257693,-0.473701 H 93.288 q -0.02653,0.223587 -0.178111,0.500228 -0.147795,0.272851 -0.333485,0.447173 -0.310748,0.303168 -0.76929,0.409277 -0.246324,0.06063 -0.557072,0.06063 -0.757921,0 -1.284676,-0.549493 -0.526755,-0.553282 -0.526755,-1.546158 0,-0.977718 0.530545,-1.587844 0.530544,-0.610127 1.386995,-0.610127 z m 1.087617,1.796273 q -0.04169,-0.443384 -0.19327,-0.708656 -0.280431,-0.492649 -0.936033,-0.492649 -0.469911,0 -0.788237,0.341065 -0.318327,0.337274 -0.337275,0.86024 z m -1.15204,-1.803852 z m 2.709568,-1.409733 h 0.682129 v 5.566929 h -0.682129 z m 2.110813,4.293622 q 0.03032,0.341064 0.170533,0.522965 0.257693,0.329696 0.894346,0.329696 0.378961,0 0.666971,-0.162953 0.288009,-0.166743 0.288009,-0.511597 0,-0.261482 -0.231165,-0.397908 -0.147795,-0.08337 -0.583599,-0.19327 l -0.541914,-0.136426 q -0.519176,-0.128846 -0.7655,-0.28801 -0.439594,-0.276641 -0.439594,-0.7655 0,-0.57602 0.413067,-0.932242 0.416856,-0.356223 1.117933,-0.356223 0.917084,0 1.322572,0.538124 0.253904,0.341064 0.246324,0.735183 h -0.644232 q -0.01895,-0.231166 -0.162953,-0.420646 -0.234956,-0.269062 -0.814765,-0.269062 -0.38654,0 -0.587389,0.147795 -0.19706,0.147794 -0.19706,0.390329 0,0.265272 0.261483,0.424435 0.151584,0.09474 0.447174,0.166743 l 0.450962,0.109899 q 0.735184,0.178111 0.985298,0.344854 0.397908,0.261482 0.397908,0.822344 0,0.541913 -0.413067,0.936032 -0.409277,0.394119 -1.250569,0.394119 -0.905716,0 -1.284676,-0.409277 -0.375171,-0.413067 -0.401698,-1.019404 z m 1.008035,-2.883889 z m 3.835083,3.368958 h 0.75413 v 0.788238 h -0.75413 z M 99.878129,49.62215 q 0,-0.818554 0.462331,-1.314992 0.46233,-0.500228 1.26952,-0.500228 0.74655,0 1.19372,0.428225 0.45097,0.424436 0.45097,1.087617 0,0.401698 -0.16675,0.651811 -0.16295,0.250114 -0.66318,0.735184 -0.3638,0.352433 -0.4737,0.598757 -0.10611,0.242535 -0.10611,0.720025 h -0.67455 q 0,-0.541913 0.12885,-0.871609 0.12885,-0.333485 0.56465,-0.76171 l 0.30317,-0.299379 q 0.13643,-0.128847 0.2198,-0.269062 0.15158,-0.246324 0.15158,-0.511597 0,-0.371381 -0.22359,-0.644232 -0.21979,-0.272852 -0.73139,-0.272852 -0.63286,0 -0.8754,0.469911 -0.13642,0.261483 -0.15537,0.754131 z"
         id="path7" />
      <path
         style="font-weight:normal;-inkscape-font-specification:Helvetica;fill:#1a1a1a;fill-opacity:1"
         d="m 22.877155,60.365653 q 0,0.363802 -0.238745,0.602547 -0.234955,0.238745 -0.598758,0.238745 -0.363802,0 -0.602547,-0.238745 -0.234955,-0.238745 -0.234955,-0.602547 0,-0.363802 0.234955,-0.598758 0.238745,-0.234955 0.602547,-0.234955 0.363803,0 0.598758,0.234955 0.238745,0.234956 0.238745,0.598758 z m 5.570718,-2.936944 q 1.0573,0 1.640899,0.557072 0.583599,0.557072 0.648023,1.265728 h -0.735184 q -0.125057,-0.538124 -0.500227,-0.852661 -0.371382,-0.314537 -1.045931,-0.314537 -0.822344,0 -1.330151,0.579809 -0.504018,0.57602 -0.504018,1.769746 0,0.977718 0.454753,1.587844 0.458542,0.606337 1.364257,0.606337 0.833713,0 1.269518,-0.640444 0.231166,-0.337274 0.344854,-0.886767 h 0.735183 q -0.09853,0.879188 -0.651812,1.474156 -0.663181,0.716235 -1.788693,0.716235 -0.970139,0 -1.62953,-0.587388 -0.86782,-0.776869 -0.86782,-2.39882 0,-1.231621 0.651812,-2.019859 0.704867,-0.856451 1.944067,-0.856451 z m -0.151584,0 z m 3.842659,4.638476 q 0,0.295589 0.216008,0.466121 0.216007,0.170533 0.511596,0.170533 0.360013,0 0.697288,-0.166743 0.56844,-0.276641 0.56844,-0.905715 v -0.549493 q -0.125057,0.07958 -0.322116,0.132636 -0.19706,0.05306 -0.38654,0.07579 l -0.413067,0.05306 q -0.371381,0.04927 -0.557072,0.155373 -0.314537,0.178112 -0.314537,0.568441 z m 1.652268,-1.379416 q 0.234955,-0.03032 0.314537,-0.197059 0.04548,-0.09095 0.04548,-0.261483 0,-0.348644 -0.250114,-0.504017 -0.246324,-0.159164 -0.708656,-0.159164 -0.534334,0 -0.757921,0.28801 -0.125057,0.159164 -0.162953,0.473701 h -0.636653 q 0.01895,-0.750342 0.485069,-1.042141 0.469911,-0.29559 1.087617,-0.29559 0.716235,0 1.163408,0.272852 0.443384,0.272851 0.443384,0.848871 v 2.338186 q 0,0.106109 0.04169,0.170532 0.04547,0.06442 0.18569,0.06442 0.04548,0 0.10232,-0.0038 0.05684,-0.0076 0.121267,-0.01895 v 0.504017 q -0.159163,0.04548 -0.242535,0.05684 -0.08337,0.01137 -0.227376,0.01137 -0.352433,0 -0.511597,-0.250114 -0.08337,-0.132636 -0.117477,-0.37517 -0.208429,0.272851 -0.598758,0.4737 -0.390329,0.200849 -0.86024,0.200849 -0.564651,0 -0.924664,-0.341064 -0.356222,-0.344854 -0.356222,-0.86024 0,-0.564651 0.352433,-0.875399 0.352433,-0.310748 0.924663,-0.38275 z m -0.564651,-1.697743 z m 3.387906,0.09853 v 2.694409 q 0,0.310747 0.09853,0.507807 0.181901,0.363802 0.678339,0.363802 0.712446,0 0.970139,-0.636654 0.140215,-0.341064 0.140215,-0.936032 v -1.993332 h 0.682129 v 4.058666 H 38.53959 l 0.0076,-0.598757 q -0.132636,0.231166 -0.329695,0.390329 -0.390329,0.318327 -0.947401,0.318327 -0.86782,0 -1.182357,-0.57981 -0.170532,-0.310747 -0.170532,-0.829923 v -2.758832 z m 0.936032,-0.09853 z m 4.130669,0.02653 q 0.477491,0 0.833713,0.234955 0.19327,0.132636 0.394119,0.38654 v -0.511597 h 0.629075 v 3.691075 q 0,0.773079 -0.227377,1.220252 -0.424435,0.826134 -1.603002,0.826134 -0.655602,0 -1.102775,-0.295589 -0.447174,-0.291799 -0.500228,-0.917084 h 0.693498 q 0.04926,0.272851 0.197059,0.420646 0.231166,0.227376 0.727604,0.227376 0.784448,0 1.026983,-0.553282 0.144005,-0.325906 0.132636,-1.163409 -0.204639,0.310748 -0.492649,0.462332 -0.28801,0.151584 -0.76171,0.151584 -0.659391,0 -1.155829,-0.466121 -0.492649,-0.469911 -0.492649,-1.549948 0,-1.019404 0.496438,-1.591634 0.500228,-0.57223 1.205094,-0.57223 z m 1.227832,2.084282 q 0,-0.754131 -0.310747,-1.117933 -0.310748,-0.363802 -0.792028,-0.363802 -0.720025,0 -0.985297,0.674549 -0.140215,0.360013 -0.140215,0.943612 0,0.685918 0.276641,1.045931 0.280431,0.356222 0.750342,0.356222 0.735183,0 1.034562,-0.66318 0.166742,-0.375171 0.166742,-0.875399 z m -1.14825,-2.11081 z m 2.804306,-1.42868 h 0.682129 v 2.076703 q 0.242535,-0.306958 0.435805,-0.432015 0.329695,-0.216008 0.822344,-0.216008 0.882978,0 1.197515,0.617706 0.170532,0.337275 0.170532,0.936032 v 2.603458 h -0.701077 v -2.557983 q 0,-0.447173 -0.113688,-0.655601 -0.18569,-0.333485 -0.697287,-0.333485 -0.424436,0 -0.76929,0.291799 -0.344854,0.2918 -0.344854,1.102775 v 2.152495 H 44.56506 Z m 4.452787,0.394118 h 0.689708 v 1.133092 h 0.648022 v 0.557072 h -0.648022 v 2.648933 q 0,0.212218 0.144005,0.284221 0.07958,0.04169 0.265272,0.04169 0.04926,0 0.106109,0 0.05684,-0.0038 0.132636,-0.01137 v 0.538123 q -0.117478,0.03411 -0.246324,0.04926 -0.125057,0.01516 -0.272852,0.01516 -0.47749,0 -0.648022,-0.242535 -0.170532,-0.246324 -0.170532,-0.636654 v -2.686829 h -0.549493 v -0.557072 h 0.549493 z m 4.176143,1.15204 h 0.693497 v 4.039718 H 53.19399 Z m 0,-1.52721 h 0.693497 v 0.773079 H 53.19399 Z m 1.724269,1.508262 h 0.648023 v 0.57602 q 0.28801,-0.356223 0.610126,-0.511597 0.322117,-0.155373 0.716235,-0.155373 0.86403,0 1.167199,0.602547 0.166742,0.329695 0.166742,0.943611 v 2.603458 h -0.693497 v -2.557983 q 0,-0.371381 -0.109899,-0.598757 -0.181901,-0.378961 -0.659391,-0.378961 -0.242535,0 -0.397909,0.04926 -0.28043,0.08337 -0.492648,0.333486 -0.170532,0.200849 -0.223587,0.416856 -0.04926,0.212218 -0.04926,0.610126 v 2.125968 h -0.682129 z m 1.603003,-0.09853 z m 5.392608,3.077159 q 0,0.295589 0.216007,0.466121 0.216008,0.170533 0.511597,0.170533 0.360012,0 0.697287,-0.166743 0.568441,-0.276641 0.568441,-0.905715 V 61.08189 q -0.125057,0.07958 -0.322117,0.132636 -0.197059,0.05306 -0.386539,0.07579 l -0.413067,0.05306 q -0.371382,0.04927 -0.557072,0.155373 -0.314537,0.178112 -0.314537,0.568441 z m 1.652267,-1.379416 q 0.234956,-0.03032 0.314537,-0.197059 0.04548,-0.09095 0.04548,-0.261483 0,-0.348644 -0.250114,-0.504017 -0.246325,-0.159164 -0.708656,-0.159164 -0.534335,0 -0.757921,0.28801 -0.125057,0.159164 -0.162953,0.473701 h -0.636654 q 0.01895,-0.750342 0.48507,-1.042141 0.469911,-0.29559 1.087616,-0.29559 0.716235,0 1.163409,0.272852 0.443383,0.272851 0.443383,0.848871 v 2.338186 q 0,0.106109 0.04169,0.170532 0.04547,0.06442 0.185691,0.06442 0.04548,0 0.102319,-0.0038 0.05684,-0.0076 0.121267,-0.01895 v 0.504017 q -0.159163,0.04548 -0.242534,0.05684 -0.08337,0.01137 -0.227377,0.01137 -0.352433,0 -0.511596,-0.250114 -0.08337,-0.132636 -0.117478,-0.37517 -0.208428,0.272851 -0.598757,0.4737 -0.39033,0.200849 -0.860241,0.200849 -0.564651,0 -0.924663,-0.341064 -0.356223,-0.344854 -0.356223,-0.86024 0,-0.564651 0.352433,-0.875399 0.352433,-0.310748 0.924664,-0.38275 z m -0.564651,-1.697743 z m 4.881011,-1.409732 h 0.682129 v 5.566928 h -0.682129 z m 3.315904,5.127334 q 0.678339,0 0.928453,-0.511596 0.253903,-0.515387 0.253903,-1.144461 0,-0.56844 -0.181901,-0.924663 -0.28801,-0.560862 -0.992876,-0.560862 -0.625285,0 -0.909505,0.47749 -0.28422,0.477491 -0.28422,1.15204 0,0.648022 0.28422,1.080037 0.28422,0.432015 0.901926,0.432015 z m 0.02653,-3.73655 q 0.784448,0 1.326362,0.522966 0.541913,0.522965 0.541913,1.538579 0,0.981508 -0.47749,1.621951 -0.47749,0.640443 -1.481735,0.640443 -0.837503,0 -1.330152,-0.564651 -0.492648,-0.568441 -0.492648,-1.523421 0,-1.023193 0.519176,-1.62953 0.519175,-0.606337 1.394574,-0.606337 z m -0.02274,0.01895 z m 4.312571,3.717602 q 0.678339,0 0.928453,-0.511596 0.253904,-0.515387 0.253904,-1.144461 0,-0.56844 -0.181901,-0.924663 -0.28801,-0.560862 -0.992876,-0.560862 -0.625285,0 -0.909506,0.47749 -0.28422,0.477491 -0.28422,1.15204 0,0.648022 0.28422,1.080037 0.284221,0.432015 0.901926,0.432015 z m 0.02653,-3.73655 q 0.784448,0 1.326361,0.522966 0.541914,0.522965 0.541914,1.538579 0,0.981508 -0.477491,1.621951 -0.47749,0.640443 -1.481735,0.640443 -0.837503,0 -1.330151,-0.564651 -0.492649,-0.568441 -0.492649,-1.523421 0,-1.023193 0.519176,-1.62953 0.519176,-0.606337 1.394575,-0.606337 z m -0.02274,0.01895 z m 4.41489,3.698654 q 0.47749,0 0.792027,-0.397908 0.318327,-0.401698 0.318327,-1.197515 0,-0.48507 -0.140215,-0.833713 -0.265272,-0.67076 -0.970139,-0.67076 -0.708656,0 -0.970139,0.708656 -0.140215,0.37896 -0.140215,0.962559 0,0.469911 0.140215,0.799607 0.265273,0.629074 0.970139,0.629074 z M 78.167486,59.10751 h 0.663181 v 0.538124 q 0.204639,-0.276641 0.447174,-0.428225 0.344854,-0.227377 0.810975,-0.227377 0.689708,0 1.170988,0.530545 0.481279,0.526755 0.481279,1.508263 0,1.326361 -0.693497,1.894802 -0.439594,0.360012 -1.023193,0.360012 -0.458543,0 -0.76929,-0.200849 -0.181901,-0.113688 -0.405488,-0.390329 v 2.072913 h -0.682129 z m 8.136278,3.600124 q 0.678339,0 0.928453,-0.511596 0.253903,-0.515387 0.253903,-1.144461 0,-0.56844 -0.181901,-0.924663 -0.28801,-0.560862 -0.992876,-0.560862 -0.625285,0 -0.909505,0.47749 -0.28422,0.477491 -0.28422,1.15204 0,0.648022 0.28422,1.080037 0.28422,0.432015 0.901926,0.432015 z m 0.02653,-3.73655 q 0.784448,0 1.326362,0.522966 0.541913,0.522965 0.541913,1.538579 0,0.981508 -0.47749,1.621951 -0.47749,0.640443 -1.481736,0.640443 -0.837502,0 -1.330151,-0.564651 -0.492648,-0.568441 -0.492648,-1.523421 0,-1.023193 0.519176,-1.62953 0.519175,-0.606337 1.394574,-0.606337 z m -0.02274,0.01895 z m 2.872525,-0.519175 q 0.01516,-0.424436 0.147795,-0.621496 0.238745,-0.348643 0.920874,-0.348643 0.06442,0 0.132636,0.0038 0.06821,0.0038 0.155374,0.01137 v 0.621495 q -0.106109,-0.0076 -0.155374,-0.0076 -0.04547,-0.0038 -0.08716,-0.0038 -0.310747,0 -0.371381,0.162953 -0.06063,0.159163 -0.06063,0.818554 h 0.67455 v 0.538124 h -0.682129 v 3.501594 h -0.67455 v -3.501594 h -0.564651 v -0.538124 h 0.564651 z m 4.142037,0.636653 h 0.693497 v 4.039718 h -0.693497 z m 0,-1.52721 h 0.693497 v 0.773079 h -0.693497 z m 1.724266,1.508262 h 0.648022 v 0.57602 q 0.28801,-0.356223 0.610127,-0.511597 0.322116,-0.155373 0.716235,-0.155373 0.86403,0 1.167198,0.602547 0.166743,0.329695 0.166743,0.943611 v 2.603458 h -0.693498 v -2.557983 q 0,-0.371381 -0.109899,-0.598757 -0.181901,-0.378961 -0.659391,-0.378961 -0.242534,0 -0.397908,0.04926 -0.280431,0.08337 -0.492649,0.333486 -0.170532,0.200849 -0.223586,0.416856 -0.04926,0.212218 -0.04926,0.610126 v 2.125968 H 95.04638 Z m 1.603003,-0.09853 z m 3.145372,2.175233 q 0,0.651812 0.276643,1.091406 0.27664,0.439594 0.88676,0.439594 0.4737,0 0.77687,-0.405487 0.30696,-0.409277 0.30696,-1.170988 0,-0.76929 -0.31454,-1.136881 -0.31453,-0.371382 -0.77687,-0.371382 -0.51538,0 -0.8375,0.394119 -0.318323,0.394119 -0.318323,1.159619 z m 1.026983,-2.148705 q 0.46612,0 0.78066,0.197059 0.1819,0.113688 0.41306,0.397908 v -2.050175 h 0.65561 v 5.585876 h -0.61392 v -0.564651 q -0.23875,0.375171 -0.56465,0.541914 -0.32591,0.166742 -0.74655,0.166742 -0.67834,0 -1.174779,-0.56844 -0.496439,-0.572231 -0.496439,-1.519632 0,-0.886767 0.450963,-1.534789 0.454753,-0.651812 1.296045,-0.651812 z m 4.54752,-0.01895 q 0.43202,0 0.83751,0.204638 0.40548,0.200849 0.6177,0.522966 0.20464,0.306958 0.27285,0.716235 0.0606,0.280431 0.0606,0.894346 h -2.97484 q 0.019,0.617706 0.2918,0.992877 0.27285,0.371381 0.84508,0.371381 0.53433,0 0.85266,-0.352433 0.1819,-0.204639 0.25769,-0.473701 h 0.67076 q -0.0265,0.223587 -0.17811,0.500228 -0.14779,0.272852 -0.33348,0.447173 -0.31075,0.303169 -0.76929,0.409278 -0.24633,0.06063 -0.55707,0.06063 -0.75793,0 -1.28468,-0.549492 -0.52676,-0.553283 -0.52676,-1.546159 0,-0.977718 0.53055,-1.587844 0.53054,-0.610126 1.38699,-0.610126 z m 1.08762,1.796272 q -0.0417,-0.443384 -0.19327,-0.708656 -0.28043,-0.492649 -0.93603,-0.492649 -0.46991,0 -0.78824,0.341065 -0.31833,0.337275 -0.33727,0.86024 z m -1.15204,-1.803852 z m 4.25573,-0.01895 q 0.68592,0 1.11414,0.333486 0.43202,0.333485 0.51918,1.14825 h -0.66318 q -0.0606,-0.375171 -0.27664,-0.621495 -0.21601,-0.250114 -0.6935,-0.250114 -0.65181,0 -0.93224,0.636653 -0.18191,0.413067 -0.18191,1.019404 0,0.610126 0.2577,1.026983 0.25769,0.416856 0.81097,0.416856 0.42444,0 0.67076,-0.257693 0.25012,-0.261483 0.34486,-0.712446 h 0.66318 q -0.11369,0.807186 -0.56844,1.182357 -0.45476,0.371381 -1.16341,0.371381 -0.79582,0 -1.26952,-0.579809 -0.4737,-0.583599 -0.4737,-1.455208 0,-1.068669 0.51918,-1.663637 0.51917,-0.594968 1.32257,-0.594968 z m -0.10611,0.01895 z m 2.42156,0.117478 h 0.69349 v 4.039718 h -0.69349 z m 0,-1.52721 h 0.69349 v 0.773079 h -0.69349 z m 2.12975,4.293621 q 0.0303,0.341065 0.17053,0.522966 0.25769,0.329695 0.89435,0.329695 0.37896,0 0.66697,-0.162953 0.28801,-0.166742 0.28801,-0.511596 0,-0.261483 -0.23117,-0.397909 -0.14779,-0.08337 -0.5836,-0.19327 l -0.54191,-0.136425 q -0.51918,-0.128847 -0.7655,-0.28801 -0.43959,-0.276641 -0.43959,-0.7655 0,-0.57602 0.41306,-0.932243 0.41686,-0.356223 1.11794,-0.356223 0.91708,0 1.32257,0.538124 0.2539,0.341064 0.24632,0.735183 h -0.64423 q -0.019,-0.231166 -0.16295,-0.420646 -0.23496,-0.269062 -0.81477,-0.269062 -0.38654,0 -0.58739,0.147795 -0.19706,0.147794 -0.19706,0.390329 0,0.265272 0.26149,0.424436 0.15158,0.09474 0.44717,0.166742 l 0.45096,0.109899 q 0.73519,0.178111 0.9853,0.344854 0.39791,0.261483 0.39791,0.822344 0,0.541913 -0.41307,0.936032 -0.40928,0.394119 -1.25057,0.394119 -0.90571,0 -1.28467,-0.409277 -0.37518,-0.413067 -0.4017,-1.019404 z m 1.00803,-2.883889 z m 2.46704,0.117478 h 0.6935 v 4.039718 h -0.6935 z m 0,-1.52721 h 0.6935 v 0.773079 h -0.6935 z m 3.33485,5.127334 q 0.67834,0 0.92845,-0.511596 0.25391,-0.515387 0.25391,-1.144461 0,-0.56844 -0.1819,-0.924663 -0.28801,-0.560862 -0.99288,-0.560862 -0.62528,0 -0.9095,0.47749 -0.28422,0.477491 -0.28422,1.15204 0,0.648022 0.28422,1.080037 0.28422,0.432015 0.90192,0.432015 z m 0.0265,-3.73655 q 0.78445,0 1.32636,0.522966 0.54191,0.522965 0.54191,1.538579 0,0.981508 -0.47749,1.621951 -0.47749,0.640443 -1.48173,0.640443 -0.8375,0 -1.33015,-0.564651 -0.49265,-0.568441 -0.49265,-1.523421 0,-1.023193 0.51917,-1.62953 0.51918,-0.606337 1.39458,-0.606337 z m -0.0227,0.01895 z m 2.70199,0.09853 h 0.64802 v 0.57602 q 0.28801,-0.356223 0.61013,-0.511597 0.32211,-0.155373 0.71623,-0.155373 0.86403,0 1.1672,0.602547 0.16674,0.329695 0.16674,0.943611 v 2.603458 h -0.69349 v -2.557983 q 0,-0.371381 -0.1099,-0.598757 -0.1819,-0.378961 -0.65939,-0.378961 -0.24254,0 -0.39791,0.04926 -0.28043,0.08337 -0.49265,0.333486 -0.17053,0.200849 -0.22359,0.416856 -0.0493,0.212218 -0.0493,0.610126 v 2.125968 h -0.68213 z m 1.603,-0.09853 z m 4.08141,3.368959 h 0.75413 v 0.788237 h -0.75413 z m -1.2771,-3.035473 q 0,-0.818555 0.46233,-1.314993 0.46233,-0.500228 1.26952,-0.500228 0.74655,0 1.19373,0.428225 0.45096,0.424436 0.45096,1.087617 0,0.401698 -0.16674,0.651812 -0.16296,0.250114 -0.66318,0.735183 -0.36381,0.352433 -0.47371,0.598758 -0.1061,0.242534 -0.1061,0.720024 h -0.67455 q 0,-0.541913 0.12884,-0.871609 0.12885,-0.333485 0.56465,-0.76171 l 0.30317,-0.299379 q 0.13643,-0.128846 0.2198,-0.269062 0.15158,-0.246324 0.15158,-0.511596 0,-0.371382 -0.22358,-0.644233 -0.2198,-0.272852 -0.7314,-0.272852 -0.63286,0 -0.8754,0.469911 -0.13642,0.261483 -0.15537,0.754132 z"
         id="path8" />
      <path
         style="font-weight:normal;-inkscape-font-specification:Helvetica;fill:#1a1a1a;fill-opacity:1"
         d="m 22.877155,70.06704 q 0,0.363802 -0.238745,0.602547 -0.234955,0.238745 -0.598758,0.238745 -0.363802,0 -0.602547,-0.238745 -0.234955,-0.238745 -0.234955,-0.602547 0,-0.363802 0.234955,-0.598757 0.238745,-0.234956 0.602547,-0.234956 0.363803,0 0.598758,0.234956 0.238745,0.234955 0.238745,0.598757 z m 3.296956,-2.785359 h 2.504928 q 0.742763,0 1.197515,0.420646 0.454753,0.416856 0.454753,1.174777 0,0.651812 -0.405488,1.136882 -0.405487,0.481279 -1.24678,0.481279 h -1.750797 v 2.353345 h -0.754131 z m 3.395485,1.599213 q 0,-0.613916 -0.454752,-0.833713 -0.250114,-0.117478 -0.685919,-0.117478 h -1.500683 v 1.928909 h 1.500683 q 0.507807,0 0.822345,-0.216008 0.318326,-0.216007 0.318326,-0.76171 z m 1.637109,-0.09095 h 0.648023 v 0.701077 q 0.07958,-0.204638 0.390329,-0.496438 0.310748,-0.295589 0.716235,-0.295589 0.01895,0 0.06442,0.0038 0.04548,0.0038 0.155374,0.01516 v 0.720025 q -0.06063,-0.01137 -0.113688,-0.01516 -0.04926,-0.0038 -0.109898,-0.0038 -0.515387,0 -0.792028,0.333485 -0.276641,0.329695 -0.276641,0.76171 v 2.334397 h -0.682129 z m 4.176144,3.619073 q 0.678339,0 0.928453,-0.511597 0.253904,-0.515386 0.253904,-1.144461 0,-0.56844 -0.181901,-0.924663 -0.28801,-0.560861 -0.992877,-0.560861 -0.625284,0 -0.909505,0.47749 -0.28422,0.47749 -0.28422,1.152039 0,0.648023 0.28422,1.080038 0.284221,0.432015 0.901926,0.432015 z m 0.02653,-3.73655 q 0.784448,0 1.326362,0.522965 0.541913,0.522965 0.541913,1.538579 0,0.981508 -0.47749,1.621951 -0.47749,0.640443 -1.481735,0.640443 -0.837503,0 -1.330151,-0.564651 -0.492649,-0.56844 -0.492649,-1.523421 0,-1.023193 0.519176,-1.62953 0.519176,-0.606336 1.394574,-0.606336 z m -0.02274,0.01895 z m 4.267095,-0.01895 q 0.685919,0 1.114144,0.333485 0.432015,0.333485 0.519176,1.14825 h -0.663181 q -0.06063,-0.375171 -0.276641,-0.621495 -0.216008,-0.250114 -0.693498,-0.250114 -0.651812,0 -0.932242,0.636653 -0.181901,0.413067 -0.181901,1.019404 0,0.610126 0.257693,1.026983 0.257693,0.416856 0.810975,0.416856 0.424436,0 0.67076,-0.257693 0.250114,-0.261482 0.344854,-0.712445 h 0.663181 q -0.113688,0.807185 -0.568441,1.182356 -0.454752,0.371381 -1.163408,0.371381 -0.795817,0 -1.269518,-0.579809 -0.4737,-0.583599 -0.4737,-1.455208 0,-1.068669 0.519175,-1.663636 0.519176,-0.594968 1.322572,-0.594968 z m -0.106109,0.01895 z m 2.440505,0.09853 h 0.648022 v 0.701077 q 0.07958,-0.204638 0.390329,-0.496438 0.310748,-0.295589 0.716236,-0.295589 0.01895,0 0.06442,0.0038 0.04548,0.0038 0.155374,0.01516 v 0.720025 q -0.06063,-0.01137 -0.113688,-0.01516 -0.04927,-0.0038 -0.109899,-0.0038 -0.515386,0 -0.792027,0.333485 -0.276641,0.329695 -0.276641,0.76171 V 72.84861 H 41.98813 Z m 3.088528,2.978629 q 0,0.29559 0.216008,0.466122 0.216007,0.170532 0.511596,0.170532 0.360013,0 0.697287,-0.166743 0.568441,-0.276641 0.568441,-0.905715 v -0.549493 q -0.125057,0.07958 -0.322116,0.132636 -0.19706,0.05306 -0.38654,0.07579 l -0.413067,0.05305 q -0.371381,0.04927 -0.557072,0.155374 -0.314537,0.178111 -0.314537,0.56844 z m 1.652268,-1.379416 q 0.234955,-0.03032 0.314537,-0.197059 0.04547,-0.09095 0.04547,-0.261483 0,-0.348643 -0.250114,-0.504017 -0.246324,-0.159163 -0.708656,-0.159163 -0.534334,0 -0.757921,0.288009 -0.125057,0.159164 -0.162953,0.473701 h -0.636653 q 0.01895,-0.750342 0.485069,-1.042141 0.469911,-0.295589 1.087617,-0.295589 0.716235,0 1.163408,0.272851 0.443384,0.272852 0.443384,0.848872 v 2.338185 q 0,0.106109 0.04169,0.170533 0.04548,0.06442 0.185691,0.06442 0.04548,0 0.102319,-0.0038 0.05684,-0.0076 0.121268,-0.01895 v 0.504018 q -0.159164,0.04547 -0.242535,0.05684 -0.08337,0.01137 -0.227376,0.01137 -0.352433,0 -0.511597,-0.250114 -0.08337,-0.132636 -0.117478,-0.375171 -0.208428,0.272851 -0.598757,0.4737 -0.390329,0.200849 -0.86024,0.200849 -0.564651,0 -0.924664,-0.341064 -0.356223,-0.344854 -0.356223,-0.86024 0,-0.564651 0.352434,-0.875399 0.352433,-0.310747 0.924663,-0.38275 z m -0.564651,-1.697742 z m 3.111264,2.883889 q 0.03032,0.341064 0.170532,0.522965 0.257693,0.329696 0.894347,0.329696 0.37896,0 0.66697,-0.162953 0.28801,-0.166743 0.28801,-0.511597 0,-0.261483 -0.231166,-0.397908 -0.147794,-0.08337 -0.583599,-0.19327 L 49.93872,71.02581 q -0.519176,-0.128847 -0.7655,-0.28801 -0.439595,-0.276641 -0.439595,-0.7655 0,-0.57602 0.413067,-0.932243 0.416857,-0.356223 1.117934,-0.356223 0.917084,0 1.322572,0.538124 0.253903,0.341065 0.246324,0.735184 h -0.644233 q -0.01895,-0.231166 -0.162953,-0.420647 -0.234955,-0.269061 -0.814765,-0.269061 -0.386539,0 -0.587388,0.147794 -0.19706,0.147795 -0.19706,0.390329 0,0.265273 0.261483,0.424436 0.151584,0.09474 0.447173,0.166743 l 0.450963,0.109898 q 0.735183,0.178112 0.985297,0.344854 0.397909,0.261483 0.397909,0.822344 0,0.541914 -0.413067,0.936033 -0.409278,0.394118 -1.25057,0.394118 -0.905715,0 -1.284676,-0.409277 -0.37517,-0.413067 -0.401698,-1.019403 z m 1.008035,-2.883889 z m 2.603459,-1.034562 h 0.689708 v 1.133091 h 0.648022 v 0.557072 h -0.648022 v 2.648934 q 0,0.212218 0.144005,0.28422 0.07958,0.04169 0.265272,0.04169 0.04926,0 0.106109,0 0.05684,-0.0038 0.132636,-0.01137 v 0.538124 q -0.117477,0.03411 -0.246324,0.04927 -0.125057,0.01516 -0.272851,0.01516 -0.477491,0 -0.648023,-0.242535 -0.170532,-0.246324 -0.170532,-0.636653 v -2.68683 H 52.33754 v -0.557072 h 0.549493 z m 2.019859,1.152039 h 0.693497 v 4.039719 h -0.693497 z m 0,-1.52721 h 0.693497 v 0.773079 h -0.693497 z m 1.72427,1.508262 h 0.648022 v 0.57602 q 0.28801,-0.356223 0.610126,-0.511596 0.322117,-0.155374 0.716235,-0.155374 0.86403,0 1.167199,0.602547 0.166742,0.329696 0.166742,0.943611 v 2.603459 h -0.693497 v -2.557983 q 0,-0.371382 -0.109899,-0.598758 -0.181901,-0.37896 -0.659391,-0.37896 -0.242535,0 -0.397909,0.04926 -0.28043,0.08337 -0.492648,0.333485 -0.170532,0.200849 -0.223587,0.416856 -0.04926,0.212218 -0.04926,0.610127 v 2.125968 h -0.682128 z m 1.603002,-0.09853 z m 3.236323,3.077158 q 0,0.29559 0.216008,0.466122 0.216007,0.170532 0.511596,0.170532 0.360013,0 0.697288,-0.166743 0.56844,-0.276641 0.56844,-0.905715 v -0.549493 q -0.125057,0.07958 -0.322116,0.132636 -0.197059,0.05306 -0.38654,0.07579 l -0.413067,0.05305 q -0.371381,0.04927 -0.557071,0.155374 -0.314538,0.178111 -0.314538,0.56844 z m 1.652268,-1.379416 q 0.234955,-0.03032 0.314537,-0.197059 0.04548,-0.09095 0.04548,-0.261483 0,-0.348643 -0.250114,-0.504017 -0.246324,-0.159163 -0.708656,-0.159163 -0.534334,0 -0.75792,0.288009 -0.125057,0.159164 -0.162953,0.473701 H 60.96647 q 0.01895,-0.750342 0.485069,-1.042141 0.469911,-0.295589 1.087617,-0.295589 0.716235,0 1.163408,0.272851 0.443384,0.272852 0.443384,0.848872 v 2.338185 q 0,0.106109 0.04169,0.170533 0.04547,0.06442 0.18569,0.06442 0.04548,0 0.10232,-0.0038 0.05684,-0.0076 0.121267,-0.01895 v 0.504018 q -0.159163,0.04547 -0.242535,0.05684 -0.08337,0.01137 -0.227376,0.01137 -0.352433,0 -0.511596,-0.250114 -0.08337,-0.132636 -0.117478,-0.375171 -0.208428,0.272851 -0.598758,0.4737 -0.390329,0.200849 -0.86024,0.200849 -0.564651,0 -0.924663,-0.341064 -0.356223,-0.344854 -0.356223,-0.86024 0,-0.564651 0.352433,-0.875399 0.352433,-0.310747 0.924663,-0.38275 z m -0.564651,-1.697742 z m 2.8422,-1.034562 h 0.689708 v 1.133091 h 0.648023 v 0.557072 h -0.648023 v 2.648934 q 0,0.212218 0.144005,0.28422 0.07958,0.04169 0.265273,0.04169 0.04926,0 0.106109,0 0.05684,-0.0038 0.132636,-0.01137 v 0.538124 q -0.117478,0.03411 -0.246324,0.04927 -0.125057,0.01516 -0.272852,0.01516 -0.47749,0 -0.648022,-0.242535 -0.170533,-0.246324 -0.170533,-0.636653 v -2.68683 h -0.549492 v -0.557072 h 0.549492 z m 2.019863,1.152039 h 0.693497 v 4.039719 h -0.693497 z m 0,-1.52721 h 0.693497 v 0.773079 h -0.693497 z m 1.72427,1.508262 h 0.648022 v 0.57602 q 0.28801,-0.356223 0.610126,-0.511596 0.322117,-0.155374 0.716236,-0.155374 0.864029,0 1.167198,0.602547 0.166742,0.329696 0.166742,0.943611 v 2.603459 H 71.759264 V 70.29063 q 0,-0.371382 -0.109899,-0.598758 -0.181901,-0.37896 -0.659391,-0.37896 -0.242535,0 -0.397908,0.04926 -0.280431,0.08337 -0.492649,0.333485 -0.170532,0.200849 -0.223587,0.416856 -0.04926,0.212218 -0.04926,0.610127 v 2.125968 h -0.682128 z m 1.603002,-0.09853 z m 4.145825,0.02653 q 0.47749,0 0.833713,0.234955 0.19327,0.132637 0.394119,0.38654 v -0.511597 h 0.629074 v 3.691075 q 0,0.773079 -0.227376,1.220253 -0.424436,0.826133 -1.603003,0.826133 -0.655602,0 -1.102775,-0.295589 -0.447173,-0.291799 -0.500228,-0.917084 h 0.693498 q 0.04927,0.272852 0.197059,0.420646 0.231166,0.227376 0.727604,0.227376 0.784449,0 1.026983,-0.553282 0.144005,-0.325906 0.132636,-1.163408 -0.204638,0.310747 -0.492648,0.462331 -0.28801,0.151585 -0.761711,0.151585 -0.659391,0 -1.155829,-0.466122 -0.492649,-0.469911 -0.492649,-1.549948 0,-1.019404 0.496439,-1.591634 0.500227,-0.57223 1.205094,-0.57223 z m 1.227832,2.084282 q 0,-0.754131 -0.310748,-1.117933 -0.310747,-0.363802 -0.792027,-0.363802 -0.720025,0 -0.985297,0.67455 -0.140216,0.360012 -0.140216,0.943611 0,0.685918 0.276641,1.045931 0.280431,0.356223 0.750342,0.356223 0.735183,0 1.034562,-0.663181 0.166743,-0.375171 0.166743,-0.875399 z m -1.14825,-2.110809 z m 4.172355,3.368958 h 0.754131 v 0.788238 h -0.754131 z m -1.277097,-3.035473 q 0,-0.818555 0.462332,-1.314993 0.462332,-0.500228 1.269518,-0.500228 0.746552,0 1.193725,0.428226 0.450963,0.424435 0.450963,1.087616 0,0.401698 -0.166743,0.651812 -0.162953,0.250114 -0.663181,0.735183 -0.363802,0.352434 -0.4737,0.598758 -0.106109,0.242534 -0.106109,0.720025 h -0.67455 q 0,-0.541914 0.128847,-0.871609 0.128847,-0.333486 0.564651,-0.761711 l 0.303168,-0.299379 q 0.136426,-0.128846 0.219797,-0.269062 0.151585,-0.246324 0.151585,-0.511596 0,-0.371381 -0.223587,-0.644233 -0.219797,-0.272851 -0.731394,-0.272851 -0.632864,0 -0.875398,0.469911 -0.136426,0.261482 -0.155374,0.754131 z"
         id="path9" />
      <path
         style="font-weight:normal;-inkscape-font-specification:Helvetica;fill:#1a1a1a;fill-opacity:1"
         d="m 22.877155,79.768427 q 0,0.363802 -0.238745,0.602547 -0.234955,0.238746 -0.598758,0.238746 -0.363802,0 -0.602547,-0.238746 -0.234955,-0.238745 -0.234955,-0.602547 0,-0.363802 0.234955,-0.598757 0.238745,-0.234956 0.602547,-0.234956 0.363803,0 0.598758,0.234956 0.238745,0.234955 0.238745,0.598757 z m 4.043508,-2.785359 v 3.440961 q 0,0.606337 0.227376,1.008035 0.337275,0.606336 1.136881,0.606336 0.95877,0 1.303624,-0.655601 0.185691,-0.356223 0.185691,-0.95877 v -3.440961 h 0.7655 v 3.126424 q 0,1.026983 -0.276641,1.580265 -0.507807,1.008035 -1.91754,1.008035 -1.409733,0 -1.91375,-1.008035 -0.276641,-0.553282 -0.276641,-1.580265 v -3.126424 z m 1.428681,0 z m 3.266639,1.508263 h 0.648022 v 0.57602 q 0.28801,-0.356223 0.610127,-0.511597 0.322116,-0.155374 0.716235,-0.155374 0.86403,0 1.167198,0.602547 0.166743,0.329696 0.166743,0.943612 v 2.603458 H 34.23081 v -2.557983 q 0,-0.371381 -0.109899,-0.598758 -0.181901,-0.37896 -0.659391,-0.37896 -0.242534,0 -0.397908,0.04927 -0.280431,0.08337 -0.492649,0.333485 -0.170532,0.200849 -0.223586,0.416857 -0.04926,0.212217 -0.04926,0.610126 v 2.125968 h -0.682129 z m 1.603003,-0.09853 z m 2.713356,0.09853 h 0.67455 v 0.57602 q 0.242535,-0.299379 0.439594,-0.435805 0.337275,-0.231166 0.7655,-0.231166 0.48507,0 0.780659,0.238745 0.166742,0.136426 0.303168,0.401698 0.227376,-0.325906 0.534334,-0.481279 0.306958,-0.159164 0.689708,-0.159164 0.818555,0 1.114144,0.591178 0.159163,0.318327 0.159163,0.856451 v 2.701988 h -0.708656 v -2.819466 q 0,-0.405487 -0.204638,-0.557072 -0.200849,-0.151584 -0.492649,-0.151584 -0.401698,0 -0.693498,0.269062 -0.288009,0.269062 -0.288009,0.898136 v 2.360924 h -0.693498 v -2.648934 q 0,-0.413066 -0.09853,-0.602547 -0.155374,-0.28422 -0.579809,-0.28422 -0.38654,0 -0.704867,0.299379 -0.314537,0.299379 -0.314537,1.083827 v 2.152495 h -0.682129 z m 8.075648,3.619072 q 0.678339,0 0.928453,-0.511597 0.253904,-0.515386 0.253904,-1.14446 0,-0.568441 -0.181901,-0.924664 -0.28801,-0.560861 -0.992877,-0.560861 -0.625284,0 -0.909505,0.47749 -0.28422,0.47749 -0.28422,1.15204 0,0.648022 0.28422,1.080037 0.284221,0.432015 0.901926,0.432015 z m 0.02653,-3.73655 q 0.784449,0 1.326362,0.522965 0.541913,0.522966 0.541913,1.53858 0,0.981507 -0.47749,1.62195 -0.47749,0.640444 -1.481735,0.640444 -0.837503,0 -1.330151,-0.564652 -0.492649,-0.56844 -0.492649,-1.52342 0,-1.023194 0.519176,-1.62953 0.519176,-0.606337 1.394574,-0.606337 z m -0.02274,0.01895 z m 2.838413,-1.034562 h 0.689708 v 1.133092 h 0.648022 v 0.557071 h -0.648022 v 2.648934 q 0,0.212218 0.144005,0.28422 0.07958,0.04169 0.265272,0.04169 0.04926,0 0.106109,0 0.05684,-0.0038 0.132636,-0.01137 v 0.538124 q -0.117478,0.03411 -0.246324,0.04926 -0.125057,0.01516 -0.272852,0.01516 -0.47749,0 -0.648022,-0.242534 -0.170532,-0.246325 -0.170532,-0.636654 v -2.68683 H 46.3007 v -0.557071 h 0.549493 z m 2.019858,1.15204 h 0.693498 v 4.039718 h -0.693498 z m 0,-1.527211 h 0.693498 v 0.773079 h -0.693498 z m 2.057755,1.508263 1.083827,3.304535 1.133092,-3.304535 h 0.746552 l -1.531,4.058666 h -0.727604 l -1.496894,-4.058666 z m 4.070037,2.978629 q 0,0.295589 0.216007,0.466121 0.216008,0.170532 0.511597,0.170532 0.360012,0 0.697287,-0.166742 0.568441,-0.276641 0.568441,-0.905716 v -0.549492 q -0.125057,0.07958 -0.322117,0.132636 -0.197059,0.05305 -0.386539,0.07579 l -0.413067,0.05305 q -0.371382,0.04927 -0.557072,0.155374 -0.314537,0.178111 -0.314537,0.568441 z m 1.652267,-1.379416 q 0.234956,-0.03032 0.314537,-0.19706 0.04548,-0.09095 0.04548,-0.261482 0,-0.348644 -0.250114,-0.504018 -0.246325,-0.159163 -0.708656,-0.159163 -0.534335,0 -0.757921,0.28801 -0.125057,0.159163 -0.162953,0.4737 h -0.636654 q 0.01895,-0.750341 0.48507,-1.042141 0.469911,-0.295589 1.087616,-0.295589 0.716235,0 1.163409,0.272851 0.443383,0.272852 0.443383,0.848872 v 2.338186 q 0,0.106109 0.04169,0.170532 0.04547,0.06442 0.185691,0.06442 0.04547,0 0.102319,-0.0038 0.05684,-0.0076 0.121267,-0.01895 v 0.504017 q -0.159163,0.04547 -0.242534,0.05684 -0.08337,0.01137 -0.227377,0.01137 -0.352433,0 -0.511596,-0.250114 -0.08337,-0.132636 -0.117478,-0.375171 -0.208428,0.272852 -0.598758,0.473701 -0.390329,0.200849 -0.86024,0.200849 -0.564651,0 -0.924663,-0.341065 -0.356223,-0.344854 -0.356223,-0.86024 0,-0.564651 0.352433,-0.875398 0.352433,-0.310748 0.924664,-0.382751 z m -0.564651,-1.697743 z m 2.842204,-1.034562 h 0.689708 v 1.133092 h 0.648023 v 0.557071 h -0.648023 v 2.648934 q 0,0.212218 0.144005,0.28422 0.07958,0.04169 0.265273,0.04169 0.04926,0 0.106109,0 0.05684,-0.0038 0.132636,-0.01137 v 0.538124 q -0.117478,0.03411 -0.246324,0.04926 -0.125057,0.01516 -0.272852,0.01516 -0.47749,0 -0.648022,-0.242534 -0.170533,-0.246325 -0.170533,-0.636654 v -2.68683 h -0.549492 v -0.557071 h 0.549492 z m 3.710023,1.042141 q 0.432014,0 0.837502,0.204639 0.405488,0.200849 0.617706,0.522965 0.204638,0.306958 0.272851,0.716235 0.06063,0.280431 0.06063,0.894347 h -2.97484 q 0.01895,0.617706 0.2918,0.992876 0.272851,0.371382 0.845082,0.371382 0.534334,0 0.852661,-0.352434 0.181901,-0.204638 0.257693,-0.4737 h 0.67076 q -0.02653,0.223587 -0.178112,0.500228 -0.147794,0.272851 -0.333485,0.447173 -0.310747,0.303168 -0.769289,0.409277 -0.246325,0.06063 -0.557072,0.06063 -0.757921,0 -1.284676,-0.549493 -0.526755,-0.553282 -0.526755,-1.546158 0,-0.977718 0.530544,-1.587845 0.530545,-0.610126 1.386996,-0.610126 z m 1.087616,1.796273 Q 63.683612,79.753271 63.532032,79.487999 63.251601,78.99535 62.596,78.99535 q -0.469911,0 -0.788238,0.341064 -0.318327,0.337275 -0.337275,0.860241 z m -1.15204,-1.803852 z m 3.122632,2.175233 q 0,0.651812 0.276641,1.091406 0.276641,0.439594 0.886767,0.439594 0.473701,0 0.776869,-0.405488 0.306958,-0.409277 0.306958,-1.170987 0,-0.76929 -0.314537,-1.136882 -0.314537,-0.371381 -0.776869,-0.371381 -0.515386,0 -0.837503,0.394119 -0.318326,0.394119 -0.318326,1.159619 z m 1.026982,-2.148706 q 0.466122,0 0.780659,0.19706 0.181901,0.113688 0.413067,0.397908 V 76.96412 h 0.655601 v 5.585877 h -0.613916 v -0.564651 q -0.238745,0.375171 -0.564651,0.541913 -0.325906,0.166743 -0.746552,0.166743 -0.678339,0 -1.174777,-0.568441 -0.496438,-0.57223 -0.496438,-1.519631 0,-0.886768 0.450963,-1.53479 0.454752,-0.651812 1.296044,-0.651812 z m 4.22541,3.342431 h 0.754132 v 0.788238 H 70.948286 Z M 69.67119,78.726286 q 0,-0.818554 0.462331,-1.314993 0.462332,-0.500227 1.269518,-0.500227 0.746552,0 1.193725,0.428225 0.450963,0.424436 0.450963,1.087616 0,0.401698 -0.166742,0.651812 -0.162953,0.250114 -0.663181,0.735184 -0.363802,0.352433 -0.473701,0.598757 -0.106109,0.242535 -0.106109,0.720025 h -0.674549 q 0,-0.541914 0.128846,-0.871609 0.128847,-0.333485 0.564651,-0.761711 l 0.303169,-0.299378 q 0.136425,-0.128847 0.219797,-0.269062 0.151584,-0.246325 0.151584,-0.511597 0,-0.371381 -0.223587,-0.644233 -0.219797,-0.272851 -0.731393,-0.272851 -0.632864,0 -0.875399,0.469911 -0.136426,0.261483 -0.155374,0.754131 z"
         id="path10" />
    </g>
  </g>
</svg>
