<?xml version="1.0" encoding="UTF-8" standalone="no"?>
<!-- Created with Inkscape (http://www.inkscape.org/) -->

<svg
   width="900"
   height="350"
   viewBox="0 0 238.12499 92.604166"
   version="1.1"
   id="svg1"
   inkscape:version="1.4.2 (ebf0e940, 2025-05-08)"
   sodipodi:docname="R2-Calendar.svg"
   xmlns:inkscape="http://www.inkscape.org/namespaces/inkscape"
   xmlns:sodipodi="http://sodipodi.sourceforge.net/DTD/sodipodi-0.dtd"
   xmlns="http://www.w3.org/2000/svg"
   xmlns:svg="http://www.w3.org/2000/svg">
  <sodipodi:namedview
     id="namedview1"
     pagecolor="#ffffff"
     bordercolor="#000000"
     borderopacity="0.25"
     inkscape:showpageshadow="2"
     inkscape:pageopacity="0.0"
     inkscape:pagecheckerboard="0"
     inkscape:deskcolor="#d1d1d1"
     inkscape:document-units="mm"
     showgrid="false"
     showguides="false"
     inkscape:zoom="0.94005909"
     inkscape:cx="479.22519"
     inkscape:cy="136.16165"
     inkscape:window-width="1408"
     inkscape:window-height="763"
     inkscape:window-x="9"
     inkscape:window-y="25"
     inkscape:window-maximized="0"
     inkscape:current-layer="layer1">
    <inkscape:grid
       id="grid2"
       units="mm"
       originx="0"
       originy="0"
       spacingx="0.066145831"
       spacingy="0.33072916"
       empcolor="#0099e5"
       empopacity="0.30196078"
       color="#0099e5"
       opacity="0.14901961"
       empspacing="5"
       enabled="true"
       visible="false" />
  </sodipodi:namedview>
  <defs
     id="defs1">
    <inkscape:path-effect
       effect="fillet_chamfer"
       id="path-effect5"
       is_visible="true"
       lpeversion="1"
       nodesatellites_param="F,0,0,1,0,0,0,1 @ F,0,0,1,0,0,0,1 @ F,0,0,1,0,0,0,1 @ F,0,0,1,0,0,0,1"
       radius="0"
       unit="px"
       method="auto"
       mode="F"
       chamfer_steps="1"
       flexible="false"
       use_knot_distance="true"
       apply_no_radius="true"
       apply_with_radius="true"
       only_selected="false"
       hide_knots="false" />
  </defs>
  <g
     inkscape:label="Layer 1"
     inkscape:groupmode="layer"
     id="layer1">
    <g
       id="text1-1"
       style="font-size:8.81944px;font-family:Helvetica;-inkscape-font-specification:'Helvetica, Normal';fill:#1a1a1a;stroke-width:0"
       aria-label="My secret for your success?&#10;Clinical Emotional Freedom Techniques (EFT)*.">
      <path
         style="font-weight:bold;-inkscape-font-specification:'Helvetica Bold';text-align:center;text-anchor:middle"
         d="m 59.659301,46.633156 h -1.235927 v -6.347585 h 1.929252 l 1.154107,4.991079 1.145493,-4.991079 h 1.907721 v 6.347585 h -1.235928 v -4.293448 q 0,-0.185174 0.0043,-0.516764 0.0043,-0.335897 0.0043,-0.516764 l -1.201476,5.326976 H 60.843552 L 59.650688,41.30618 q 0,0.180867 0.0043,0.516764 0.0043,0.33159 0.0043,0.516764 z m 7.940941,-1.231621 0.968933,-3.462319 h 1.304829 l -1.610581,4.616425 q -0.465088,1.334974 -0.736389,1.653645 -0.271301,0.322978 -1.085205,0.322978 -0.163641,0 -0.262688,-0.0043 -0.09905,0 -0.297139,-0.01292 v -0.981851 l 0.155029,0.0086 q 0.180867,0.0086 0.344509,-0.01292 0.163642,-0.02153 0.275608,-0.09905 0.107659,-0.07321 0.198093,-0.305752 0.09474,-0.232544 0.07751,-0.284221 l -1.722547,-4.900645 h 1.365119 z m 8.681636,-3.247001 q 0.551215,0.353122 0.633036,1.214396 H 75.6876 q -0.02584,-0.236851 -0.133498,-0.374654 -0.202399,-0.24977 -0.689018,-0.24977 -0.400492,0 -0.572747,0.124885 -0.167948,0.124885 -0.167948,0.292833 0,0.211012 0.180867,0.305752 0.180867,0.09905 1.278991,0.340203 0.732082,0.172255 1.098124,0.52107 0.361734,0.353123 0.361734,0.882806 0,0.697631 -0.52107,1.141187 -0.516764,0.439249 -1.601969,0.439249 -1.106736,0 -1.636419,-0.465087 Q 72.75927,45.85801 72.75927,45.13454 h 1.24454 q 0.03876,0.327284 0.167949,0.465088 0.228237,0.245463 0.844048,0.245463 0.361734,0 0.572746,-0.10766 0.215319,-0.107659 0.215319,-0.322977 0,-0.206706 -0.172255,-0.314365 -0.172255,-0.107659 -1.278991,-0.370347 -0.796678,-0.198093 -1.123962,-0.495233 -0.327284,-0.292833 -0.327284,-0.844048 0,-0.650261 0.508152,-1.115349 0.512457,-0.469394 1.438326,-0.469394 0.878499,0 1.43402,0.348816 z m 5.688711,3.100584 q -0.04737,0.417718 -0.434943,0.848355 -0.602891,0.684712 -1.688096,0.684712 -0.895724,0 -1.580436,-0.577053 -0.684713,-0.577053 -0.684713,-1.877576 0,-1.218702 0.615811,-1.868964 0.620117,-0.650261 1.606275,-0.650261 0.585666,0 1.05506,0.219625 0.469394,0.219624 0.775146,0.693325 0.275607,0.417717 0.357428,0.968932 0.04737,0.322978 0.03876,0.930176 h -3.212549 q 0.02584,0.706244 0.443555,0.990464 0.254076,0.176561 0.611505,0.176561 0.37896,0 0.61581,-0.215318 0.129191,-0.116272 0.228237,-0.322978 z m -1.214395,-1.438326 q -0.03014,-0.48662 -0.29714,-0.736389 -0.262688,-0.254076 -0.654567,-0.254076 -0.426331,0 -0.663181,0.266995 -0.232544,0.266995 -0.292833,0.72347 z m 6.16241,-0.193787 h -1.257459 q -0.03445,-0.262688 -0.176561,-0.4737 -0.206706,-0.28422 -0.641649,-0.28422 -0.620117,0 -0.848354,0.61581 -0.120578,0.327284 -0.120578,0.869886 0,0.516764 0.120578,0.831129 0.219625,0.585666 0.826822,0.585666 0.430637,0 0.611504,-0.232544 0.180868,-0.232544 0.219625,-0.602891 h 1.253153 q -0.04306,0.559828 -0.404799,1.059366 -0.577053,0.805291 -1.709627,0.805291 -1.132575,0 -1.666564,-0.671793 -0.53399,-0.671794 -0.53399,-1.744079 0,-1.210089 0.589972,-1.881883 0.589973,-0.671793 1.627807,-0.671793 0.882805,0 1.442633,0.396186 0.564134,0.396186 0.667487,1.399569 z m 3.203938,-0.551215 q -0.740695,0 -0.994771,0.482313 -0.14211,0.271301 -0.14211,0.835436 v 2.243617 h -1.235927 v -4.69394 h 1.171332 v 0.818209 q 0.28422,-0.469394 0.495232,-0.641648 0.344509,-0.288527 0.895724,-0.288527 0.03445,0 0.05598,0.0043 0.02584,0 0.107659,0.0043 v 1.257459 q -0.116272,-0.01292 -0.206705,-0.01723 -0.09043,-0.0043 -0.146417,-0.0043 z m 5.090126,2.183328 q -0.04737,0.417718 -0.434943,0.848355 -0.602891,0.684712 -1.688096,0.684712 -0.895724,0 -1.580437,-0.577053 -0.684712,-0.577053 -0.684712,-1.877576 0,-1.218702 0.61581,-1.868964 0.620117,-0.650261 1.606275,-0.650261 0.585666,0 1.05506,0.219625 0.469394,0.219624 0.775146,0.693325 0.275608,0.417717 0.357429,0.968932 0.04737,0.322978 0.03876,0.930176 h -3.21255 q 0.02584,0.706244 0.443556,0.990464 0.254076,0.176561 0.611504,0.176561 0.378961,0 0.615811,-0.215318 0.129191,-0.116272 0.228237,-0.322978 z m -1.214395,-1.438326 q -0.03015,-0.48662 -0.29714,-0.736389 -0.262688,-0.254076 -0.654568,-0.254076 -0.42633,0 -0.66318,0.266995 -0.232544,0.266995 -0.292833,0.72347 z m 4.250385,1.942171 v 0.917256 l -0.58136,0.02153 q -0.869886,0.03015 -1.188557,-0.301445 -0.206706,-0.211012 -0.206706,-0.650262 v -2.889572 h -0.654568 v -0.874193 h 0.654568 v -1.309135 h 1.214396 v 1.309135 h 0.762227 v 0.874193 h -0.762227 v 2.480467 q 0,0.288527 0.07321,0.361735 0.07321,0.0689 0.447862,0.0689 0.05598,0 0.116272,0 0.0646,-0.0043 0.124885,-0.0086 z m 5.438942,-5.51215 v 0.999078 q -0.10335,-0.01292 -0.34882,-0.01723 -0.24115,-0.0086 -0.33589,0.107659 -0.0904,0.111966 -0.0904,0.24977 v 0.396185 h 0.80529 v 0.86558 h -0.80529 v 3.785297 h -1.22301 v -3.785297 h -0.68471 v -0.86558 h 0.67179 v -0.301445 q 0,-0.753615 0.25408,-1.037835 0.267,-0.422024 1.2876,-0.422024 0.11628,0 0.21102,0.0086 0.0947,0.0043 0.25838,0.01723 z m 4.65088,2.286681 q 0.59427,0.745002 0.59427,1.761304 0,1.033529 -0.59427,1.769917 -0.59428,0.732083 -1.80437,0.732083 -1.21009,0 -1.80437,-0.732083 -0.59428,-0.736388 -0.59428,-1.769917 0,-1.016302 0.59428,-1.761304 0.59428,-0.745001 1.80437,-0.745001 1.21009,0 1.80437,0.745001 z m -1.80868,0.292833 q -0.53829,0 -0.83113,0.383267 -0.28852,0.37896 -0.28852,1.085204 0,0.706245 0.28852,1.089511 0.29284,0.383267 0.83113,0.383267 0.5383,0 0.82682,-0.383267 0.28853,-0.383266 0.28853,-1.089511 0,-0.706244 -0.28853,-1.085204 -0.28852,-0.383267 -0.82682,-0.383267 z m 5.64134,0.245463 q -0.74069,0 -0.99477,0.482313 -0.14211,0.271301 -0.14211,0.835436 v 2.243617 h -1.23593 v -4.69394 h 1.17133 v 0.818209 q 0.28423,-0.469394 0.49524,-0.641648 0.34451,-0.288527 0.89572,-0.288527 0.0345,0 0.056,0.0043 0.0258,0 0.10766,0.0043 v 1.257459 q -0.11627,-0.01292 -0.2067,-0.01723 -0.0904,-0.0043 -0.14642,-0.0043 z m 5.43033,2.329745 0.96893,-3.462319 h 1.30483 l -1.61058,4.616425 q -0.46509,1.334974 -0.73639,1.653645 -0.2713,0.322978 -1.0852,0.322978 -0.16365,0 -0.26269,-0.0043 -0.099,0 -0.29714,-0.01292 v -0.981851 l 0.15503,0.0086 q 0.18086,0.0086 0.34451,-0.01292 0.16364,-0.02153 0.2756,-0.09905 0.10766,-0.07321 0.1981,-0.305752 0.0947,-0.232544 0.0775,-0.284221 l -1.72255,-4.900645 h 1.36512 z m 6.91172,-2.868041 q 0.59428,0.745002 0.59428,1.761304 0,1.033529 -0.59428,1.769917 -0.59428,0.732083 -1.80437,0.732083 -1.21009,0 -1.80437,-0.732083 -0.59428,-0.736388 -0.59428,-1.769917 0,-1.016302 0.59428,-1.761304 0.59428,-0.745001 1.80437,-0.745001 1.21009,0 1.80437,0.745001 z m -1.80868,0.292833 q -0.53829,0 -0.83112,0.383267 -0.28853,0.37896 -0.28853,1.085204 0,0.706245 0.28853,1.089511 0.29283,0.383267 0.83112,0.383267 0.5383,0 0.82683,-0.383267 0.28852,-0.383266 0.28852,-1.089511 0,-0.706244 -0.28852,-1.085204 -0.28853,-0.383267 -0.82683,-0.383267 z m 6.29161,3.143648 q -0.0172,0.02153 -0.0861,0.129191 -0.0689,0.107659 -0.16364,0.18948 -0.28853,0.258382 -0.55983,0.353123 -0.267,0.09474 -0.62873,0.09474 -1.04214,0 -1.40388,-0.749308 -0.2024,-0.413411 -0.2024,-1.218702 v -2.829283 h 1.25746 v 2.829283 q 0,0.400492 0.0947,0.602891 0.16795,0.357429 0.65888,0.357429 0.62873,0 0.86127,-0.508152 0.12058,-0.275607 0.12058,-0.727776 v -2.553675 h 1.24454 v 4.69394 h -1.19286 z m 4.737,-2.898185 q -0.74069,0 -0.99477,0.482313 -0.14211,0.271301 -0.14211,0.835436 v 2.243617 h -1.23593 v -4.69394 h 1.17134 v 0.818209 q 0.28422,-0.469394 0.49523,-0.641648 0.34451,-0.288527 0.89572,-0.288527 0.0345,0 0.056,0.0043 0.0258,0 0.10765,0.0043 v 1.257459 q -0.11627,-0.01292 -0.2067,-0.01723 -0.0904,-0.0043 -0.14642,-0.0043 z m 6.75669,-0.917256 q 0.55122,0.353122 0.63304,1.214396 h -1.22731 q -0.0258,-0.236851 -0.1335,-0.374654 -0.2024,-0.24977 -0.68902,-0.24977 -0.40049,0 -0.57275,0.124885 -0.16795,0.124885 -0.16795,0.292833 0,0.211012 0.18087,0.305752 0.18087,0.09905 1.27899,0.340203 0.73209,0.172255 1.09813,0.52107 0.36173,0.353123 0.36173,0.882806 0,0.697631 -0.52107,1.141187 -0.51676,0.439249 -1.60197,0.439249 -1.10673,0 -1.63642,-0.465087 -0.52537,-0.469394 -0.52537,-1.192864 h 1.24454 q 0.0387,0.327284 0.16794,0.465088 0.22824,0.245463 0.84405,0.245463 0.36174,0 0.57275,-0.10766 0.21532,-0.107659 0.21532,-0.322977 0,-0.206706 -0.17226,-0.314365 -0.17225,-0.107659 -1.27899,-0.370347 -0.79668,-0.198093 -1.12396,-0.495233 -0.32728,-0.292833 -0.32728,-0.844048 0,-0.650261 0.50815,-1.115349 0.51246,-0.469394 1.43832,-0.469394 0.8785,0 1.43402,0.348816 z m 4.68102,3.815441 q -0.0172,0.02153 -0.0861,0.129191 -0.0689,0.107659 -0.16364,0.18948 -0.28853,0.258382 -0.55983,0.353123 -0.26699,0.09474 -0.62873,0.09474 -1.04214,0 -1.40387,-0.749308 -0.2024,-0.413411 -0.2024,-1.218702 v -2.829283 h 1.25746 v 2.829283 q 0,0.400492 0.0947,0.602891 0.16795,0.357429 0.65887,0.357429 0.62873,0 0.86127,-0.508152 0.12058,-0.275607 0.12058,-0.727776 v -2.553675 h 1.24454 v 4.69394 h -1.19286 z m 6.43802,-2.34697 h -1.25746 q -0.0345,-0.262688 -0.17656,-0.4737 -0.20671,-0.28422 -0.64165,-0.28422 -0.62012,0 -0.84835,0.61581 -0.12058,0.327284 -0.12058,0.869886 0,0.516764 0.12058,0.831129 0.21962,0.585666 0.82682,0.585666 0.43064,0 0.6115,-0.232544 0.18087,-0.232544 0.21963,-0.602891 h 1.25315 q -0.0431,0.559828 -0.4048,1.059366 -0.57705,0.805291 -1.70962,0.805291 -1.13258,0 -1.66657,-0.671793 -0.53399,-0.671794 -0.53399,-1.744079 0,-1.210089 0.58997,-1.881883 0.58998,-0.671793 1.62781,-0.671793 0.88281,0 1.44263,0.396186 0.56414,0.396186 0.66749,1.399569 z m 4.90495,0 h -1.25746 q -0.0344,-0.262688 -0.17656,-0.4737 -0.2067,-0.28422 -0.64165,-0.28422 -0.62011,0 -0.84835,0.61581 -0.12058,0.327284 -0.12058,0.869886 0,0.516764 0.12058,0.831129 0.21963,0.585666 0.82682,0.585666 0.43064,0 0.61151,-0.232544 0.18086,-0.232544 0.21962,-0.602891 h 1.25315 q -0.0431,0.559828 -0.40479,1.059366 -0.57706,0.805291 -1.70963,0.805291 -1.13258,0 -1.66657,-0.671793 -0.53399,-0.671794 -0.53399,-1.744079 0,-1.210089 0.58998,-1.881883 0.58997,-0.671793 1.6278,-0.671793 0.88281,0 1.44264,0.396186 0.56413,0.396186 0.66748,1.399569 z m 4.86189,1.632113 q -0.0474,0.417718 -0.43494,0.848355 -0.60289,0.684712 -1.6881,0.684712 -0.89572,0 -1.58043,-0.577053 -0.68472,-0.577053 -0.68472,-1.877576 0,-1.218702 0.61582,-1.868964 0.62011,-0.650261 1.60627,-0.650261 0.58567,0 1.05506,0.219625 0.46939,0.219624 0.77515,0.693325 0.2756,0.417717 0.35742,0.968932 0.0474,0.322978 0.0388,0.930176 h -3.21255 q 0.0258,0.706244 0.44356,0.990464 0.25407,0.176561 0.6115,0.176561 0.37896,0 0.61581,-0.215318 0.12919,-0.116272 0.22824,-0.322978 z m -1.21439,-1.438326 q -0.0302,-0.48662 -0.29714,-0.736389 -0.26269,-0.254076 -0.65457,-0.254076 -0.42633,0 -0.66318,0.266995 -0.23254,0.266995 -0.29283,0.72347 z m 5.33559,-1.662258 q 0.55121,0.353122 0.63303,1.214396 h -1.22731 q -0.0258,-0.236851 -0.1335,-0.374654 -0.2024,-0.24977 -0.68902,-0.24977 -0.40049,0 -0.57274,0.124885 -0.16795,0.124885 -0.16795,0.292833 0,0.211012 0.18086,0.305752 0.18087,0.09905 1.279,0.340203 0.73208,0.172255 1.09812,0.52107 0.36173,0.353123 0.36173,0.882806 0,0.697631 -0.52107,1.141187 -0.51676,0.439249 -1.60196,0.439249 -1.10674,0 -1.63642,-0.465087 -0.52538,-0.469394 -0.52538,-1.192864 h 1.24454 q 0.0388,0.327284 0.16795,0.465088 0.22823,0.245463 0.84405,0.245463 0.36173,0 0.57274,-0.10766 0.21532,-0.107659 0.21532,-0.322977 0,-0.206706 -0.17225,-0.314365 -0.17226,-0.107659 -1.279,-0.370347 -0.79667,-0.198093 -1.12396,-0.495233 -0.32728,-0.292833 -0.32728,-0.844048 0,-0.650261 0.50815,-1.115349 0.51246,-0.469394 1.43833,-0.469394 0.8785,0 1.43402,0.348816 z m 4.90495,0 q 0.55122,0.353122 0.63304,1.214396 h -1.22732 q -0.0258,-0.236851 -0.1335,-0.374654 -0.2024,-0.24977 -0.68901,-0.24977 -0.4005,0 -0.57275,0.124885 -0.16795,0.124885 -0.16795,0.292833 0,0.211012 0.18087,0.305752 0.18087,0.09905 1.27899,0.340203 0.73208,0.172255 1.09812,0.52107 0.36174,0.353123 0.36174,0.882806 0,0.697631 -0.52107,1.141187 -0.51677,0.439249 -1.60197,0.439249 -1.10674,0 -1.63642,-0.465087 -0.52538,-0.469394 -0.52538,-1.192864 h 1.24454 q 0.0388,0.327284 0.16795,0.465088 0.22824,0.245463 0.84405,0.245463 0.36173,0 0.57275,-0.10766 0.21531,-0.107659 0.21531,-0.322977 0,-0.206706 -0.17225,-0.314365 -0.17226,-0.107659 -1.27899,-0.370347 -0.79668,-0.198093 -1.12396,-0.495233 -0.32729,-0.292833 -0.32729,-0.844048 0,-0.650261 0.50815,-1.115349 0.51246,-0.469394 1.43833,-0.469394 0.8785,0 1.43402,0.348816 z m 4.44847,2.135958 q -0.0517,0.163642 -0.056,0.508151 h -1.16272 q 0.0258,-0.727776 0.1378,-1.003383 0.11197,-0.279914 0.57706,-0.641649 l 0.31436,-0.245463 q 0.15503,-0.116272 0.24977,-0.254075 0.17225,-0.236851 0.17225,-0.521071 0,-0.327284 -0.19378,-0.594278 -0.18948,-0.271302 -0.69763,-0.271302 -0.49954,0 -0.71055,0.331591 -0.20671,0.33159 -0.20671,0.689018 h -1.24454 q 0.0517,-1.227314 0.85697,-1.739772 0.50815,-0.327284 1.24884,-0.327284 0.97324,0 1.61489,0.465088 0.64596,0.465087 0.64596,1.378037 0,0.559828 -0.27992,0.943095 -0.16364,0.232544 -0.62873,0.594278 l -0.30575,0.236851 q -0.24977,0.193786 -0.33159,0.452168 z m 0.0344,2.342664 h -1.2833 v -1.24454 h 1.2833 z"
         id="path14" />
      <path
         style="font-weight:bold;-inkscape-font-specification:'Helvetica Bold';text-align:center;text-anchor:middle"
         d="m 23.574098,57.183755 q -0.710551,0.650262 -1.817287,0.650262 -1.369425,0 -2.153184,-0.878499 -0.783759,-0.882805 -0.783759,-2.420178 0,-1.662258 0.891418,-2.562289 0.775146,-0.783759 1.972316,-0.783759 1.601969,0 2.342664,1.050754 0.409105,0.589972 0.43925,1.184251 h -1.326361 q -0.129191,-0.456475 -0.331591,-0.689019 -0.361735,-0.413411 -1.072285,-0.413411 -0.72347,0 -1.141187,0.585666 -0.417718,0.581359 -0.417718,1.649338 0,1.067979 0.439249,1.601969 0.443556,0.529683 1.123962,0.529683 0.697632,0 1.063673,-0.456475 0.202399,-0.245463 0.335897,-0.736389 h 1.313442 q -0.172255,1.037835 -0.878499,1.688096 z m 1.817286,-5.873884 h 1.227315 v 6.347585 h -1.227315 z m 3.686251,1.653645 v 4.69394 h -1.24454 v -4.69394 z m 0,-1.692403 v 1.132575 h -1.24454 v -1.132575 z m 3.397723,2.601046 q -0.624423,0 -0.856967,0.529683 -0.120579,0.279914 -0.120579,0.714857 v 2.540757 h -1.223008 v -4.685328 h 1.184251 v 0.684713 q 0.23685,-0.361735 0.447862,-0.521071 0.378961,-0.28422 0.96032,-0.28422 0.727776,0 1.188557,0.383267 0.465088,0.37896 0.465088,1.261765 v 3.160874 h -1.257459 v -2.855122 q 0,-0.370347 -0.09905,-0.56844 -0.180868,-0.361735 -0.689019,-0.361735 z m 4.439865,-0.908643 v 4.69394 h -1.24454 v -4.69394 z m 0,-1.692403 v 1.132575 h -1.24454 v -1.132575 z m 5.249462,3.376192 h -1.257459 q -0.03445,-0.262688 -0.176561,-0.4737 -0.206706,-0.284221 -0.641649,-0.284221 -0.620117,0 -0.848354,0.615811 -0.120579,0.327284 -0.120579,0.869886 0,0.516764 0.120579,0.831129 0.219624,0.585666 0.826822,0.585666 0.430637,0 0.611504,-0.232544 0.180868,-0.232544 0.219625,-0.602891 h 1.253153 q -0.04306,0.559827 -0.404799,1.059366 -0.577053,0.805291 -1.709627,0.805291 -1.132575,0 -1.666565,-0.671794 -0.533989,-0.671793 -0.533989,-1.744078 0,-1.210089 0.589972,-1.881883 0.589973,-0.671793 1.627807,-0.671793 0.882805,0 1.442633,0.396186 0.564134,0.396186 0.667487,1.399569 z m 1.020608,-1.175638 q 0.486619,-0.620117 1.67087,-0.620117 0.77084,0 1.369425,0.305752 0.598585,0.305752 0.598585,1.154106 v 2.153184 q 0,0.223931 0.0086,0.542602 0.01292,0.241157 0.07321,0.327284 0.06029,0.08613 0.180867,0.14211 v 0.180868 h -1.334973 q -0.05598,-0.14211 -0.07751,-0.266995 -0.02153,-0.124885 -0.03445,-0.28422 -0.254076,0.275607 -0.585666,0.469394 -0.396186,0.228237 -0.895724,0.228237 -0.637343,0 -1.05506,-0.361735 -0.413411,-0.366041 -0.413411,-1.033528 0,-0.86558 0.667487,-1.253153 0.366041,-0.211012 1.076591,-0.301445 l 0.417718,-0.05168 q 0.340203,-0.04306 0.486619,-0.107659 0.262689,-0.111965 0.262689,-0.348816 0,-0.288526 -0.202399,-0.396185 -0.198093,-0.111966 -0.585666,-0.111966 -0.434943,0 -0.615811,0.215318 -0.129191,0.159336 -0.172255,0.430637 h -1.184251 q 0.03876,-0.61581 0.34451,-1.011996 z m 0.91295,3.298677 q 0.172254,0.14211 0.422024,0.14211 0.396185,0 0.727776,-0.232544 0.335896,-0.232543 0.348815,-0.848354 v -0.456475 q -0.116271,0.07321 -0.23685,0.120578 -0.116272,0.04306 -0.322977,0.08182 l -0.275608,0.05168 q -0.387573,0.0689 -0.555521,0.167948 -0.28422,0.167948 -0.28422,0.521071 0,0.314364 0.176561,0.452168 z m 3.84128,-5.460473 h 1.227315 v 6.347585 h -1.227315 z m 9.392187,3.574284 h -3.083359 v 1.632113 h 3.513996 v 1.141188 h -4.810212 v -6.347585 h 4.655183 v 1.123961 h -3.358967 v 1.347893 h 3.083359 z m 4.000614,-0.628729 q -0.15503,-0.340203 -0.607198,-0.340203 -0.525377,0 -0.706244,0.340203 -0.09905,0.193786 -0.09905,0.577053 v 2.824977 h -1.24454 v -4.685328 h 1.192864 v 0.684713 q 0.228237,-0.366042 0.430636,-0.521071 0.357429,-0.275607 0.925869,-0.275607 0.538296,0 0.869887,0.23685 0.266994,0.219625 0.404798,0.564134 0.241157,-0.413411 0.598585,-0.607198 0.37896,-0.193786 0.844048,-0.193786 0.310058,0 0.611504,0.120578 0.301446,0.120578 0.546909,0.422024 0.198093,0.245463 0.266995,0.602891 0.04306,0.236851 0.04306,0.693325 l -0.0086,2.958475 h -1.25746 v -2.988619 q 0,-0.266995 -0.08613,-0.43925 -0.163642,-0.327283 -0.602891,-0.327283 -0.508152,0 -0.701938,0.422024 -0.09905,0.223931 -0.09905,0.538295 v 2.794833 h -1.235927 v -2.794833 q 0,-0.417717 -0.08613,-0.607197 z m 9.120887,-0.697632 q 0.594278,0.745002 0.594278,1.761304 0,1.033528 -0.594278,1.769917 -0.594279,0.732083 -1.804368,0.732083 -1.210089,0 -1.804368,-0.732083 -0.594279,-0.736389 -0.594279,-1.769917 0,-1.016302 0.594279,-1.761304 0.594279,-0.745001 1.804368,-0.745001 1.210089,0 1.804368,0.745001 z m -1.808675,0.292833 q -0.538295,0 -0.831128,0.383267 -0.288527,0.37896 -0.288527,1.085204 0,0.706245 0.288527,1.089511 0.292833,0.383267 0.831128,0.383267 0.538296,0 0.826823,-0.383267 0.288527,-0.383266 0.288527,-1.089511 0,-0.706244 -0.288527,-1.085204 -0.288527,-0.383267 -0.826823,-0.383267 z m 5.430328,2.932636 v 0.917256 l -0.581359,0.02153 q -0.869886,0.03014 -1.188558,-0.301446 -0.206705,-0.211011 -0.206705,-0.650261 v -2.889572 h -0.654568 v -0.874193 h 0.654568 v -1.309135 h 1.214395 v 1.309135 h 0.762227 v 0.874193 h -0.762227 v 2.480467 q 0,0.288527 0.07321,0.361735 0.07321,0.0689 0.447862,0.0689 0.05598,0 0.116272,0 0.06459,-0.0043 0.124884,-0.0086 z m 2.049832,-3.819747 v 4.69394 h -1.24454 v -4.69394 z m 0,-1.692403 v 1.132575 h -1.24454 v -1.132575 z m 5.103043,2.286681 q 0.594279,0.745002 0.594279,1.761304 0,1.033528 -0.594279,1.769917 -0.594279,0.732083 -1.804368,0.732083 -1.210089,0 -1.804367,-0.732083 -0.594279,-0.736389 -0.594279,-1.769917 0,-1.016302 0.594279,-1.761304 0.594278,-0.745001 1.804367,-0.745001 1.210089,0 1.804368,0.745001 z m -1.808674,0.292833 q -0.538296,0 -0.831129,0.383267 -0.288526,0.37896 -0.288526,1.085204 0,0.706245 0.288526,1.089511 0.292833,0.383267 0.831129,0.383267 0.538296,0 0.826822,-0.383267 0.288527,-0.383266 0.288527,-1.089511 0,-0.706244 -0.288527,-1.085204 -0.288526,-0.383267 -0.826822,-0.383267 z m 5.490617,0.02153 q -0.624423,0 -0.856967,0.529683 -0.120578,0.279914 -0.120578,0.714857 v 2.540757 h -1.223009 v -4.685328 h 1.184251 v 0.684713 q 0.236851,-0.361735 0.447863,-0.521071 0.37896,-0.28422 0.960319,-0.28422 0.727776,0 1.188558,0.383267 0.465087,0.37896 0.465087,1.261765 v 3.160874 h -1.257459 v -2.855122 q 0,-0.370347 -0.09905,-0.56844 -0.180868,-0.361735 -0.689019,-0.361735 z m 3.354663,-0.400492 q 0.486619,-0.620117 1.67087,-0.620117 0.77084,0 1.369425,0.305752 0.598585,0.305752 0.598585,1.154106 v 2.153184 q 0,0.223931 0.0086,0.542602 0.01292,0.241157 0.07321,0.327284 0.06029,0.08613 0.180867,0.14211 v 0.180868 H 90.83094 q -0.05598,-0.14211 -0.07752,-0.266995 -0.02153,-0.124885 -0.03445,-0.28422 -0.254076,0.275607 -0.585666,0.469394 -0.396186,0.228237 -0.895724,0.228237 -0.637343,0 -1.05506,-0.361735 -0.413411,-0.366041 -0.413411,-1.033528 0,-0.86558 0.667486,-1.253153 0.366042,-0.211012 1.076592,-0.301445 l 0.417718,-0.05168 q 0.340203,-0.04306 0.486619,-0.107659 0.262689,-0.111965 0.262689,-0.348816 0,-0.288526 -0.202399,-0.396185 -0.198093,-0.111966 -0.585666,-0.111966 -0.434943,0 -0.615811,0.215318 -0.129191,0.159336 -0.172255,0.430637 h -1.184251 q 0.03876,-0.61581 0.34451,-1.011996 z m 0.91295,3.298677 q 0.172254,0.14211 0.422024,0.14211 0.396185,0 0.727776,-0.232544 0.335896,-0.232543 0.348815,-0.848354 v -0.456475 q -0.116272,0.07321 -0.23685,0.120578 -0.116272,0.04306 -0.322977,0.08182 l -0.275608,0.05168 q -0.387573,0.0689 -0.555521,0.167948 -0.28422,0.167948 -0.28422,0.521071 0,0.314364 0.176561,0.452168 z m 3.84128,-5.460473 h 1.227315 v 6.347585 h -1.227315 z m 9.474005,1.123961 h -3.182406 v 1.459859 h 2.786216 v 1.10243 h -2.786216 v 2.661335 h -1.317748 v -6.338973 h 4.500154 z m 3.14796,1.662258 q -0.7407,0 -0.99477,0.482313 -0.14211,0.271301 -0.14211,0.835435 v 2.243618 h -1.23593 v -4.69394 h 1.17133 v 0.818209 q 0.28422,-0.469394 0.49523,-0.641648 0.34451,-0.288527 0.89573,-0.288527 0.0344,0 0.056,0.0043 0.0258,0 0.10766,0.0043 v 1.257459 q -0.11627,-0.01292 -0.20671,-0.01723 -0.0904,-0.0043 -0.14641,-0.0043 z m 5.09012,2.183328 q -0.0474,0.417718 -0.43494,0.848355 -0.60289,0.684712 -1.6881,0.684712 -0.89572,0 -1.58043,-0.577053 -0.68472,-0.577053 -0.68472,-1.877576 0,-1.218702 0.61581,-1.868964 0.62012,-0.650261 1.60628,-0.650261 0.58567,0 1.05506,0.219625 0.46939,0.219624 0.77515,0.693325 0.2756,0.417717 0.35742,0.968932 0.0474,0.322978 0.0388,0.930176 h -3.21255 q 0.0258,0.706244 0.44356,0.990464 0.25407,0.176561 0.6115,0.176561 0.37896,0 0.61581,-0.215318 0.12919,-0.116272 0.22824,-0.322978 z m -1.21439,-1.438326 q -0.0302,-0.48662 -0.29714,-0.736389 -0.26269,-0.254076 -0.65457,-0.254076 -0.42633,0 -0.66318,0.266995 -0.23254,0.266995 -0.29283,0.72347 z m 6.11935,1.438326 q -0.0474,0.417718 -0.43495,0.848355 -0.60289,0.684712 -1.68809,0.684712 -0.89573,0 -1.58044,-0.577053 -0.68471,-0.577053 -0.68471,-1.877576 0,-1.218702 0.61581,-1.868964 0.62011,-0.650261 1.60627,-0.650261 0.58567,0 1.05506,0.219625 0.4694,0.219624 0.77515,0.693325 0.27561,0.417717 0.35743,0.968932 0.0474,0.322978 0.0387,0.930176 h -3.21255 q 0.0258,0.706244 0.44356,0.990464 0.25408,0.176561 0.6115,0.176561 0.37896,0 0.61582,-0.215318 0.12919,-0.116272 0.22823,-0.322978 z m -1.2144,-1.438326 q -0.0301,-0.48662 -0.29714,-0.736389 -0.26269,-0.254076 -0.65457,-0.254076 -0.42633,0 -0.66318,0.266995 -0.23254,0.266995 -0.29283,0.72347 z m 6.37342,-3.522609 v 6.338973 h -1.19286 v -0.650262 q -0.26269,0.417718 -0.59858,0.607198 -0.3359,0.18948 -0.83544,0.18948 -0.82252,0 -1.38665,-0.66318 -0.55983,-0.667487 -0.55983,-1.709628 0,-1.201477 0.55122,-1.890495 0.55552,-0.689019 1.48139,-0.689019 0.42633,0 0.75792,0.18948 0.33159,0.185174 0.53829,0.516764 v -2.239311 z m -3.30729,4.022147 q 0,0.650262 0.25839,1.037835 0.25407,0.391879 0.77514,0.391879 0.52107,0 0.79237,-0.387573 0.2713,-0.387573 0.2713,-1.003384 0,-0.861273 -0.43494,-1.231621 -0.26699,-0.223931 -0.62012,-0.223931 -0.53829,0 -0.79237,0.409105 -0.24977,0.404799 -0.24977,1.00769 z m 8.33713,-1.782836 q 0.59427,0.745002 0.59427,1.761304 0,1.033528 -0.59427,1.769917 -0.59428,0.732083 -1.80437,0.732083 -1.21009,0 -1.80437,-0.732083 -0.59428,-0.736389 -0.59428,-1.769917 0,-1.016302 0.59428,-1.761304 0.59428,-0.745001 1.80437,-0.745001 1.21009,0 1.80437,0.745001 z m -1.80868,0.292833 q -0.53829,0 -0.83113,0.383267 -0.28852,0.37896 -0.28852,1.085204 0,0.706245 0.28852,1.089511 0.29284,0.383267 0.83113,0.383267 0.5383,0 0.82682,-0.383267 0.28853,-0.383266 0.28853,-1.089511 0,-0.706244 -0.28853,-1.085204 -0.28852,-0.383267 -0.82682,-0.383267 z m 5.91695,0.404799 q -0.15503,-0.340203 -0.60719,-0.340203 -0.52538,0 -0.70625,0.340203 -0.0991,0.193786 -0.0991,0.577053 v 2.824977 h -1.24454 v -4.685328 h 1.19287 v 0.684713 q 0.22824,-0.366042 0.43063,-0.521071 0.35743,-0.275607 0.92587,-0.275607 0.5383,0 0.86989,0.23685 0.26699,0.219625 0.4048,0.564134 0.24116,-0.413411 0.59858,-0.607198 0.37896,-0.193786 0.84405,-0.193786 0.31006,0 0.61151,0.120578 0.30144,0.120578 0.5469,0.422024 0.1981,0.245463 0.267,0.602891 0.0431,0.236851 0.0431,0.693325 l -0.009,2.958475 h -1.25746 v -2.988619 q 0,-0.266995 -0.0861,-0.43925 -0.16364,-0.327283 -0.60289,-0.327283 -0.50815,0 -0.70194,0.422024 -0.099,0.223931 -0.099,0.538295 v 2.794833 h -1.23593 v -2.794833 q 0,-0.417717 -0.0861,-0.607197 z m 12.36789,-2.945555 v 1.123961 h -1.89911 v 5.223624 h -1.33498 v -5.223624 h -1.90772 v -1.123961 z m 4.04367,4.969547 q -0.0474,0.417718 -0.43494,0.848355 -0.60289,0.684712 -1.6881,0.684712 -0.89572,0 -1.58044,-0.577053 -0.68471,-0.577053 -0.68471,-1.877576 0,-1.218702 0.61581,-1.868964 0.62012,-0.650261 1.60628,-0.650261 0.58566,0 1.05506,0.219625 0.46939,0.219624 0.77514,0.693325 0.27561,0.417717 0.35743,0.968932 0.0474,0.322978 0.0388,0.930176 h -3.21255 q 0.0258,0.706244 0.44355,0.990464 0.25408,0.176561 0.61151,0.176561 0.37896,0 0.61581,-0.215318 0.12919,-0.116272 0.22824,-0.322978 z m -1.2144,-1.438326 q -0.0301,-0.48662 -0.29713,-0.736389 -0.26269,-0.254076 -0.65457,-0.254076 -0.42633,0 -0.66318,0.266995 -0.23255,0.266995 -0.29284,0.72347 z m 6.16242,-0.193787 h -1.25746 q -0.0345,-0.262688 -0.17656,-0.4737 -0.2067,-0.284221 -0.64164,-0.284221 -0.62012,0 -0.84836,0.615811 -0.12058,0.327284 -0.12058,0.869886 0,0.516764 0.12058,0.831129 0.21963,0.585666 0.82682,0.585666 0.43064,0 0.61151,-0.232544 0.18086,-0.232544 0.21962,-0.602891 h 1.25316 q -0.0431,0.559827 -0.4048,1.059366 -0.57706,0.805291 -1.70963,0.805291 -1.13258,0 -1.66657,-0.671794 -0.53398,-0.671793 -0.53398,-1.744078 0,-1.210089 0.58997,-1.881883 0.58997,-0.671793 1.6278,-0.671793 0.88281,0 1.44264,0.396186 0.56413,0.396186 0.66748,1.399569 z m 5.08582,0.254076 v 2.756075 H 155.125 v -2.855122 q 0,-0.37896 -0.12919,-0.611504 -0.16795,-0.327284 -0.63734,-0.327284 -0.48662,0 -0.7407,0.327284 -0.24977,0.322978 -0.24977,0.925869 v 2.540757 h -1.223 v -6.326054 h 1.223 v 2.243618 q 0.267,-0.409105 0.61581,-0.568441 0.35313,-0.163642 0.7407,-0.163642 0.43494,0 0.78806,0.150723 0.35743,0.150723 0.58567,0.460781 0.19379,0.262689 0.23685,0.542603 0.0431,0.275607 0.0431,0.904337 z m 3.35467,-1.029222 q -0.62443,0 -0.85697,0.529683 -0.12058,0.279914 -0.12058,0.714857 v 2.540757 h -1.22301 v -4.685328 h 1.18425 v 0.684713 q 0.23685,-0.361735 0.44787,-0.521071 0.37896,-0.28422 0.96032,-0.28422 0.72777,0 1.18855,0.383267 0.46509,0.37896 0.46509,1.261765 v 3.160874 h -1.25746 v -2.855122 q 0,-0.370347 -0.099,-0.56844 -0.18087,-0.361735 -0.68902,-0.361735 z m 4.43985,-0.908643 v 4.69394 h -1.24454 v -4.69394 z m 0,-1.692403 v 1.132575 h -1.24454 v -1.132575 z m 4.21594,8.246693 v -2.44171 q -0.1378,0.28422 -0.4737,0.508151 -0.33159,0.219625 -0.90864,0.219625 -0.8139,0 -1.38665,-0.650261 -0.57275,-0.650262 -0.57275,-1.735466 0,-1.171332 0.57275,-1.87327 0.57705,-0.701938 1.4211,-0.701938 0.58567,0 0.9474,0.288527 0.21101,0.163642 0.43064,0.538296 v -0.697632 h 1.18425 v 6.545678 z m -1.93356,-3.35466 q 0.24116,0.589973 0.89573,0.589973 0.63303,0 0.90003,-0.542603 0.17225,-0.357428 0.17225,-0.904337 0,-0.430636 -0.14641,-0.770839 -0.26269,-0.611505 -0.92157,-0.611505 -0.46508,0 -0.7493,0.357429 -0.27992,0.357428 -0.27992,1.085204 0,0.48662 0.12919,0.796678 z m 7.30361,0.831129 q -0.0172,0.02153 -0.0861,0.129191 -0.0689,0.107659 -0.16364,0.18948 -0.28853,0.258382 -0.55983,0.353122 -0.267,0.09474 -0.62873,0.09474 -1.04214,0 -1.40388,-0.749307 -0.2024,-0.413412 -0.2024,-1.218702 v -2.829283 h 1.25746 v 2.829283 q 0,0.400492 0.0947,0.602891 0.16795,0.357429 0.65888,0.357429 0.62873,0 0.86127,-0.508152 0.12058,-0.275607 0.12058,-0.727776 v -2.553675 h 1.24454 v 4.69394 h -1.19286 z m 6.39494,-0.714857 q -0.0474,0.417718 -0.43495,0.848355 -0.60289,0.684712 -1.68809,0.684712 -0.89573,0 -1.58044,-0.577053 -0.68471,-0.577053 -0.68471,-1.877576 0,-1.218702 0.61581,-1.868964 0.62012,-0.650261 1.60628,-0.650261 0.58566,0 1.05506,0.219625 0.46939,0.219624 0.77514,0.693325 0.27561,0.417717 0.35743,0.968932 0.0474,0.322978 0.0388,0.930176 h -3.21255 q 0.0258,0.706244 0.44355,0.990464 0.25408,0.176561 0.61151,0.176561 0.37896,0 0.61581,-0.215318 0.12919,-0.116272 0.22824,-0.322978 z m -1.2144,-1.438326 q -0.0301,-0.48662 -0.29714,-0.736389 -0.26269,-0.254076 -0.65456,-0.254076 -0.42634,0 -0.66319,0.266995 -0.23254,0.266995 -0.29283,0.72347 z m 5.33559,-1.662258 q 0.55122,0.353122 0.63304,1.214395 h -1.22732 q -0.0258,-0.23685 -0.13349,-0.374654 -0.2024,-0.249769 -0.68902,-0.249769 -0.40049,0 -0.57275,0.124885 -0.16795,0.124884 -0.16795,0.292833 0,0.211012 0.18087,0.305752 0.18087,0.09905 1.27899,0.340203 0.73208,0.172255 1.09812,0.52107 0.36174,0.353122 0.36174,0.882806 0,0.697631 -0.52107,1.141187 -0.51677,0.439249 -1.60197,0.439249 -1.10674,0 -1.63642,-0.465087 -0.52538,-0.469394 -0.52538,-1.192864 h 1.24454 q 0.0388,0.327284 0.16795,0.465088 0.22824,0.245462 0.84405,0.245462 0.36174,0 0.57275,-0.107659 0.21532,-0.107659 0.21532,-0.322977 0,-0.206706 -0.17226,-0.314365 -0.17225,-0.107659 -1.27899,-0.370348 -0.79668,-0.198092 -1.12396,-0.495232 -0.32729,-0.292833 -0.32729,-0.844048 0,-0.650261 0.50816,-1.115349 0.51245,-0.469394 1.43832,-0.469394 0.8785,0 1.43402,0.348816 z m 5.4691,6.257151 -0.30575,-0.417717 Q 189.141,58.639307 188.8051,57.89 q -0.59858,-1.339281 -0.59858,-2.635497 0,-1.179945 0.50384,-2.342664 0.3402,-0.792371 0.99477,-1.705321 h 0.92587 l -0.26269,0.482313 q -0.5426,0.994771 -0.75361,2.084282 -0.13781,0.714856 -0.13781,1.558904 0,1.317749 0.38327,2.424485 0.22393,0.654568 0.79237,1.679483 z m 6.10642,-4.55183 h -3.08336 v 1.632113 h 3.514 v 1.141188 h -4.81021 v -6.347585 h 4.65518 v 1.123961 h -3.35897 v 1.347893 h 3.08336 z m 5.96431,-2.450323 h -3.1824 v 1.459859 h 2.78622 v 1.10243 h -2.78622 v 2.661335 h -1.31775 v -6.338973 h 4.50015 z m 5.49924,-1.123961 v 1.123961 h -1.89911 v 5.223624 h -1.33497 v -5.223624 h -1.90773 v -1.123961 z m 1.40818,7.708397 -0.30575,0.417717 h -0.90864 q 0.56844,-1.024915 0.79237,-1.679483 0.38326,-1.106736 0.38326,-2.424485 0,-0.844048 -0.1378,-1.558904 -0.21101,-1.089511 -0.75361,-2.084282 l -0.26269,-0.482313 h 0.92587 q 0.65457,0.91295 0.99477,1.705321 0.50384,1.162719 0.50384,2.342664 0,1.296216 -0.59858,2.635497 -0.3359,0.749307 -0.63304,1.128268 z"
         id="path15" />
      <path
         style="font-weight:bold;-inkscape-font-specification:'Helvetica Bold';text-align:center;baseline-shift:super;text-anchor:middle"
         d="m 213.30402,48.488339 0.2024,0.641648 -0.91725,0.284221 0.59858,0.856967 -0.55121,0.391879 -0.59859,-0.809597 -0.61581,0.809597 -0.55121,-0.391879 0.60289,-0.856967 -0.91726,-0.284221 0.2024,-0.641648 0.90003,0.292833 v -1.037835 h 0.745 v 1.037835 z"
         id="path16" />
      <path
         style="font-weight:bold;-inkscape-font-specification:'Helvetica Bold';text-align:center;text-anchor:middle"
         d="m 214.33755,56.374158 h 1.30483 v 1.283298 h -1.30483 z"
         id="path17" />
    </g>
    <path
       id="rect5"
       style="fill:#9fd7f5;stroke-width:0"
       d="m 79.172921,70.908333 h 76.339989 c 4.432,0 8,3.068108 8,6.879166 0,3.811059 -3.568,6.879167 -8,6.879167 H 79.172921 c -4.432,0 -8,-3.068108 -8,-6.879167 0,-3.811058 3.568,-6.879166 8,-6.879166 z" />
    <path
       d="m 78.74901,80.315512 q -0.399287,0.245463 -0.981853,0.245463 -0.958942,0 -1.570964,-0.664387 -0.638204,-0.667659 -0.638204,-1.826245 0,-1.171678 0.64475,-1.878611 0.64475,-0.706934 1.705151,-0.706934 0.919668,0 1.476051,0.468016 0.559656,0.464744 0.641477,1.161859 h -0.991671 q -0.114549,-0.494199 -0.559656,-0.69057 -0.248736,-0.108003 -0.55311,-0.108003 -0.582566,0 -0.958943,0.441833 -0.373104,0.438561 -0.373104,1.322228 0,0.890213 0.405833,1.260044 0.405832,0.369831 0.922941,0.369831 0.507291,0 0.831302,-0.291283 0.324011,-0.294555 0.399287,-0.769117 h -1.116039 v -0.805119 h 2.009524 v 2.588817 h -0.667659 l -0.101458,-0.602203 q -0.291283,0.343649 -0.523655,0.484381 z m 4.388881,0.252009 q -1.034218,0 -1.580783,-0.562929 -0.733116,-0.69057 -0.733116,-1.989888 0,-1.325501 0.733116,-1.989887 0.546565,-0.562929 1.580783,-0.562929 1.034218,0 1.580782,0.562929 0.729844,0.664386 0.729844,1.989887 0,1.299318 -0.729844,1.989888 -0.546564,0.562929 -1.580782,0.562929 z m 0.952397,-1.296045 q 0.350194,-0.441834 0.350194,-1.256772 0,-0.811664 -0.353467,-1.253498 -0.350194,-0.445106 -0.949124,-0.445106 -0.59893,0 -0.95567,0.441833 -0.35674,0.441834 -0.35674,1.256771 0,0.814938 0.35674,1.256772 0.35674,0.441833 0.95567,0.441833 0.59893,0 0.952397,-0.441833 z m 7.494807,-3.66231 v 0.854211 h -1.443323 v 3.969957 h -1.014581 v -3.969957 h -1.449869 v -0.854211 z m 2.605182,4.958355 q -1.034217,0 -1.580782,-0.562929 -0.733117,-0.69057 -0.733117,-1.989888 0,-1.325501 0.733117,-1.989887 0.546565,-0.562929 1.580782,-0.562929 1.034218,0 1.580783,0.562929 0.729844,0.664386 0.729844,1.989887 0,1.299318 -0.729844,1.989888 -0.546565,0.562929 -1.580783,0.562929 z m 0.952397,-1.296045 q 0.350194,-0.441834 0.350194,-1.256772 0,-0.811664 -0.353466,-1.253498 -0.350194,-0.445106 -0.949125,-0.445106 -0.59893,0 -0.955669,0.441833 -0.35674,0.441834 -0.35674,1.256771 0,0.814938 0.35674,1.256772 0.356739,0.441833 0.955669,0.441833 0.598931,0 0.952397,-0.441833 z m 4.912526,1.161858 h -0.939304 v -4.824168 h 1.466234 l 0.87712,3.793223 0.87057,-3.793223 h 1.44987 v 4.824168 h -0.9393 v -3.263023 q 0,-0.140732 0.003,-0.392741 0.003,-0.255281 0.003,-0.392741 l -0.91312,4.048505 h -0.97858 l -0.90658,-4.048505 q 0,0.13746 0.003,0.392741 0.003,0.252009 0.003,0.392741 z m 8.55521,-4.824168 -1.61352,3.011014 v 1.813154 h -1.00803 V 78.62018 l -1.66915,-3.011014 h 1.18804 l 1.00149,2.101164 0.95894,-2.101164 z m 5.72419,4.464156 q -0.54002,0.494199 -1.38114,0.494199 -1.04076,0 -1.63642,-0.66766 -0.59565,-0.670932 -0.59565,-1.839337 0,-1.263317 0.67747,-1.947341 0.58912,-0.595657 1.49897,-0.595657 1.21749,0 1.78042,0.798574 0.31092,0.448379 0.33383,0.900031 h -1.00803 q -0.0982,-0.346921 -0.25201,-0.523655 -0.27492,-0.314192 -0.81494,-0.314192 -0.54984,0 -0.8673,0.445106 -0.31747,0.441834 -0.31747,1.253498 0,0.811665 0.33383,1.217497 0.3371,0.40256 0.85421,0.40256 0.5302,0 0.80839,-0.346921 0.15383,-0.186552 0.25529,-0.559656 h 0.99821 q -0.13091,0.788755 -0.66766,1.282954 z m 4.26124,-0.631659 h -1.77715 l -0.33383,0.991671 h -1.05385 l 1.72151,-4.824168 h 1.13895 l 1.70842,4.824168 h -1.09313 z m -0.28146,-0.831301 -0.6022,-1.898249 -0.62184,1.898249 z m 2.29754,-3.001196 h 1.00803 v 3.956865 h 2.38918 v 0.867303 h -3.39721 z m 7.45225,2.716458 h -2.34335 v 1.240407 h 2.67064 v 0.867303 h -3.65577 v -4.824168 h 3.53795 v 0.854211 h -2.55282 v 1.0244 h 2.34335 z m 5.014,2.10771 h -1.00804 l -1.97025,-3.426665 v 3.426665 h -0.9393 v -4.824168 h 1.05713 l 1.92115,3.367754 v -3.367754 h 0.93931 z m 3.01756,0 h -2.07825 v -4.824168 h 2.07825 q 0.44838,0.0065 0.74621,0.104731 0.50729,0.166915 0.82148,0.612021 0.25201,0.360013 0.34365,0.778936 0.0916,0.418924 0.0916,0.798574 0,0.962215 -0.3862,1.629875 -0.52365,0.900031 -1.61678,0.900031 z m 0.74948,-3.59358 q -0.23237,-0.392741 -0.91967,-0.392741 h -0.92948 v 3.148474 h 0.92948 q 0.71348,0 0.99495,-0.703661 0.15382,-0.386195 0.15382,-0.919669 0,-0.736389 -0.2291,-1.132403 z m 4.83726,2.601909 h -1.77715 l -0.33383,0.991671 h -1.05386 l 1.72152,-4.824168 h 1.13894 l 1.70843,4.824168 h -1.09313 z m -0.28147,-0.831301 -0.6022,-1.898249 -0.62184,1.898249 z m 4.34634,-0.06873 h -1.04077 v 1.891702 h -0.98512 v -4.824168 h 2.36626 q 0.50729,0.0098 0.77894,0.124368 0.27492,0.114549 0.46474,0.337102 0.1571,0.18328 0.24874,0.405833 0.0916,0.222553 0.0916,0.50729 0,0.343649 -0.17346,0.677478 -0.17346,0.330557 -0.57275,0.468017 0.33383,0.134186 0.47129,0.382922 0.14073,0.245463 0.14073,0.752754 v 0.324011 q 0,0.330557 0.0262,0.44838 0.0393,0.186551 0.18328,0.274918 v 0.121095 h -1.10949 q -0.0458,-0.160369 -0.0655,-0.258554 -0.0393,-0.202916 -0.0426,-0.415651 l -0.007,-0.448379 q -0.007,-0.461471 -0.17019,-0.615295 -0.16037,-0.153823 -0.60547,-0.153823 z m 0.61202,-0.877122 q 0.3011,-0.137459 0.3011,-0.543291 0,-0.438561 -0.29128,-0.589112 -0.16365,-0.08509 -0.49093,-0.08509 h -1.17168 v 1.296045 h 1.14222 q 0.34038,0 0.51057,-0.07855 z"
       id="text5"
       style="font-weight:bold;font-size:6.70278px;font-family:Helvetica;-inkscape-font-specification:'Helvetica Bold';text-align:center;text-anchor:middle;fill:#004aad;stroke-width:0"
       aria-label="GO TO MY CALENDAR" />
    <path
       id="path5"
       style="fill:#004aad;stroke-width:0"
       d="m 161.6604,77.787506 a 5.0270834,5.0270834 0 0 1 -5.02708,5.027084 5.0270834,5.0270834 0 0 1 -5.02708,-5.027084 5.0270834,5.0270834 0 0 1 5.02708,-5.027083 5.0270834,5.0270834 0 0 1 5.02708,5.027083 z" />
    <circle
       id="path6"
       style="fill:#000000;stroke:none;stroke-width:0.264583"
       cx="86.254166"
       cy="68.527084"
       r="0" />
    <circle
       id="path7"
       style="fill:#004aad;stroke:none;stroke-width:0.264583;fill-opacity:1"
       cx="178.85834"
       cy="66.145836"
       r="0" />
    <path
       style="fill:none;fill-opacity:1;stroke:#ffffff;stroke-width:0.6;stroke-dasharray:none;stroke-opacity:1"
       d="m 154.96806,74.966709 3.69258,2.823733 -3.69258,2.968541 v 0"
       id="path11" />
    <path
       d="m 22.652887,3.674167 h 0.691949 v 5.0570828 h -0.691949 z m 5.101836,1.2634101 q 0.623098,0 1.012105,0.302943 0.392449,0.302943 0.471627,1.0430879 H 28.636011 Q 28.580931,5.9427971 28.384706,5.7190323 28.188482,5.4918251 27.754723,5.4918251 q -0.592116,0 -0.846864,0.5783457 -0.165241,0.3752363 -0.165241,0.9260417 0,0.5542481 0.234092,0.9329268 0.234092,0.3786788 0.736702,0.3786788 0.385564,0 0.609329,-0.2340923 0.227207,-0.2375349 0.31327,-0.6471965 h 0.602444 q -0.103276,0.7332598 -0.51638,1.0740707 -0.413104,0.3373684 -1.056858,0.3373684 -0.722932,0 -1.153249,-0.5267078 -0.430317,-0.5301502 -0.430317,-1.3219331 0,-0.9707947 0.471627,-1.5112726 0.471627,-0.5404778 1.201445,-0.5404778 z m -0.09639,0.017213 z m 2.674849,2.7953378 q 0,0.2685177 0.196224,0.4234318 0.196225,0.154914 0.464742,0.154914 0.327041,0 0.633427,-0.1514715 0.51638,-0.251305 0.51638,-0.8227657 V 6.8550686 Q 32.03035,6.9273619 31.851338,6.9755573 31.672327,7.0237528 31.5002,7.044408 l -0.375236,0.048196 q -0.337369,0.044753 -0.506053,0.1411439 -0.28573,0.1617991 -0.28573,0.5163801 z m 1.500945,-1.2530824 q 0.213437,-0.02754 0.28573,-0.1790118 0.04131,-0.082621 0.04131,-0.2375349 0,-0.3167131 -0.227207,-0.457857 -0.223765,-0.1445865 -0.643754,-0.1445865 -0.485397,0 -0.688507,0.2616326 -0.113603,0.1445865 -0.148029,0.4303168 h -0.578345 q 0.01721,-0.6816218 0.440644,-0.9466969 0.426874,-0.2685177 0.988007,-0.2685177 0.650639,0 1.056858,0.2478625 0.402777,0.2478625 0.402777,0.7711277 v 2.1240436 q 0,0.096391 0.03787,0.154914 0.04131,0.058523 0.168684,0.058523 0.04131,0 0.09295,-0.00344 0.05164,-0.00689 0.110162,-0.017213 v 0.4578571 q -0.144587,0.04131 -0.220323,0.051638 -0.07573,0.010328 -0.206552,0.010328 -0.320155,0 -0.464742,-0.2272073 -0.07574,-0.1204887 -0.106718,-0.3408109 -0.18934,0.2478625 -0.543921,0.4303168 -0.354581,0.1824543 -0.781455,0.1824543 -0.512938,0 -0.839978,-0.309828 -0.323599,-0.3132707 -0.323599,-0.7814553 0,-0.5129376 0.320156,-0.7952254 0.320156,-0.2822878 0.839978,-0.347696 z M 31.321188,4.9547897 Z m 2.45797,0.089506 h 0.588673 v 0.5232652 q 0.261633,-0.3235982 0.554248,-0.4647421 0.292616,-0.1411439 0.650639,-0.1411439 0.784898,0 1.060301,0.547363 0.151471,0.2995004 0.151471,0.857191 v 2.365021 H 36.154506 V 6.4075392 q 0,-0.3373684 -0.09983,-0.5439204 -0.165242,-0.3442534 -0.599001,-0.3442534 -0.220322,0 -0.361466,0.044753 -0.254748,0.075736 -0.44753,0.302943 -0.154914,0.1824543 -0.203109,0.3786788 -0.04475,0.1927819 -0.04475,0.554248 v 1.9312617 h -0.619656 z m 1.456192,-0.089506 z m 4.423656,-1.2978354 h 0.619656 v 1.8865088 q 0.220323,-0.2788453 0.395892,-0.3924489 0.2995,-0.1962245 0.74703,-0.1962245 0.80211,0 1.087841,0.5611331 0.154914,0.3063856 0.154914,0.850306 v 2.365021 H 42.02747 V 6.4075392 q 0,-0.406219 -0.103276,-0.5955584 -0.168684,-0.302943 -0.633426,-0.302943 -0.385564,0 -0.698835,0.2650751 -0.313271,0.2650751 -0.313271,1.0017775 v 1.9553594 h -0.619656 z m 5.456416,1.3047205 q 0.392449,0 0.7608,0.1858969 0.368351,0.1824543 0.561133,0.4750697 0.185897,0.2788453 0.247862,0.650639 0.05508,0.2547475 0.05508,0.812438 h -2.702389 q 0.01721,0.5611331 0.265075,0.901944 0.247862,0.3373684 0.767685,0.3373684 0.485397,0 0.77457,-0.3201557 0.165242,-0.1858969 0.234092,-0.4303168 h 0.609329 q -0.0241,0.2031095 -0.161799,0.4544145 -0.134259,0.2478625 -0.302943,0.4062191 -0.282288,0.2754027 -0.698835,0.3717937 -0.223764,0.05508 -0.506052,0.05508 -0.688507,0 -1.167019,-0.4991675 -0.478512,-0.50261 -0.478512,-1.4045539 0,-0.8881739 0.481954,-1.4424219 0.481955,-0.554248 1.259968,-0.554248 z M 46.103429,6.593436 Q 46.065561,6.1906595 45.92786,5.9496821 45.673112,5.5021527 45.077554,5.5021527 q -0.426874,0 -0.716047,0.3098281 -0.289173,0.3063855 -0.306386,0.7814552 z M 45.056899,4.9547897 Z M 47.518311,3.674167 h 0.619657 v 5.0570828 h -0.619657 z m 3.105166,4.6405362 q 0.433759,0 0.71949,-0.3614661 0.289173,-0.3649087 0.289173,-1.0878409 0,-0.4406443 -0.127374,-0.7573575 -0.240978,-0.6093285 -0.881289,-0.6093285 -0.643754,0 -0.881289,0.6437539 -0.127373,0.3442534 -0.127373,0.8744037 0,0.4268742 0.127373,0.7263747 0.240978,0.5714607 0.881289,0.5714607 z M 49.019256,5.0615083 H 49.6217 v 0.4888399 q 0.185896,-0.251305 0.406219,-0.3890064 0.31327,-0.2065521 0.736702,-0.2065521 0.626541,0 1.063743,0.4819548 0.437202,0.4785123 0.437202,1.3701287 0,1.204887 -0.629984,1.7212671 -0.399334,0.3270407 -0.929484,0.3270407 -0.416547,0 -0.698835,-0.1824543 -0.165241,-0.103276 -0.368351,-0.354581 v 1.8830663 h -0.619656 z m 8.2311,-0.017213 h 0.685064 q -0.130816,0.3545811 -0.581788,1.6179911 -0.337369,0.9501395 -0.564576,1.5491404 -0.537035,1.4114391 -0.757358,1.7212672 -0.220322,0.3098277 -0.757357,0.3098277 -0.130816,0 -0.20311,-0.01033 -0.06885,-0.01033 -0.172126,-0.03787 V 9.6297512 q 0.161799,0.044753 0.234092,0.055081 0.07229,0.010328 0.127374,0.010328 0.172126,0 0.251305,-0.058523 0.08262,-0.05508 0.137701,-0.1377014 0.01721,-0.02754 0.123931,-0.2822878 0.106719,-0.2547475 0.154914,-0.3786787 L 54.565179,5.0442956 h 0.702277 l 0.988007,3.0018899 z m -0.998335,-0.089506 z m 3.68351,3.3771261 q 0.616214,0 0.843421,-0.4647421 0.23065,-0.4681846 0.23065,-1.0396453 0,-0.5163802 -0.165242,-0.8399784 -0.261632,-0.5094951 -0.901944,-0.5094951 -0.568018,0 -0.826208,0.4337594 -0.25819,0.4337593 -0.25819,1.0465304 0,0.5886733 0.25819,0.9811222 0.25819,0.3924489 0.819323,0.3924489 z m 0.0241,-3.3943387 q 0.712605,0 1.204887,0.4750697 0.492282,0.4750697 0.492282,1.3976689 0,0.8916164 -0.433759,1.4734047 -0.433759,0.5817882 -1.346031,0.5817882 -0.7608,0 -1.208329,-0.5129376 -0.44753,-0.5163801 -0.44753,-1.3838987 0,-0.9294843 0.471627,-1.4802898 0.471628,-0.5508054 1.266853,-0.5508054 z m -0.02065,0.017213 z m 3.074184,0.089506 v 2.4476419 q 0,0.2822878 0.08951,0.4612996 0.165242,0.3304833 0.616214,0.3304833 0.647197,0 0.881289,-0.5783458 0.127374,-0.3098281 0.127374,-0.850306 v -1.810773 h 0.619656 v 3.6869542 h -0.585231 l 0.0069,-0.5439204 q -0.120489,0.2099946 -0.2995,0.354581 -0.354581,0.2891729 -0.860634,0.2891729 -0.78834,0 -1.074071,-0.5267077 -0.154914,-0.2822878 -0.154914,-0.753915 v -2.506165 z m 0.850306,-0.089506 z m 4.427099,0.089506 h 0.588673 v 0.6368689 q 0.07229,-0.1858969 0.354581,-0.450972 0.282288,-0.2685177 0.650639,-0.2685177 0.01721,0 0.05852,0.00344 0.04131,0.00344 0.141144,0.01377 V 5.632969 q -0.05508,-0.010328 -0.103276,-0.01377 -0.04475,-0.00344 -0.09983,-0.00344 -0.468184,0 -0.719489,0.302943 -0.251305,0.2995005 -0.251305,0.6919494 v 2.1206011 h -0.619656 z m 3.865966,-0.082621 q 0.392449,0 0.7608,0.1858969 0.368351,0.1824543 0.561133,0.4750697 0.185897,0.2788453 0.247863,0.650639 0.05508,0.2547475 0.05508,0.812438 h -2.702389 q 0.01721,0.5611331 0.265075,0.901944 0.247862,0.3373684 0.767685,0.3373684 0.485397,0 0.77457,-0.3201557 0.165242,-0.1858969 0.234093,-0.4303168 h 0.609328 q -0.0241,0.2031095 -0.161799,0.4544145 -0.134259,0.2478625 -0.302943,0.4062191 -0.282288,0.2754027 -0.698834,0.3717937 -0.223765,0.05508 -0.506053,0.05508 -0.688507,0 -1.167019,-0.4991675 -0.478512,-0.50261 -0.478512,-1.4045539 0,-0.8881739 0.481954,-1.4424219 0.481955,-0.554248 1.259968,-0.554248 z M 73.144536,6.593436 Q 73.106668,6.1906595 72.968967,5.9496821 72.71422,5.5021527 72.118661,5.5021527 q -0.426874,0 -0.716047,0.3098281 -0.289173,0.3063855 -0.306386,0.7814552 z M 72.098006,4.9547897 Z M 74.559419,3.674167 h 0.619656 v 5.0570828 h -0.619656 z m 3.08451,1.2875078 q 0.392449,0 0.7608,0.1858969 0.368351,0.1824543 0.561133,0.4750697 0.185897,0.2788453 0.247863,0.650639 0.05508,0.2547475 0.05508,0.812438 h -2.702389 q 0.01721,0.5611331 0.265075,0.901944 0.247862,0.3373684 0.767685,0.3373684 0.485397,0 0.77457,-0.3201557 0.165242,-0.1858969 0.234093,-0.4303168 h 0.609328 q -0.0241,0.2031095 -0.161799,0.4544145 -0.134259,0.2478625 -0.302943,0.4062191 -0.282288,0.2754027 -0.698834,0.3717937 -0.223765,0.05508 -0.506053,0.05508 -0.688507,0 -1.167019,-0.4991675 -0.478512,-0.50261 -0.478512,-1.4045539 0,-0.8881739 0.481955,-1.4424219 0.481954,-0.554248 1.259967,-0.554248 z M 78.631936,6.593436 Q 78.594069,6.1906595 78.456367,5.9496821 78.20162,5.5021527 77.606061,5.5021527 q -0.426874,0 -0.716047,0.3098281 -0.289173,0.3063855 -0.306385,0.7814552 z m -1.04653,-1.6386463 z m 2.91927,2.7953378 q 0,0.2685177 0.196224,0.4234318 0.196225,0.154914 0.464742,0.154914 0.327041,0 0.633427,-0.1514715 0.51638,-0.251305 0.51638,-0.8227657 V 6.8550686 q -0.113604,0.072293 -0.292616,0.1204887 -0.179011,0.048195 -0.351138,0.068851 l -0.375236,0.048196 q -0.337369,0.044753 -0.506053,0.1411439 -0.28573,0.1617991 -0.28573,0.5163801 z m 1.500945,-1.2530824 q 0.213437,-0.02754 0.28573,-0.1790118 0.04131,-0.082621 0.04131,-0.2375349 0,-0.3167131 -0.227207,-0.457857 -0.223765,-0.1445865 -0.643754,-0.1445865 -0.485397,0 -0.688507,0.2616326 -0.113603,0.1445865 -0.148029,0.4303168 h -0.578345 q 0.01721,-0.6816218 0.440644,-0.9466969 0.426874,-0.2685177 0.988007,-0.2685177 0.650639,0 1.056858,0.2478625 0.402777,0.2478625 0.402777,0.7711277 v 2.1240436 q 0,0.096391 0.03787,0.154914 0.04131,0.058523 0.168684,0.058523 0.04131,0 0.09295,-0.00344 0.05164,-0.00689 0.110161,-0.017213 v 0.4578571 q -0.144586,0.04131 -0.220322,0.051638 -0.07573,0.010328 -0.206552,0.010328 -0.320155,0 -0.464742,-0.2272073 -0.07574,-0.1204887 -0.106718,-0.3408109 -0.18934,0.2478625 -0.543921,0.4303168 -0.354581,0.1824543 -0.781455,0.1824543 -0.512938,0 -0.839978,-0.309828 -0.323599,-0.3132707 -0.323599,-0.7814553 0,-0.5129376 0.320156,-0.7952254 0.320156,-0.2822878 0.839978,-0.347696 z M 81.492683,4.9547897 Z m 2.826321,2.6197686 q 0.02754,0.3098281 0.154914,0.4750697 0.234093,0.2995005 0.812439,0.2995005 0.344253,0 0.605886,-0.148029 0.261632,-0.1514715 0.261632,-0.4647421 0,-0.2375349 -0.209994,-0.3614661 Q 85.809622,7.2991556 85.41373,7.1993221 L 84.921448,7.0753908 Q 84.449821,6.9583447 84.226056,6.8137582 83.826722,6.5624532 83.826722,6.1183663 q 0,-0.5232652 0.375236,-0.8468634 0.378679,-0.3235982 1.015548,-0.3235982 0.833093,0 1.201444,0.4888398 0.23065,0.3098281 0.223765,0.6678517 h -0.585231 q -0.01721,-0.2099946 -0.148029,-0.3821213 -0.213437,-0.24442 -0.740145,-0.24442 -0.351138,0 -0.533592,0.1342589 -0.179012,0.1342588 -0.179012,0.354581 0,0.2409774 0.237535,0.3855638 0.137701,0.086063 0.406219,0.1514716 l 0.409661,0.099833 q 0.667852,0.1617992 0.895059,0.3132707 0.361466,0.2375348 0.361466,0.7470299 0,0.4922824 -0.375236,0.850306 -0.371794,0.3580235 -1.136036,0.3580235 -0.822766,0 -1.167019,-0.3717937 -0.340811,-0.3752362 -0.364909,-0.9260417 z m 0.915715,-2.6197686 z m 3.776459,0.00689 q 0.392449,0 0.7608,0.1858969 0.368351,0.1824543 0.561133,0.4750697 0.185897,0.2788453 0.247862,0.650639 0.05508,0.2547475 0.05508,0.812438 h -2.70239 q 0.01721,0.5611331 0.265076,0.901944 0.247862,0.3373684 0.767685,0.3373684 0.485397,0 0.77457,-0.3201557 0.165242,-0.1858969 0.234092,-0.4303168 h 0.609329 q -0.0241,0.2031095 -0.161799,0.4544145 -0.134259,0.2478625 -0.302943,0.4062191 -0.282288,0.2754027 -0.698835,0.3717937 -0.223765,0.05508 -0.506052,0.05508 -0.688507,0 -1.167019,-0.4991675 -0.478513,-0.50261 -0.478513,-1.4045539 0,-0.8881739 0.481955,-1.4424219 0.481955,-0.554248 1.259968,-0.554248 z M 89.999185,6.593436 Q 89.961317,6.1906595 89.823616,5.9496821 89.568868,5.5021527 88.97331,5.5021527 q -0.426875,0 -0.716047,0.3098281 -0.289173,0.3063855 -0.306386,0.7814552 z m -1.04653,-1.6386463 z m 4.526928,-0.9398118 h 0.626541 v 1.0293177 h 0.588674 v 0.5060526 h -0.588674 v 2.4063314 q 0,0.1927819 0.130817,0.2581901 0.07229,0.037868 0.240977,0.037868 0.04475,0 0.09639,0 0.05164,-0.00344 0.120489,-0.010328 v 0.4888399 q -0.106719,0.030983 -0.223765,0.044753 -0.113604,0.01377 -0.247862,0.01377 -0.43376,0 -0.588674,-0.2203222 Q 93.479583,8.345686 93.479583,7.9911049 V 5.5503482 H 92.980416 V 5.0442956 h 0.499167 z m 1.834878,-0.3580236 h 0.619656 v 1.8865088 q 0.220322,-0.2788453 0.395892,-0.3924489 0.2995,-0.1962245 0.747029,-0.1962245 0.802111,0 1.087841,0.5611331 0.154914,0.3063856 0.154914,0.850306 v 2.365021 H 97.682924 V 6.4075392 q 0,-0.406219 -0.103276,-0.5955584 -0.168684,-0.302943 -0.633426,-0.302943 -0.385564,0 -0.698834,0.2650751 -0.313271,0.2650751 -0.313271,1.0017775 v 1.9553594 h -0.619656 z m 5.456409,1.3047205 q 0.39245,0 0.7608,0.1858969 0.36836,0.1824543 0.56114,0.4750697 0.18589,0.2788453 0.24786,0.650639 0.0551,0.2547475 0.0551,0.812438 h -2.702389 q 0.01721,0.5611331 0.265075,0.901944 0.247864,0.3373684 0.767684,0.3373684 0.4854,0 0.77457,-0.3201557 0.16524,-0.1858969 0.23409,-0.4303168 h 0.60933 q -0.0241,0.2031095 -0.1618,0.4544145 -0.13426,0.2478625 -0.30294,0.4062191 -0.28229,0.2754027 -0.69883,0.3717937 -0.22377,0.05508 -0.50606,0.05508 -0.688503,0 -1.167015,-0.4991675 -0.478513,-0.50261 -0.478513,-1.4045539 0,-0.8881739 0.481955,-1.4424219 0.481955,-0.554248 1.259963,-0.554248 z m 0.98801,1.6317612 q -0.0379,-0.4027765 -0.17557,-0.6437539 -0.25474,-0.4475294 -0.8503,-0.4475294 -0.42688,0 -0.71605,0.3098281 -0.289173,0.3063855 -0.306386,0.7814552 z m -1.04653,-1.6386463 z m 4.3548,-1.2978354 h 0.60245 v 1.8348708 q 0.20311,-0.2650752 0.48539,-0.4027765 0.28229,-0.1411439 0.61278,-0.1411439 0.6885,0 1.11538,0.4750697 0.43031,0.4716272 0.43031,1.3942264 0,0.8744037 -0.42343,1.4527494 -0.42343,0.5783458 -1.1739,0.5783458 -0.41999,0 -0.70916,-0.2031095 -0.17213,-0.1204887 -0.36836,-0.3855639 v 0.4716272 h -0.57146 z m 1.61111,4.6439787 q 0.50261,0 0.75047,-0.3993339 0.25131,-0.399334 0.25131,-1.0534155 0,-0.5817883 -0.25131,-0.9639096 -0.24786,-0.3821213 -0.73326,-0.3821213 -0.42343,0 -0.74359,0.3132706 -0.31671,0.3132706 -0.31671,1.0327603 0,0.5198226 0.13082,0.8434209 0.24442,0.6093285 0.91227,0.6093285 z m 2.37535,-4.626766 h 0.61966 v 5.0570828 h -0.61966 z m 3.01222,4.6577488 q 0.61621,0 0.84342,-0.4647421 0.23065,-0.4681846 0.23065,-1.0396453 0,-0.5163802 -0.16524,-0.8399784 -0.26163,-0.5094951 -0.90195,-0.5094951 -0.56801,0 -0.8262,0.4337594 -0.25819,0.4337593 -0.25819,1.0465304 0,0.5886733 0.25819,0.9811222 0.25819,0.3924489 0.81932,0.3924489 z m 0.0241,-3.3943387 q 0.7126,0 1.20488,0.4750697 0.49229,0.4750697 0.49229,1.3976689 0,0.8916164 -0.43376,1.4734047 -0.43376,0.5817882 -1.34603,0.5817882 -0.7608,0 -1.20833,-0.5129376 -0.44753,-0.5163801 -0.44753,-1.3838987 0,-0.9294843 0.47163,-1.4802898 0.47162,-0.5508054 1.26685,-0.5508054 z m -0.0207,0.017213 z m 3.87629,-0.017213 q 0.6231,0 1.01211,0.302943 0.39245,0.302943 0.47163,1.0430879 h -0.60245 q -0.0551,-0.3408109 -0.2513,-0.5645757 -0.19623,-0.2272072 -0.62999,-0.2272072 -0.59211,0 -0.84686,0.5783457 -0.16524,0.3752363 -0.16524,0.9260417 0,0.5542481 0.23409,0.9329268 0.23409,0.3786788 0.7367,0.3786788 0.38557,0 0.60933,-0.2340923 0.22721,-0.2375349 0.31327,-0.6471965 h 0.60245 q -0.10328,0.7332598 -0.51638,1.0740707 -0.41311,0.3373684 -1.05686,0.3373684 -0.72294,0 -1.15325,-0.5267078 -0.43032,-0.5301502 -0.43032,-1.3219331 0,-0.9707947 0.47163,-1.5112726 0.47163,-0.5404778 1.20144,-0.5404778 z m -0.0964,0.017213 z m 2.18601,-1.2806227 h 0.59556 v 2.9364817 l 1.59045,-1.5663531 h 0.79178 l -1.41144,1.3804563 1.49062,2.3064979 h -0.79178 l -1.14981,-1.8589685 -0.51982,0.4750697 v 1.3838988 h -0.59556 z m 3.90728,3.9003913 q 0.0275,0.3098281 0.15491,0.4750697 0.23409,0.2995005 0.81244,0.2995005 0.34425,0 0.60588,-0.148029 0.26164,-0.1514715 0.26164,-0.4647421 0,-0.2375349 -0.21,-0.3614661 -0.13426,-0.075736 -0.53015,-0.1755692 L 122.5449,7.0753908 q -0.47163,-0.1170461 -0.69539,-0.2616326 -0.39934,-0.251305 -0.39934,-0.6953919 0,-0.5232652 0.37524,-0.8468634 0.37868,-0.3235982 1.01555,-0.3235982 0.83309,0 1.20144,0.4888398 0.23065,0.3098281 0.22377,0.6678517 h -0.58523 q -0.0172,-0.2099946 -0.14803,-0.3821213 -0.21344,-0.24442 -0.74015,-0.24442 -0.35114,0 -0.53359,0.1342589 -0.17901,0.1342588 -0.17901,0.354581 0,0.2409774 0.23753,0.3855638 0.1377,0.086063 0.40622,0.1514716 l 0.40966,0.099833 q 0.66785,0.1617992 0.89506,0.3132707 0.36147,0.2375348 0.36147,0.7470299 0,0.4922824 -0.37524,0.850306 -0.37179,0.3580235 -1.13604,0.3580235 -0.82276,0 -1.16701,-0.3717937 -0.34082,-0.3752362 -0.36491,-0.9260417 z m 0.91571,-2.6197686 z m 4.67497,2.7953378 q 0,0.2685177 0.19622,0.4234318 0.19623,0.154914 0.46474,0.154914 0.32704,0 0.63343,-0.1514715 0.51638,-0.251305 0.51638,-0.8227657 V 6.8550686 q -0.1136,0.072293 -0.29262,0.1204887 -0.17901,0.048195 -0.35113,0.068851 l -0.37524,0.048196 q -0.33737,0.044753 -0.50605,0.1411439 -0.28573,0.1617991 -0.28573,0.5163801 z m 1.50094,-1.2530824 q 0.21344,-0.02754 0.28573,-0.1790118 0.0413,-0.082621 0.0413,-0.2375349 0,-0.3167131 -0.2272,-0.457857 -0.22377,-0.1445865 -0.64376,-0.1445865 -0.4854,0 -0.68851,0.2616326 -0.1136,0.1445865 -0.14802,0.4303168 h -0.57835 q 0.0172,-0.6816218 0.44064,-0.9466969 0.42688,-0.2685177 0.98801,-0.2685177 0.65064,0 1.05686,0.2478625 0.40278,0.2478625 0.40278,0.7711277 v 2.1240436 q 0,0.096391 0.0379,0.154914 0.0413,0.058523 0.16869,0.058523 0.0413,0 0.093,-0.00344 0.0516,-0.00689 0.11016,-0.017213 v 0.4578571 q -0.14459,0.04131 -0.22032,0.051638 -0.0757,0.010328 -0.20656,0.010328 -0.32015,0 -0.46474,-0.2272073 -0.0757,-0.1204887 -0.10672,-0.3408109 -0.18934,0.2478625 -0.54392,0.4303168 -0.35458,0.1824543 -0.78145,0.1824543 -0.51294,0 -0.83998,-0.309828 -0.3236,-0.3132707 -0.3236,-0.7814553 0,-0.5129376 0.32016,-0.7952254 0.32015,-0.2822878 0.83997,-0.347696 z m -0.51294,-1.5422554 z m 2.45797,0.089506 h 0.58867 v 0.5232652 q 0.26164,-0.3235982 0.55425,-0.4647421 0.29262,-0.1411439 0.65064,-0.1411439 0.7849,0 1.0603,0.547363 0.15147,0.2995004 0.15147,0.857191 v 2.365021 h -0.62998 V 6.4075392 q 0,-0.3373684 -0.0998,-0.5439204 -0.16525,-0.3442534 -0.599,-0.3442534 -0.22033,0 -0.36147,0.044753 -0.25475,0.075736 -0.44753,0.302943 -0.15491,0.1824543 -0.20311,0.3786788 -0.0447,0.1927819 -0.0447,0.554248 v 1.9312617 h -0.61966 z m 1.45619,-0.089506 z m 2.85731,1.9760147 q 0,0.5921159 0.25131,0.9914499 0.2513,0.3993339 0.80555,0.3993339 0.43032,0 0.70572,-0.3683511 0.27884,-0.3717937 0.27884,-1.0637431 0,-0.6988345 -0.28573,-1.0327603 -0.28573,-0.3373683 -0.70572,-0.3373683 -0.46818,0 -0.7608,0.3580235 -0.28917,0.3580236 -0.28917,1.0534155 z m 0.93293,-1.9519169 q 0.42343,0 0.70916,0.1790118 0.16524,0.103276 0.37524,0.3614661 V 3.6569543 h 0.59555 V 8.7312498 H 137.3478 V 8.2183122 q -0.21688,0.3408109 -0.51293,0.4922824 -0.29606,0.1514715 -0.67818,0.1514715 -0.61622,0 -1.06719,-0.5163801 -0.45097,-0.5198227 -0.45097,-1.3804563 0,-0.805553 0.40966,-1.3942263 0.4131,-0.5921159 1.17735,-0.5921159 z m 4.70938,-0.4957249 q 0.0138,-0.3855639 0.13426,-0.5645757 0.21688,-0.3167131 0.83654,-0.3167131 0.0585,0 0.12048,0.00344 0.062,0.00344 0.14115,0.010328 v 0.5645756 q -0.0964,-0.00688 -0.14115,-0.00688 -0.0413,-0.00344 -0.0792,-0.00344 -0.28229,0 -0.33737,0.148029 -0.0551,0.1445864 -0.0551,0.7435874 h 0.61277 v 0.4888399 h -0.61966 v 3.1809016 h -0.61277 V 5.5503482 h -0.51294 V 5.0615083 h 0.51294 z m 3.33926,0.4785122 q 0.39245,0 0.7608,0.1858969 0.36835,0.1824543 0.56113,0.4750697 0.1859,0.2788453 0.24786,0.650639 0.0551,0.2547475 0.0551,0.812438 h -2.70239 q 0.0172,0.5611331 0.26508,0.901944 0.24786,0.3373684 0.76769,0.3373684 0.48539,0 0.77457,-0.3201557 0.16524,-0.1858969 0.23409,-0.4303168 h 0.60933 q -0.0241,0.2031095 -0.1618,0.4544145 -0.13426,0.2478625 -0.30295,0.4062191 -0.28228,0.2754027 -0.69883,0.3717937 -0.22377,0.05508 -0.50605,0.05508 -0.68851,0 -1.16702,-0.4991675 -0.47851,-0.50261 -0.47851,-1.4045539 0,-0.8881739 0.48195,-1.4424219 0.48196,-0.554248 1.25997,-0.554248 z m 0.98801,1.6317612 q -0.0379,-0.4027765 -0.17557,-0.6437539 -0.25475,-0.4475294 -0.85031,-0.4475294 -0.42687,0 -0.71605,0.3098281 -0.28917,0.3063855 -0.30638,0.7814552 z m -1.04653,-1.6386463 z m 2.91927,2.7953378 q 0,0.2685177 0.19622,0.4234318 0.19623,0.154914 0.46475,0.154914 0.32704,0 0.63342,-0.1514715 0.51638,-0.251305 0.51638,-0.8227657 V 6.8550686 q -0.1136,0.072293 -0.29261,0.1204887 -0.17902,0.048195 -0.35114,0.068851 l -0.37524,0.048196 q -0.33737,0.044753 -0.50605,0.1411439 -0.28573,0.1617991 -0.28573,0.5163801 z m 1.50094,-1.2530824 q 0.21344,-0.02754 0.28573,-0.1790118 0.0413,-0.082621 0.0413,-0.2375349 0,-0.3167131 -0.2272,-0.457857 -0.22377,-0.1445865 -0.64376,-0.1445865 -0.48539,0 -0.6885,0.2616326 -0.11361,0.1445865 -0.14803,0.4303168 h -0.57835 q 0.0172,-0.6816218 0.44065,-0.9466969 0.42687,-0.2685177 0.988,-0.2685177 0.65064,0 1.05686,0.2478625 0.40278,0.2478625 0.40278,0.7711277 v 2.1240436 q 0,0.096391 0.0379,0.154914 0.0413,0.058523 0.16868,0.058523 0.0413,0 0.093,-0.00344 0.0516,-0.00689 0.11016,-0.017213 v 0.4578571 q -0.14459,0.04131 -0.22032,0.051638 -0.0757,0.010328 -0.20655,0.010328 -0.32016,0 -0.46475,-0.2272073 -0.0757,-0.1204887 -0.10672,-0.3408109 -0.18933,0.2478625 -0.54392,0.4303168 -0.35458,0.1824543 -0.78145,0.1824543 -0.51294,0 -0.83998,-0.309828 -0.3236,-0.3132707 -0.3236,-0.7814553 0,-0.5129376 0.32016,-0.7952254 0.32015,-0.2822878 0.83998,-0.347696 z m -0.51293,-1.5422554 z m 2.47517,0.089506 h 0.58867 v 0.6368689 q 0.0723,-0.1858969 0.35458,-0.450972 0.28229,-0.2685177 0.65064,-0.2685177 0.0172,0 0.0585,0.00344 0.0413,0.00344 0.14115,0.01377 V 5.632969 q -0.0551,-0.010328 -0.10328,-0.01377 -0.0447,-0.00344 -0.0998,-0.00344 -0.46819,0 -0.71949,0.302943 -0.25131,0.2995005 -0.25131,0.6919494 v 2.1206011 h -0.61965 z m 2.69894,2.5302627 q 0.0275,0.3098281 0.15492,0.4750697 0.23409,0.2995005 0.81244,0.2995005 0.34425,0 0.60588,-0.148029 0.26164,-0.1514715 0.26164,-0.4647421 0,-0.2375349 -0.21,-0.3614661 -0.13426,-0.075736 -0.53015,-0.1755692 L 153.8995,7.0753908 q -0.47163,-0.1170461 -0.69539,-0.2616326 -0.39934,-0.251305 -0.39934,-0.6953919 0,-0.5232652 0.37524,-0.8468634 0.37868,-0.3235982 1.01555,-0.3235982 0.83309,0 1.20144,0.4888398 0.23065,0.3098281 0.22377,0.6678517 h -0.58524 q -0.0172,-0.2099946 -0.14802,-0.3821213 -0.21344,-0.24442 -0.74015,-0.24442 -0.35114,0 -0.53359,0.1342589 -0.17901,0.1342588 -0.17901,0.354581 0,0.2409774 0.23753,0.3855638 0.1377,0.086063 0.40622,0.1514716 l 0.40966,0.099833 q 0.66785,0.1617992 0.89506,0.3132707 0.36147,0.2375348 0.36147,0.7470299 0,0.4922824 -0.37524,0.850306 -0.37179,0.3580235 -1.13604,0.3580235 -0.82276,0 -1.16702,-0.3717937 -0.34081,-0.3752362 -0.3649,-0.9260417 z m 0.91572,-2.6197686 z m 4.32383,-0.9398118 h 0.62654 v 1.0293177 h 0.58867 v 0.5060526 h -0.58867 v 2.4063314 q 0,0.1927819 0.13082,0.2581901 0.0723,0.037868 0.24097,0.037868 0.0448,0 0.0964,0 0.0516,-0.00344 0.12049,-0.010328 v 0.4888399 q -0.10672,0.030983 -0.22376,0.044753 -0.11361,0.01377 -0.24786,0.01377 -0.43376,0 -0.58868,-0.2203222 Q 158.5366,8.345686 158.5366,7.9911049 V 5.5503482 h -0.49917 V 5.0442956 h 0.49917 z m 1.83487,-0.3580236 h 0.61965 v 1.8865088 q 0.22033,-0.2788453 0.3959,-0.3924489 0.2995,-0.1962245 0.74703,-0.1962245 0.80211,0 1.08784,0.5611331 0.15491,0.3063856 0.15491,0.850306 v 2.365021 h -0.63687 V 6.4075392 q 0,-0.406219 -0.10327,-0.5955584 -0.16869,-0.302943 -0.63343,-0.302943 -0.38556,0 -0.69884,0.2650751 -0.31327,0.2650751 -0.31327,1.0017775 v 1.9553594 h -0.61965 z m 4.39612,4.0931732 q 0,0.2685177 0.19622,0.4234318 0.19623,0.154914 0.46475,0.154914 0.32704,0 0.63342,-0.1514715 0.51638,-0.251305 0.51638,-0.8227657 V 6.8550686 q -0.1136,0.072293 -0.29261,0.1204887 -0.17902,0.048195 -0.35114,0.068851 l -0.37524,0.048196 q -0.33737,0.044753 -0.50605,0.1411439 -0.28573,0.1617991 -0.28573,0.5163801 z m 1.50094,-1.2530824 q 0.21344,-0.02754 0.28573,-0.1790118 0.0413,-0.082621 0.0413,-0.2375349 0,-0.3167131 -0.2272,-0.457857 -0.22377,-0.1445865 -0.64376,-0.1445865 -0.48539,0 -0.6885,0.2616326 -0.11361,0.1445865 -0.14803,0.4303168 h -0.57835 q 0.0172,-0.6816218 0.44065,-0.9466969 0.42687,-0.2685177 0.988,-0.2685177 0.65064,0 1.05686,0.2478625 0.40278,0.2478625 0.40278,0.7711277 v 2.1240436 q 0,0.096391 0.0379,0.154914 0.0413,0.058523 0.16868,0.058523 0.0413,0 0.093,-0.00344 0.0516,-0.00689 0.11016,-0.017213 v 0.4578571 q -0.14459,0.04131 -0.22032,0.051638 -0.0757,0.010328 -0.20655,0.010328 -0.32016,0 -0.46475,-0.2272073 -0.0757,-0.1204887 -0.10672,-0.3408109 -0.18934,0.2478625 -0.54392,0.4303168 -0.35458,0.1824543 -0.78145,0.1824543 -0.51294,0 -0.83998,-0.309828 -0.3236,-0.3132707 -0.3236,-0.7814553 0,-0.5129376 0.32016,-0.7952254 0.32015,-0.2822878 0.83998,-0.347696 z M 165.7556,4.9547897 Z m 2.5819,-0.9398118 h 0.62654 v 1.0293177 h 0.58868 v 0.5060526 h -0.58868 v 2.4063314 q 0,0.1927819 0.13082,0.2581901 0.0723,0.037868 0.24098,0.037868 0.0448,0 0.0964,0 0.0516,-0.00344 0.12049,-0.010328 v 0.4888399 q -0.10672,0.030983 -0.22377,0.044753 -0.1136,0.01377 -0.24786,0.01377 -0.43376,0 -0.58867,-0.2203222 Q 168.3375,8.345686 168.3375,7.9911049 V 5.5503482 h -0.49917 V 5.0442956 h 0.49917 z m 4.26874,3.7351496 q 0,0.2685177 0.19623,0.4234318 0.19622,0.154914 0.46474,0.154914 0.32704,0 0.63342,-0.1514715 0.51639,-0.251305 0.51639,-0.8227657 V 6.8550686 q -0.11361,0.072293 -0.29262,0.1204887 -0.17901,0.048195 -0.35114,0.068851 l -0.37524,0.048196 q -0.33736,0.044753 -0.50605,0.1411439 -0.28573,0.1617991 -0.28573,0.5163801 z m 1.50095,-1.2530824 q 0.21343,-0.02754 0.28573,-0.1790118 0.0413,-0.082621 0.0413,-0.2375349 0,-0.3167131 -0.22721,-0.457857 -0.22376,-0.1445865 -0.64375,-0.1445865 -0.4854,0 -0.68851,0.2616326 -0.1136,0.1445865 -0.14803,0.4303168 h -0.57834 q 0.0172,-0.6816218 0.44064,-0.9466969 0.42687,-0.2685177 0.98801,-0.2685177 0.65064,0 1.05685,0.2478625 0.40278,0.2478625 0.40278,0.7711277 v 2.1240436 q 0,0.096391 0.0379,0.154914 0.0413,0.058523 0.16868,0.058523 0.0413,0 0.093,-0.00344 0.0516,-0.00689 0.11016,-0.017213 v 0.4578571 q -0.14458,0.04131 -0.22032,0.051638 -0.0757,0.010328 -0.20655,0.010328 -0.32016,0 -0.46474,-0.2272073 -0.0757,-0.1204887 -0.10672,-0.3408109 -0.18934,0.2478625 -0.54392,0.4303168 -0.35458,0.1824543 -0.78146,0.1824543 -0.51294,0 -0.83998,-0.309828 -0.32359,-0.3132707 -0.32359,-0.7814553 0,-0.5129376 0.32015,-0.7952254 0.32016,-0.2822878 0.83998,-0.347696 z m -0.51294,-1.5422554 z m 2.47517,0.089506 h 0.58867 v 0.6368689 q 0.0723,-0.1858969 0.35459,-0.450972 0.28228,-0.2685177 0.65063,-0.2685177 0.0172,0 0.0585,0.00344 0.0413,0.00344 0.14114,0.01377 V 5.632969 q -0.0551,-0.010328 -0.10327,-0.01377 -0.0448,-0.00344 -0.0998,-0.00344 -0.46818,0 -0.71949,0.302943 -0.2513,0.2995005 -0.2513,0.6919494 v 2.1206011 h -0.61966 z m 3.86597,-0.082621 q 0.39245,0 0.7608,0.1858969 0.36835,0.1824543 0.56113,0.4750697 0.1859,0.2788453 0.24786,0.650639 0.0551,0.2547475 0.0551,0.812438 h -2.70239 q 0.0172,0.5611331 0.26508,0.901944 0.24786,0.3373684 0.76768,0.3373684 0.4854,0 0.77457,-0.3201557 0.16525,-0.1858969 0.2341,-0.4303168 h 0.60933 q -0.0241,0.2031095 -0.1618,0.4544145 -0.13426,0.2478625 -0.30295,0.4062191 -0.28228,0.2754027 -0.69883,0.3717937 -0.22377,0.05508 -0.50605,0.05508 -0.68851,0 -1.16702,-0.4991675 -0.47852,-0.50261 -0.47852,-1.4045539 0,-0.8881739 0.48196,-1.4424219 0.48195,-0.554248 1.25997,-0.554248 z m 0.988,1.6317612 q -0.0379,-0.4027765 -0.17556,-0.6437539 -0.25475,-0.4475294 -0.85031,-0.4475294 -0.42687,0 -0.71605,0.3098281 -0.28917,0.3063855 -0.30638,0.7814552 z M 179.87686,4.9547897 Z M 22.783703,17.444992 q 0.02754,0.309828 0.154914,0.47507 0.234093,0.2995 0.812438,0.2995 0.344254,0 0.605886,-0.148029 0.261633,-0.151471 0.261633,-0.464742 0,-0.237535 -0.209995,-0.361466 -0.134258,-0.07574 -0.53015,-0.175569 l -0.492282,-0.123932 q -0.471628,-0.117046 -0.695392,-0.261632 -0.399334,-0.251305 -0.399334,-0.695392 0,-0.523265 0.375236,-0.846864 0.378679,-0.323598 1.015548,-0.323598 0.833093,0 1.201444,0.48884 0.23065,0.309828 0.223765,0.667852 h -0.585231 q -0.01721,-0.209995 -0.148029,-0.382122 -0.213437,-0.24442 -0.740145,-0.24442 -0.351138,0 -0.533593,0.134259 -0.179011,0.134259 -0.179011,0.354581 0,0.240978 0.237534,0.385564 0.137702,0.08606 0.406219,0.151472 l 0.409662,0.09983 q 0.667852,0.161799 0.895059,0.313271 0.361466,0.237535 0.361466,0.74703 0,0.492282 -0.375236,0.850306 -0.371794,0.358023 -1.136037,0.358023 -0.822765,0 -1.167019,-0.371794 -0.340811,-0.375236 -0.364908,-0.926041 z m 0.915714,-2.619769 z m 2.365021,-0.939812 h 0.626542 v 1.029318 h 0.588673 v 0.506053 H 26.69098 v 2.406331 q 0,0.192782 0.130816,0.25819 0.07229,0.03787 0.240977,0.03787 0.04475,0 0.09639,0 0.05164,-0.0034 0.120489,-0.01033 v 0.48884 q -0.106719,0.03098 -0.223765,0.04475 -0.113603,0.01377 -0.247862,0.01377 -0.43376,0 -0.588674,-0.220322 -0.154914,-0.223765 -0.154914,-0.578346 v -2.440756 h -0.499167 v -0.506053 h 0.499167 z m 3.297948,4.316938 q 0.616214,0 0.843421,-0.464742 0.23065,-0.468184 0.23065,-1.039645 0,-0.51638 -0.165242,-0.839979 -0.261632,-0.509495 -0.901944,-0.509495 -0.568018,0 -0.826208,0.43376 -0.25819,0.433759 -0.25819,1.04653 0,0.588674 0.25819,0.981122 0.25819,0.392449 0.819323,0.392449 z m 0.0241,-3.394338 q 0.712605,0 1.204887,0.475069 0.492282,0.47507 0.492282,1.397669 0,0.891617 -0.433759,1.473405 -0.433759,0.581788 -1.346031,0.581788 -0.7608,0 -1.208329,-0.512937 -0.44753,-0.516381 -0.44753,-1.383899 0,-0.929484 0.471628,-1.48029 0.471627,-0.550805 1.266852,-0.550805 z m -0.02065,0.01721 z m 4.010552,3.359914 q 0.433759,0 0.71949,-0.361466 0.289173,-0.364909 0.289173,-1.087841 0,-0.440645 -0.127374,-0.757358 -0.240978,-0.609328 -0.881289,-0.609328 -0.643754,0 -0.881289,0.643754 -0.127373,0.344253 -0.127373,0.874403 0,0.426874 0.127373,0.726375 0.240978,0.571461 0.881289,0.571461 z M 31.77216,14.931942 h 0.602444 v 0.48884 q 0.185896,-0.251305 0.406219,-0.389007 0.31327,-0.206552 0.736702,-0.206552 0.626541,0 1.063743,0.481955 0.437202,0.478512 0.437202,1.370129 0,1.204887 -0.629984,1.721267 -0.399334,0.327041 -0.929484,0.327041 -0.416547,0 -0.698835,-0.182455 -0.165241,-0.103276 -0.368351,-0.354581 v 1.883066 H 31.77216 Z m 5.525267,3.253195 q 0.43376,0 0.71949,-0.361466 0.289173,-0.364909 0.289173,-1.087841 0,-0.440645 -0.127374,-0.757358 -0.240977,-0.609328 -0.881289,-0.609328 -0.643754,0 -0.881288,0.643754 -0.127374,0.344253 -0.127374,0.874403 0,0.426874 0.127374,0.726375 0.240977,0.571461 0.881288,0.571461 z m -1.604221,-3.253195 h 0.602444 v 0.48884 q 0.185897,-0.251305 0.406219,-0.389007 0.31327,-0.206552 0.736702,-0.206552 0.626541,0 1.063743,0.481955 0.437202,0.478512 0.437202,1.370129 0,1.204887 -0.629984,1.721267 -0.399334,0.327041 -0.929484,0.327041 -0.416547,0 -0.698834,-0.182455 -0.165242,-0.103276 -0.368351,-0.354581 v 1.883066 h -0.619657 z m 3.969243,0 h 0.629984 v 3.669741 h -0.629984 z m 0,-1.387342 h 0.629984 v 0.702277 h -0.629984 z m 1.566353,1.370129 h 0.588673 v 0.523265 q 0.261633,-0.323598 0.554248,-0.464742 0.292616,-0.141144 0.650639,-0.141144 0.784898,0 1.060301,0.547363 0.151471,0.299501 0.151471,0.857191 v 2.365021 h -0.629983 v -2.32371 q 0,-0.337369 -0.09983,-0.543921 -0.165242,-0.344253 -0.599001,-0.344253 -0.220322,0 -0.361466,0.04475 -0.254748,0.07574 -0.447529,0.302943 -0.154915,0.182454 -0.20311,0.378679 -0.04475,0.192781 -0.04475,0.554248 v 1.931261 h -0.619656 z m 1.456192,-0.08951 z m 3.766133,0.0241 q 0.433759,0 0.757358,0.213437 0.175569,0.120489 0.358023,0.351139 v -0.464743 h 0.571461 v 3.353029 q 0,0.702277 -0.206552,1.108496 -0.385564,0.750472 -1.456192,0.750472 -0.595559,0 -1.001778,-0.268517 -0.406219,-0.265076 -0.454414,-0.833094 h 0.629984 q 0.04475,0.247863 0.179011,0.382122 0.209995,0.206552 0.660967,0.206552 0.712605,0 0.932927,-0.50261 0.130816,-0.296058 0.120488,-1.056858 -0.185896,0.282287 -0.447529,0.419989 -0.261633,0.137701 -0.691949,0.137701 -0.599001,0 -1.049973,-0.423431 -0.44753,-0.426875 -0.44753,-1.407997 0,-0.926042 0.450972,-1.445864 0.454415,-0.519823 1.094726,-0.519823 z m 1.115381,1.893394 q 0,-0.685065 -0.282288,-1.015548 -0.282287,-0.330483 -0.719489,-0.330483 -0.654082,0 -0.895059,0.612771 -0.127374,0.327041 -0.127374,0.857191 0,0.623099 0.251305,0.950139 0.254748,0.323599 0.681622,0.323599 0.667851,0 0.939812,-0.602444 0.151471,-0.340811 0.151471,-0.795225 z M 46.52342,14.825223 Z m 6.809333,0.08951 h 0.685064 q -0.130816,0.354581 -0.581788,1.617991 -0.337368,0.95014 -0.564576,1.549141 -0.537035,1.411439 -0.757357,1.721267 -0.220322,0.309828 -0.757358,0.309828 -0.130816,0 -0.203109,-0.01033 -0.06885,-0.01033 -0.172127,-0.03787 v -0.564575 q 0.161799,0.04475 0.234092,0.05508 0.07229,0.01033 0.127374,0.01033 0.172127,0 0.251305,-0.05852 0.08262,-0.05508 0.137702,-0.137702 0.01721,-0.02754 0.123931,-0.282287 0.106718,-0.254748 0.154914,-0.378679 l -1.363244,-3.793673 h 0.702277 l 0.988008,3.00189 z m -0.998335,-0.08951 z m 3.683511,3.377126 q 0.616213,0 0.843421,-0.464742 0.230649,-0.468184 0.230649,-1.039645 0,-0.51638 -0.165241,-0.839979 -0.261633,-0.509495 -0.901944,-0.509495 -0.568018,0 -0.826208,0.43376 -0.25819,0.433759 -0.25819,1.04653 0,0.588674 0.25819,0.981122 0.25819,0.392449 0.819323,0.392449 z m 0.0241,-3.394338 q 0.712605,0 1.204887,0.475069 0.492283,0.47507 0.492283,1.397669 0,0.891617 -0.433759,1.473405 -0.43376,0.581788 -1.346031,0.581788 -0.7608,0 -1.20833,-0.512937 -0.447529,-0.516381 -0.447529,-1.383899 0,-0.929484 0.471627,-1.48029 0.471627,-0.550805 1.266852,-0.550805 z m -0.02065,0.01721 z m 3.074184,0.08951 v 2.447642 q 0,0.282288 0.08951,0.4613 0.165242,0.330483 0.616214,0.330483 0.647196,0 0.881288,-0.578346 0.127374,-0.309828 0.127374,-0.850306 v -1.810773 h 0.619656 v 3.686954 h -0.585231 l 0.0069,-0.54392 q -0.120489,0.209994 -0.299501,0.354581 -0.354581,0.289173 -0.860634,0.289173 -0.78834,0 -1.07407,-0.526708 -0.154914,-0.282288 -0.154914,-0.753915 v -2.506165 z m 0.850306,-0.08951 z m 4.5648,-0.471627 q 0.01377,-0.385564 0.134259,-0.564576 0.21688,-0.316713 0.836536,-0.316713 0.05852,0 0.120489,0.0034 0.06197,0.0034 0.141144,0.01033 v 0.564576 q -0.09639,-0.0069 -0.141144,-0.0069 -0.04131,-0.0034 -0.07918,-0.0034 -0.282287,0 -0.337368,0.148029 -0.05508,0.144587 -0.05508,0.743588 h 0.612771 v 0.48884 h -0.619656 v 3.180901 h -0.612772 v -3.180901 h -0.512937 v -0.48884 h 0.512937 z m 1.8211,0.561133 h 0.588674 v 0.636869 q 0.07229,-0.185897 0.354581,-0.450972 0.282288,-0.268518 0.650639,-0.268518 0.01721,0 0.05852,0.0034 0.04131,0.0034 0.141144,0.01377 v 0.654081 q -0.05508,-0.01033 -0.103276,-0.01377 -0.04475,-0.0034 -0.09983,-0.0034 -0.468185,0 -0.71949,0.302943 -0.251305,0.2995 -0.251305,0.691949 v 2.120601 h -0.619656 z m 3.793674,3.28762 q 0.616213,0 0.84342,-0.464742 0.23065,-0.468184 0.23065,-1.039645 0,-0.51638 -0.165241,-0.839979 -0.261633,-0.509495 -0.901944,-0.509495 -0.568019,0 -0.826209,0.43376 -0.25819,0.433759 -0.25819,1.04653 0,0.588674 0.25819,0.981122 0.25819,0.392449 0.819324,0.392449 z m 0.0241,-3.394338 q 0.712605,0 1.204887,0.475069 0.492283,0.47507 0.492283,1.397669 0,0.891617 -0.43376,1.473405 -0.433759,0.581788 -1.346031,0.581788 -0.7608,0 -1.208329,-0.512937 -0.44753,-0.516381 -0.44753,-1.383899 0,-0.929484 0.471628,-1.48029 0.471627,-0.550805 1.266852,-0.550805 z m -0.02065,0.01721 z m 2.454528,0.08951 h 0.612771 v 0.523265 q 0.220322,-0.27196 0.399334,-0.395891 0.306385,-0.209995 0.695392,-0.209995 0.440644,0 0.709162,0.21688 0.151471,0.123931 0.275402,0.364909 0.206553,-0.296058 0.485398,-0.437202 0.278845,-0.144587 0.626541,-0.144587 0.743587,0 1.012105,0.537036 0.144587,0.289173 0.144587,0.778012 v 2.454527 h -0.643754 v -2.561245 q 0,-0.368351 -0.185897,-0.506053 -0.182455,-0.137701 -0.44753,-0.137701 -0.364908,0 -0.629983,0.24442 -0.261633,0.24442 -0.261633,0.81588 v 2.144699 h -0.629984 v -2.406331 q 0,-0.375236 -0.08951,-0.547363 -0.141144,-0.25819 -0.526707,-0.25819 -0.351139,0 -0.640312,0.27196 -0.28573,0.27196 -0.28573,0.984565 v 1.955359 h -0.619656 z m 9.253531,-0.106718 q 0.623098,0 1.012105,0.302943 0.392449,0.302943 0.471627,1.043087 h -0.602444 q -0.05508,-0.34081 -0.251305,-0.564575 -0.196224,-0.227207 -0.629983,-0.227207 -0.592116,0 -0.846864,0.578345 -0.165242,0.375237 -0.165242,0.926042 0,0.554248 0.234093,0.932927 0.234092,0.378679 0.736702,0.378679 0.385564,0 0.609329,-0.234093 0.227207,-0.237535 0.31327,-0.647196 h 0.602444 q -0.103276,0.73326 -0.51638,1.07407 -0.413104,0.337369 -1.056858,0.337369 -0.722933,0 -1.153249,-0.526708 -0.430317,-0.53015 -0.430317,-1.321933 0,-0.970795 0.471627,-1.511273 0.471627,-0.540477 1.201445,-0.540477 z m -0.09639,0.01721 z m 2.216991,0.08951 h 0.588673 v 0.636869 q 0.07229,-0.185897 0.354581,-0.450972 0.282288,-0.268518 0.650639,-0.268518 0.01721,0 0.05852,0.0034 0.04131,0.0034 0.141144,0.01377 v 0.654081 q -0.05508,-0.01033 -0.103276,-0.01377 -0.04475,-0.0034 -0.09983,-0.0034 -0.468185,0 -0.71949,0.302943 -0.251305,0.2995 -0.251305,0.691949 v 2.120601 h -0.619656 z m 3.865966,-0.08262 q 0.392449,0 0.7608,0.185897 0.368351,0.182454 0.561133,0.47507 0.185897,0.278845 0.247863,0.650639 0.05508,0.254747 0.05508,0.812438 h -2.702389 q 0.01721,0.561133 0.265075,0.901944 0.247863,0.337368 0.767685,0.337368 0.485398,0 0.77457,-0.320155 0.165242,-0.185897 0.234093,-0.430317 h 0.609328 q -0.0241,0.203109 -0.161799,0.454414 -0.134259,0.247863 -0.302943,0.406219 -0.282288,0.275403 -0.698834,0.371794 -0.223765,0.05508 -0.506053,0.05508 -0.688507,0 -1.167019,-0.499168 -0.478512,-0.50261 -0.478512,-1.404554 0,-0.888174 0.481955,-1.442422 0.481954,-0.554248 1.259967,-0.554248 z m 0.988007,1.631762 q -0.03787,-0.402777 -0.175569,-0.643754 -0.254747,-0.44753 -0.850306,-0.44753 -0.426874,0 -0.716047,0.309828 -0.289173,0.306386 -0.306385,0.781456 z m -1.04653,-1.638647 z m 2.919266,2.795338 q 0,0.268518 0.196224,0.423432 0.196225,0.154914 0.464743,0.154914 0.32704,0 0.633426,-0.151472 0.51638,-0.251305 0.51638,-0.822765 v -0.499168 q -0.113604,0.07229 -0.292615,0.120489 -0.179012,0.04819 -0.351139,0.06885 l -0.375236,0.04819 q -0.337368,0.04475 -0.506053,0.141144 -0.28573,0.161799 -0.28573,0.51638 z m 1.500945,-1.253082 q 0.213437,-0.02754 0.28573,-0.179012 0.04131,-0.08262 0.04131,-0.237535 0,-0.316713 -0.227208,-0.457857 -0.223764,-0.144587 -0.643753,-0.144587 -0.485398,0 -0.688507,0.261633 -0.113604,0.144586 -0.148029,0.430317 h -0.578346 q 0.01721,-0.681622 0.440644,-0.946697 0.426875,-0.268518 0.988008,-0.268518 0.650639,0 1.056858,0.247863 0.402776,0.247862 0.402776,0.771127 v 2.124044 q 0,0.09639 0.03787,0.154914 0.04131,0.05852 0.168684,0.05852 0.04131,0 0.09295,-0.0034 0.05164,-0.0069 0.110161,-0.01721 v 0.457857 q -0.144587,0.04131 -0.220322,0.05164 -0.07574,0.01033 -0.206553,0.01033 -0.320155,0 -0.464742,-0.227208 -0.07573,-0.120488 -0.106718,-0.340811 -0.18934,0.247863 -0.543921,0.430317 -0.354581,0.182455 -0.781455,0.182455 -0.512937,0 -0.839978,-0.309829 -0.323598,-0.31327 -0.323598,-0.781455 0,-0.512937 0.320155,-0.795225 0.320156,-0.282288 0.839979,-0.347696 z m -0.512938,-1.542256 z m 2.581906,-0.939812 h 0.626541 v 1.029318 h 0.588673 v 0.506053 h -0.588673 v 2.406331 q 0,0.192782 0.130816,0.25819 0.07229,0.03787 0.240977,0.03787 0.04475,0 0.09639,0 0.05164,-0.0034 0.120489,-0.01033 v 0.48884 q -0.106718,0.03098 -0.223765,0.04475 -0.113603,0.01377 -0.247862,0.01377 -0.433759,0 -0.588673,-0.220322 -0.154914,-0.223765 -0.154914,-0.578346 V 15.420782 H 93.75499 v -0.506053 h 0.499168 z m 1.83487,1.046531 h 0.629983 v 3.669741 h -0.629983 z m 0,-1.387342 h 0.629983 v 0.702277 h -0.629983 z m 1.566352,1.370129 h 0.588674 v 0.523265 q 0.261632,-0.323598 0.554248,-0.464742 0.292615,-0.141144 0.650639,-0.141144 0.784899,0 1.060299,0.547363 0.15147,0.299501 0.15147,0.857191 v 2.365021 h -0.62998 v -2.32371 q 0,-0.337369 -0.09983,-0.543921 -0.165242,-0.344253 -0.599001,-0.344253 -0.220323,0 -0.361467,0.04475 -0.254747,0.07574 -0.447529,0.302943 -0.154914,0.182454 -0.203109,0.378679 -0.04475,0.192781 -0.04475,0.554248 v 1.931261 H 97.65538 Z m 1.456192,-0.08951 z m 3.766128,0.0241 q 0.43376,0 0.75736,0.213437 0.17557,0.120489 0.35802,0.351139 v -0.464743 h 0.57146 v 3.353029 q 0,0.702277 -0.20655,1.108496 -0.38556,0.750472 -1.45619,0.750472 -0.59556,0 -1.00178,-0.268517 -0.40622,-0.265076 -0.45441,-0.833094 h 0.62998 q 0.0447,0.247863 0.17901,0.382122 0.21,0.206552 0.66097,0.206552 0.7126,0 0.93293,-0.50261 0.13081,-0.296058 0.12049,-1.056858 -0.1859,0.282287 -0.44753,0.419989 -0.26164,0.137701 -0.69195,0.137701 -0.599,0 -1.04998,-0.423431 -0.44753,-0.426875 -0.44753,-1.407997 0,-0.926042 0.45098,-1.445864 0.45441,-0.519823 1.09472,-0.519823 z m 1.11538,1.893394 q 0,-0.685065 -0.28228,-1.015548 -0.28229,-0.330483 -0.71949,-0.330483 -0.65409,0 -0.89506,0.612771 -0.12738,0.327041 -0.12738,0.857191 0,0.623099 0.25131,0.950139 0.25475,0.323599 0.68162,0.323599 0.66785,0 0.93981,-0.602444 0.15147,-0.340811 0.15147,-0.795225 z m -1.04309,-1.917492 z m 4.63022,-0.939812 h 0.62654 v 1.029318 h 0.58867 v 0.506053 h -0.58867 v 2.406331 q 0,0.192782 0.13081,0.25819 0.0723,0.03787 0.24098,0.03787 0.0448,0 0.0964,0 0.0516,-0.0034 0.12049,-0.01033 v 0.48884 q -0.10672,0.03098 -0.22376,0.04475 -0.11361,0.01377 -0.24787,0.01377 -0.43375,0 -0.58867,-0.220322 -0.15491,-0.223765 -0.15491,-0.578346 v -2.440756 h -0.49917 v -0.506053 h 0.49917 z m 1.83487,-0.358023 h 0.61965 v 1.886509 q 0.22033,-0.278846 0.39589,-0.392449 0.29951,-0.196225 0.74703,-0.196225 0.80212,0 1.08785,0.561133 0.15491,0.306386 0.15491,0.850306 v 2.365021 h -0.63687 v -2.32371 q 0,-0.406219 -0.10328,-0.595559 -0.16868,-0.302943 -0.63342,-0.302943 -0.38557,0 -0.69884,0.265075 -0.31327,0.265076 -0.31327,1.001778 v 1.955359 h -0.61965 z m 5.45641,1.30472 q 0.39245,0 0.7608,0.185897 0.36835,0.182454 0.56113,0.47507 0.1859,0.278845 0.24787,0.650639 0.0551,0.254747 0.0551,0.812438 h -2.70239 q 0.0172,0.561133 0.26507,0.901944 0.24787,0.337368 0.76769,0.337368 0.4854,0 0.77457,-0.320155 0.16524,-0.185897 0.23409,-0.430317 h 0.60933 q -0.0241,0.203109 -0.1618,0.454414 -0.13426,0.247863 -0.30294,0.406219 -0.28229,0.275403 -0.69884,0.371794 -0.22376,0.05508 -0.50605,0.05508 -0.68851,0 -1.16702,-0.499168 -0.47851,-0.50261 -0.47851,-1.404554 0,-0.888174 0.48195,-1.442422 0.48196,-0.554248 1.25997,-0.554248 z m 0.98801,1.631762 q -0.0379,-0.402777 -0.17557,-0.643754 -0.25475,-0.44753 -0.85031,-0.44753 -0.42687,0 -0.71604,0.309828 -0.28918,0.306386 -0.30639,0.781456 z m -1.04653,-1.638647 z m 4.42022,-1.280623 h 0.61965 v 5.057083 h -0.61965 z m 1.54914,1.387342 h 0.62998 v 3.669741 h -0.62998 z m 0,-1.387342 h 0.62998 v 0.702277 h -0.62998 z m 1.72126,0.808996 q 0.0138,-0.385564 0.13426,-0.564576 0.21688,-0.316713 0.83654,-0.316713 0.0585,0 0.12049,0.0034 0.062,0.0034 0.14114,0.01033 v 0.564576 q -0.0964,-0.0069 -0.14114,-0.0069 -0.0413,-0.0034 -0.0792,-0.0034 -0.28229,0 -0.33737,0.148029 -0.0551,0.144587 -0.0551,0.743588 h 0.61277 v 0.48884 h -0.61966 v 3.180901 h -0.61277 v -3.180901 h -0.51293 v -0.48884 h 0.51293 z m 3.33926,0.478512 q 0.39245,0 0.7608,0.185897 0.36835,0.182454 0.56113,0.47507 0.1859,0.278845 0.24787,0.650639 0.0551,0.254747 0.0551,0.812438 h -2.70239 q 0.0172,0.561133 0.26507,0.901944 0.24786,0.337368 0.76769,0.337368 0.48539,0 0.77457,-0.320155 0.16524,-0.185897 0.23409,-0.430317 h 0.60933 q -0.0241,0.203109 -0.1618,0.454414 -0.13426,0.247863 -0.30294,0.406219 -0.28229,0.275403 -0.69884,0.371794 -0.22376,0.05508 -0.50605,0.05508 -0.68851,0 -1.16702,-0.499168 -0.47851,-0.50261 -0.47851,-1.404554 0,-0.888174 0.48195,-1.442422 0.48196,-0.554248 1.25997,-0.554248 z m 0.98801,1.631762 q -0.0379,-0.402777 -0.17557,-0.643754 -0.25475,-0.44753 -0.85031,-0.44753 -0.42687,0 -0.71604,0.309828 -0.28918,0.306386 -0.30639,0.781456 z m -1.04653,-1.638647 z m 5.86608,3.377126 q 0.61621,0 0.84342,-0.464742 0.23065,-0.468184 0.23065,-1.039645 0,-0.51638 -0.16524,-0.839979 -0.26163,-0.509495 -0.90195,-0.509495 -0.56801,0 -0.8262,0.43376 -0.25819,0.433759 -0.25819,1.04653 0,0.588674 0.25819,0.981122 0.25819,0.392449 0.81932,0.392449 z m 0.0241,-3.394338 q 0.7126,0 1.20488,0.475069 0.49229,0.47507 0.49229,1.397669 0,0.891617 -0.43376,1.473405 -0.43376,0.581788 -1.34603,0.581788 -0.7608,0 -1.20833,-0.512937 -0.44753,-0.516381 -0.44753,-1.383899 0,-0.929484 0.47162,-1.48029 0.47163,-0.550805 1.26686,-0.550805 z m -0.0207,0.01721 z m 2.60944,-0.471627 q 0.0138,-0.385564 0.13426,-0.564576 0.21688,-0.316713 0.83653,-0.316713 0.0585,0 0.12049,0.0034 0.062,0.0034 0.14115,0.01033 v 0.564576 q -0.0964,-0.0069 -0.14115,-0.0069 -0.0413,-0.0034 -0.0792,-0.0034 -0.28228,0 -0.33736,0.148029 -0.0551,0.144587 -0.0551,0.743588 h 0.61277 v 0.48884 h -0.61966 v 3.180901 h -0.61277 v -3.180901 h -0.51294 v -0.48884 h 0.51294 z m 6.06574,0.561133 h 0.68507 q -0.13082,0.354581 -0.58179,1.617991 -0.33737,0.95014 -0.56458,1.549141 -0.53703,1.411439 -0.75735,1.721267 -0.22033,0.309828 -0.75736,0.309828 -0.13082,0 -0.20311,-0.01033 -0.0688,-0.01033 -0.17213,-0.03787 v -0.564575 q 0.1618,0.04475 0.2341,0.05508 0.0723,0.01033 0.12737,0.01033 0.17213,0 0.2513,-0.05852 0.0826,-0.05508 0.13771,-0.137702 0.0172,-0.02754 0.12393,-0.282287 0.10672,-0.254748 0.15491,-0.378679 l -1.36324,-3.793673 h 0.70227 l 0.98801,3.00189 z m -0.99833,-0.08951 z m 3.68351,3.377126 q 0.61621,0 0.84342,-0.464742 0.23065,-0.468184 0.23065,-1.039645 0,-0.51638 -0.16524,-0.839979 -0.26163,-0.509495 -0.90195,-0.509495 -0.56801,0 -0.8262,0.43376 -0.25819,0.433759 -0.25819,1.04653 0,0.588674 0.25819,0.981122 0.25819,0.392449 0.81932,0.392449 z m 0.0241,-3.394338 q 0.7126,0 1.20488,0.475069 0.49229,0.47507 0.49229,1.397669 0,0.891617 -0.43376,1.473405 -0.43376,0.581788 -1.34603,0.581788 -0.7608,0 -1.20833,-0.512937 -0.44753,-0.516381 -0.44753,-1.383899 0,-0.929484 0.47162,-1.48029 0.47163,-0.550805 1.26686,-0.550805 z m -0.0207,0.01721 z m 3.07419,0.08951 v 2.447642 q 0,0.282288 0.0895,0.4613 0.16524,0.330483 0.61621,0.330483 0.6472,0 0.88129,-0.578346 0.12737,-0.309828 0.12737,-0.850306 v -1.810773 h 0.61966 v 3.686954 h -0.58523 l 0.007,-0.54392 q -0.12049,0.209994 -0.2995,0.354581 -0.35458,0.289173 -0.86063,0.289173 -0.78834,0 -1.07407,-0.526708 -0.15492,-0.282288 -0.15492,-0.753915 v -2.506165 z m 0.85031,-0.08951 z m 2.46829,0.08951 h 0.58867 v 0.636869 q 0.0723,-0.185897 0.35458,-0.450972 0.28229,-0.268518 0.65064,-0.268518 0.0172,0 0.0585,0.0034 0.0413,0.0034 0.14114,0.01377 v 0.654081 q -0.0551,-0.01033 -0.10328,-0.01377 -0.0447,-0.0034 -0.0998,-0.0034 -0.46818,0 -0.71949,0.302943 -0.2513,0.2995 -0.2513,0.691949 v 2.120601 h -0.61966 z m 4.68185,1.886509 q 0,0.592116 0.2513,0.99145 0.25131,0.399334 0.80555,0.399334 0.43032,0 0.70572,-0.368351 0.27885,-0.371794 0.27885,-1.063744 0,-0.698834 -0.28573,-1.03276 -0.28573,-0.337368 -0.70572,-0.337368 -0.46819,0 -0.7608,0.358023 -0.28917,0.358024 -0.28917,1.053416 z m 0.93292,-1.951917 q 0.42343,0 0.70916,0.179012 0.16525,0.103276 0.37524,0.361466 v -1.862411 h 0.59556 v 5.074295 h -0.55769 v -0.512937 q -0.21688,0.340811 -0.51294,0.492282 -0.29606,0.151472 -0.67818,0.151472 -0.61621,0 -1.06718,-0.516381 -0.45098,-0.519822 -0.45098,-1.380456 0,-0.805553 0.40967,-1.394226 0.4131,-0.592116 1.17734,-0.592116 z m 2.61289,0.06541 h 0.58867 v 0.636869 q 0.0723,-0.185897 0.35458,-0.450972 0.28229,-0.268518 0.65064,-0.268518 0.0172,0 0.0585,0.0034 0.0413,0.0034 0.14114,0.01377 v 0.654081 q -0.0551,-0.01033 -0.10328,-0.01377 -0.0448,-0.0034 -0.0998,-0.0034 -0.46818,0 -0.71949,0.302943 -0.2513,0.2995 -0.2513,0.691949 v 2.120601 h -0.61966 z m 3.86597,-0.08262 q 0.39245,0 0.7608,0.185897 0.36835,0.182454 0.56113,0.47507 0.1859,0.278845 0.24786,0.650639 0.0551,0.254747 0.0551,0.812438 h -2.70239 q 0.0172,0.561133 0.26508,0.901944 0.24786,0.337368 0.76768,0.337368 0.4854,0 0.77457,-0.320155 0.16525,-0.185897 0.2341,-0.430317 h 0.60933 q -0.0241,0.203109 -0.1618,0.454414 -0.13426,0.247863 -0.30295,0.406219 -0.28228,0.275403 -0.69883,0.371794 -0.22377,0.05508 -0.50605,0.05508 -0.68851,0 -1.16702,-0.499168 -0.47852,-0.50261 -0.47852,-1.404554 0,-0.888174 0.48196,-1.442422 0.48195,-0.554248 1.25997,-0.554248 z m 0.988,1.631762 q -0.0379,-0.402777 -0.17556,-0.643754 -0.25475,-0.44753 -0.85031,-0.44753 -0.42688,0 -0.71605,0.309828 -0.28917,0.306386 -0.30638,0.781456 z m -1.04653,-1.638647 z m 2.91926,2.795338 q 0,0.268518 0.19623,0.423432 0.19622,0.154914 0.46474,0.154914 0.32704,0 0.63343,-0.151472 0.51638,-0.251305 0.51638,-0.822765 v -0.499168 q -0.11361,0.07229 -0.29262,0.120489 -0.17901,0.04819 -0.35114,0.06885 l -0.37523,0.04819 q -0.33737,0.04475 -0.50606,0.141144 -0.28573,0.161799 -0.28573,0.51638 z m 1.50095,-1.253082 q 0.21343,-0.02754 0.28573,-0.179012 0.0413,-0.08262 0.0413,-0.237535 0,-0.316713 -0.22721,-0.457857 -0.22376,-0.144587 -0.64375,-0.144587 -0.4854,0 -0.68851,0.261633 -0.1136,0.144586 -0.14803,0.430317 h -0.57834 q 0.0172,-0.681622 0.44064,-0.946697 0.42687,-0.268518 0.98801,-0.268518 0.65064,0 1.05685,0.247863 0.40278,0.247862 0.40278,0.771127 v 2.124044 q 0,0.09639 0.0379,0.154914 0.0413,0.05852 0.16868,0.05852 0.0413,0 0.093,-0.0034 0.0516,-0.0069 0.11016,-0.01721 v 0.457857 q -0.14458,0.04131 -0.22032,0.05164 -0.0757,0.01033 -0.20655,0.01033 -0.32016,0 -0.46474,-0.227208 -0.0757,-0.120488 -0.10672,-0.340811 -0.18934,0.247863 -0.54392,0.430317 -0.35458,0.182455 -0.78146,0.182455 -0.51294,0 -0.83998,-0.309829 -0.32359,-0.31327 -0.32359,-0.781455 0,-0.512937 0.32015,-0.795225 0.32016,-0.282288 0.83998,-0.347696 z m -0.51294,-1.542256 z m 2.45797,0.08951 h 0.61277 v 0.523265 q 0.22033,-0.27196 0.39934,-0.395891 0.30638,-0.209995 0.69539,-0.209995 0.44064,0 0.70916,0.21688 0.15147,0.123931 0.27541,0.364909 0.20655,-0.296058 0.48539,-0.437202 0.27885,-0.144587 0.62654,-0.144587 0.74359,0 1.01211,0.537036 0.14459,0.289173 0.14459,0.778012 v 2.454527 h -0.64376 v -2.561245 q 0,-0.368351 -0.1859,-0.506053 -0.18245,-0.137701 -0.44752,-0.137701 -0.36491,0 -0.62999,0.24442 -0.26163,0.24442 -0.26163,0.81588 v 2.144699 h -0.62998 v -2.406331 q 0,-0.375236 -0.0895,-0.547363 -0.14114,-0.25819 -0.52671,-0.25819 -0.35114,0 -0.64031,0.27196 -0.28573,0.27196 -0.28573,0.984565 v 1.955359 h -0.61966 z m 6.24133,2.530263 q 0.0275,0.309828 0.15491,0.47507 0.23409,0.2995 0.81244,0.2995 0.34425,0 0.60588,-0.148029 0.26164,-0.151471 0.26164,-0.464742 0,-0.237535 -0.21,-0.361466 -0.13426,-0.07574 -0.53015,-0.175569 l -0.49228,-0.123932 q -0.47163,-0.117046 -0.69539,-0.261632 -0.39934,-0.251305 -0.39934,-0.695392 0,-0.523265 0.37524,-0.846864 0.37868,-0.323598 1.01555,-0.323598 0.83309,0 1.20144,0.48884 0.23065,0.309828 0.22377,0.667852 h -0.58523 q -0.0172,-0.209995 -0.14803,-0.382122 -0.21344,-0.24442 -0.74015,-0.24442 -0.35114,0 -0.53359,0.134259 -0.17901,0.134259 -0.17901,0.354581 0,0.240978 0.23753,0.385564 0.1377,0.08606 0.40622,0.151472 l 0.40966,0.09983 q 0.66785,0.161799 0.89506,0.313271 0.36147,0.237535 0.36147,0.74703 0,0.492282 -0.37524,0.850306 -0.37179,0.358023 -1.13604,0.358023 -0.82276,0 -1.16701,-0.371794 -0.34082,-0.375236 -0.36491,-0.926041 z m 0.91571,-2.619769 z m 2.38911,3.025988 h 0.71949 v 0.750472 h -0.71949 z"
       id="text2"
       style="font-size:7.05031px;line-height:1.4;font-family:Helvetica;-inkscape-font-specification:'Helvetica, Normal';white-space:pre;inline-size:178.103"
       transform="matrix(1.2008936,0,0,1.2008936,-5.2520671,7.4209192)"
       aria-label="I can help you release the blocks and fears that are stopping you from creating the life of your dreams.&#10;" />
  </g>
</svg>
