<?xml version="1.0" encoding="UTF-8" standalone="no"?>
<!-- Created with Inkscape (http://www.inkscape.org/) -->

<svg
   width="900"
   height="350"
   viewBox="0 0 238.12499 92.604166"
   version="1.1"
   id="svg1"
   inkscape:version="1.4.2 (ebf0e940, 2025-05-08)"
   sodipodi:docname="R2-Calendar.svg"
   xmlns:inkscape="http://www.inkscape.org/namespaces/inkscape"
   xmlns:sodipodi="http://sodipodi.sourceforge.net/DTD/sodipodi-0.dtd"
   xmlns="http://www.w3.org/2000/svg"
   xmlns:svg="http://www.w3.org/2000/svg">
  <sodipodi:namedview
     id="namedview1"
     pagecolor="#ffffff"
     bordercolor="#000000"
     borderopacity="0.25"
     inkscape:showpageshadow="2"
     inkscape:pageopacity="0.0"
     inkscape:pagecheckerboard="0"
     inkscape:deskcolor="#d1d1d1"
     inkscape:document-units="mm"
     showgrid="false"
     showguides="false"
     inkscape:zoom="1"
     inkscape:cx="455"
     inkscape:cy="148"
     inkscape:window-width="1408"
     inkscape:window-height="763"
     inkscape:window-x="9"
     inkscape:window-y="25"
     inkscape:window-maximized="0"
     inkscape:current-layer="layer1" />
  <defs
     id="defs1">
    <inkscape:path-effect
       effect="fillet_chamfer"
       id="path-effect5"
       is_visible="true"
       lpeversion="1"
       nodesatellites_param="F,0,0,1,0,0,0,1 @ F,0,0,1,0,0,0,1 @ F,0,0,1,0,0,0,1 @ F,0,0,1,0,0,0,1"
       radius="0"
       unit="px"
       method="auto"
       mode="F"
       chamfer_steps="1"
       flexible="false"
       use_knot_distance="true"
       apply_no_radius="true"
       apply_with_radius="true"
       only_selected="false"
       hide_knots="false" />
  </defs>
  <g
     inkscape:label="Layer 1"
     inkscape:groupmode="layer"
     id="layer1">
    <g
       id="text1"
       style="font-size:8.81944px;font-family:Helvetica;-inkscape-font-specification:'Helvetica, Normal';fill:#1a1a1a;stroke-width:0"
       aria-label="I can help you release the blocks and fears that are&#10;stopping you from creating the life that you dream of.">
      <path
         d="m 17.269747,11.401032 h 0.86558 v 6.326053 h -0.86558 z m 6.382036,1.580437 q 0.779452,0 1.266072,0.37896 0.490926,0.37896 0.589972,1.304829 h -0.753614 q -0.0689,-0.42633 -0.314365,-0.706244 -0.245463,-0.28422 -0.788065,-0.28422 -0.740695,0 -1.059366,0.723469 -0.206706,0.469394 -0.206706,1.158413 0,0.693325 0.292833,1.167026 0.292833,0.4737 0.921563,0.4737 0.482313,0 0.762227,-0.292833 0.28422,-0.297139 0.391879,-0.809597 h 0.753614 q -0.129191,0.917256 -0.645955,1.343587 -0.516764,0.422023 -1.322055,0.422023 -0.904337,0 -1.442633,-0.658874 -0.538295,-0.66318 -0.538295,-1.653645 0,-1.214395 0.589972,-1.890495 0.589972,-0.676099 1.502922,-0.676099 z M 23.531205,13.003 Z m 3.346047,3.49677 q 0,0.335897 0.245463,0.529684 0.245463,0.193786 0.581359,0.193786 0.409105,0 0.792372,-0.18948 0.645955,-0.314365 0.645955,-1.029222 v -0.624423 q -0.14211,0.09043 -0.366041,0.150723 -0.223931,0.06029 -0.43925,0.08613 l -0.469394,0.06029 q -0.422024,0.05598 -0.633036,0.176561 -0.357428,0.2024 -0.357428,0.645955 z m 1.877576,-1.567517 q 0.266995,-0.03445 0.357429,-0.223931 0.05168,-0.103353 0.05168,-0.29714 0,-0.396185 -0.28422,-0.572746 -0.279914,-0.180868 -0.805291,-0.180868 -0.607198,0 -0.861273,0.327284 -0.142111,0.180867 -0.185174,0.538296 h -0.72347 q 0.02153,-0.852661 0.551215,-1.184251 0.53399,-0.335897 1.235928,-0.335897 0.813903,0 1.322054,0.310059 0.503845,0.310058 0.503845,0.964626 v 2.657029 q 0,0.120578 0.04737,0.193786 0.05168,0.07321 0.211012,0.07321 0.05168,0 0.116272,-0.0043 0.0646,-0.0086 0.137804,-0.02153 v 0.572747 q -0.180868,0.05168 -0.275608,0.0646 -0.09474,0.01292 -0.258382,0.01292 -0.400492,0 -0.581359,-0.284221 -0.09474,-0.150723 -0.133498,-0.42633 -0.23685,0.310058 -0.680406,0.538296 -0.443555,0.228237 -0.977545,0.228237 -0.641649,0 -1.050754,-0.387573 -0.404798,-0.391879 -0.404798,-0.977545 0,-0.641649 0.400492,-0.994771 0.400492,-0.353122 1.050754,-0.434943 z M 28.113179,13.003 Z m 3.074746,0.111966 h 0.736389 v 0.654568 q 0.327284,-0.404799 0.693325,-0.58136 0.366041,-0.176561 0.813904,-0.176561 0.981851,0 1.326361,0.684712 0.18948,0.374654 0.18948,1.072286 v 2.958474 h -0.788065 v -2.906798 q 0,-0.422024 -0.124885,-0.680406 -0.206706,-0.430636 -0.749308,-0.430636 -0.275607,0 -0.452168,0.05598 -0.318672,0.09474 -0.559828,0.378961 -0.193787,0.228237 -0.254076,0.4737 -0.05598,0.241157 -0.05598,0.693325 v 2.415872 H 31.187925 Z M 33.009519,13.003 Z m 5.533682,-1.6235 h 0.775146 v 2.359889 Q 39.593954,13.390573 39.813579,13.248463 40.188233,13.003 40.74806,13.003 q 1.003384,0 1.360813,0.701938 0.193786,0.383267 0.193786,1.063673 v 2.958474 h -0.796678 v -2.906798 q 0,-0.508151 -0.129191,-0.745001 -0.211012,-0.378961 -0.792371,-0.378961 -0.482314,0 -0.874193,0.331591 -0.391879,0.33159 -0.391879,1.253153 v 2.446016 h -0.775146 z m 6.82559,1.632113 q 0.490926,0 0.951707,0.232544 0.460782,0.228237 0.701938,0.594279 0.232544,0.348815 0.310059,0.813903 0.0689,0.318671 0.0689,1.016303 h -3.380499 q 0.02153,0.701937 0.331591,1.128268 0.310058,0.422024 0.96032,0.422024 0.607197,0 0.968932,-0.400492 0.206706,-0.232544 0.292833,-0.538296 h 0.762227 q -0.03014,0.254075 -0.202399,0.56844 -0.167948,0.310059 -0.37896,0.508152 -0.353123,0.344509 -0.874193,0.465087 -0.279914,0.0689 -0.633036,0.0689 -0.861273,0 -1.459858,-0.624423 -0.598585,-0.62873 -0.598585,-1.756998 0,-1.111043 0.602891,-1.804368 0.602891,-0.693325 1.57613,-0.693325 z m 1.235928,2.041218 q -0.04737,-0.503845 -0.219625,-0.805291 -0.318671,-0.559827 -1.063673,-0.559827 -0.533989,0 -0.895724,0.387573 -0.361735,0.383266 -0.383267,0.977545 z M 45.295583,13.003 Z m 3.079053,-1.601968 h 0.775147 v 6.326053 h -0.775147 z m 3.884343,5.804983 q 0.542602,0 0.900031,-0.452169 0.361734,-0.456475 0.361734,-1.360812 0,-0.551215 -0.159335,-0.947401 -0.301446,-0.762227 -1.10243,-0.762227 -0.805291,0 -1.10243,0.805291 -0.159336,0.430637 -0.159336,1.093817 0,0.53399 0.159336,0.908644 0.301446,0.714857 1.10243,0.714857 z m -2.006767,-4.069517 h 0.753614 v 0.611504 q 0.232544,-0.314365 0.508151,-0.48662 0.39188,-0.258382 0.921563,-0.258382 0.783759,0 1.330667,0.602892 0.546909,0.598585 0.546909,1.713934 0,1.507228 -0.788065,2.153183 -0.499539,0.409105 -1.162719,0.409105 -0.521071,0 -0.874193,-0.228237 -0.206705,-0.129191 -0.460781,-0.443556 v 2.355583 h -0.775146 z m 10.296523,-0.02153 h 0.856967 q -0.163642,0.443556 -0.727776,2.023992 -0.422024,1.188558 -0.706244,1.937866 -0.671794,1.76561 -0.947401,2.153183 -0.275608,0.387573 -0.947401,0.387573 -0.163642,0 -0.254076,-0.01292 -0.08613,-0.01292 -0.215318,-0.04737 v -0.706244 q 0.202399,0.05598 0.292833,0.0689 0.09043,0.01292 0.159336,0.01292 0.215318,0 0.314364,-0.07321 0.103353,-0.0689 0.172255,-0.172255 0.02153,-0.03445 0.155029,-0.353122 0.133498,-0.318671 0.193787,-0.473701 l -1.705322,-4.745616 h 0.878499 l 1.235928,3.755152 z M 59.299888,13.003 Z m 4.607815,4.224547 q 0.770839,0 1.05506,-0.58136 0.288526,-0.585666 0.288526,-1.300523 0,-0.645955 -0.206705,-1.050753 -0.327284,-0.637343 -1.128269,-0.637343 -0.71055,0 -1.033528,0.542602 -0.322977,0.542603 -0.322977,1.309136 0,0.736389 0.322977,1.227315 0.322978,0.490926 1.024916,0.490926 z m 0.03014,-4.246078 q 0.891418,0 1.507229,0.594278 0.61581,0.594279 0.61581,1.748385 0,1.115349 -0.542602,1.843125 -0.542602,0.727776 -1.68379,0.727776 -0.951707,0 -1.511535,-0.641648 -0.559827,-0.645955 -0.559827,-1.73116 0,-1.162719 0.589972,-1.851738 0.589972,-0.689018 1.584743,-0.689018 z m -0.02584,0.02153 z m 3.845587,0.111966 v 3.061827 q 0,0.353122 0.111965,0.577053 0.206706,0.413411 0.77084,0.413411 0.809597,0 1.10243,-0.723469 0.159335,-0.387573 0.159335,-1.063673 v -2.265149 h 0.775147 v 4.612119 H 69.94523 l 0.0086,-0.680406 q -0.150723,0.262689 -0.374654,0.443556 -0.443556,0.361735 -1.076592,0.361735 -0.986158,0 -1.343586,-0.658874 -0.193787,-0.353123 -0.193787,-0.943095 V 13.114966 Z M 68.821268,13.003 Z m 5.537988,0.111966 h 0.736388 v 0.796678 q 0.09043,-0.232544 0.443556,-0.564134 0.353122,-0.335897 0.813904,-0.335897 0.02153,0 0.07321,0.0043 0.05168,0.0043 0.176561,0.01723 v 0.81821 q -0.0689,-0.01292 -0.129191,-0.01723 -0.05598,-0.0043 -0.124885,-0.0043 -0.585666,0 -0.900031,0.37896 -0.314364,0.374654 -0.314364,0.86558 v 2.652722 h -0.775146 z m 4.836051,-0.103353 q 0.490925,0 0.951707,0.232544 0.460781,0.228237 0.701938,0.594279 0.232543,0.348815 0.310058,0.813903 0.0689,0.318671 0.0689,1.016303 h -3.380498 q 0.02153,0.701937 0.33159,1.128268 0.310058,0.422024 0.96032,0.422024 0.607198,0 0.968932,-0.400492 0.206706,-0.232544 0.292833,-0.538296 h 0.762227 q -0.03014,0.254075 -0.202399,0.56844 -0.167948,0.310059 -0.37896,0.508152 -0.353122,0.344509 -0.874193,0.465087 -0.279914,0.0689 -0.633036,0.0689 -0.861273,0 -1.459858,-0.624423 -0.598585,-0.62873 -0.598585,-1.756998 0,-1.111043 0.602891,-1.804368 0.602892,-0.693325 1.576131,-0.693325 z m 1.235927,2.041218 q -0.04737,-0.503845 -0.219625,-0.805291 -0.318671,-0.559827 -1.063672,-0.559827 -0.53399,0 -0.895725,0.387573 -0.361735,0.383266 -0.383267,0.977545 z M 79.122098,13.003 Z m 3.07905,-1.601968 h 0.775146 v 6.326053 h -0.775146 z m 3.858504,1.610581 q 0.490926,0 0.951707,0.232544 0.460782,0.228237 0.701938,0.594279 0.232544,0.348815 0.310059,0.813903 0.0689,0.318671 0.0689,1.016303 h -3.380498 q 0.02153,0.701937 0.33159,1.128268 0.310059,0.422024 0.96032,0.422024 0.607198,0 0.968933,-0.400492 0.206706,-0.232544 0.292833,-0.538296 h 0.762227 q -0.03015,0.254075 -0.202399,0.56844 -0.167949,0.310059 -0.378961,0.508152 -0.353122,0.344509 -0.874192,0.465087 -0.279914,0.0689 -0.633036,0.0689 -0.861274,0 -1.459859,-0.624423 -0.598585,-0.62873 -0.598585,-1.756998 0,-1.111043 0.602892,-1.804368 0.602891,-0.693325 1.57613,-0.693325 z m 1.235927,2.041218 q -0.04737,-0.503845 -0.219624,-0.805291 -0.318671,-0.559827 -1.063673,-0.559827 -0.533989,0 -0.895724,0.387573 -0.361735,0.383266 -0.383267,0.977545 z M 85.986444,13.003 Z m 3.6518,3.49677 q 0,0.335897 0.245463,0.529684 0.245463,0.193786 0.58136,0.193786 0.409104,0 0.792371,-0.18948 0.645955,-0.314365 0.645955,-1.029222 v -0.624423 q -0.14211,0.09043 -0.366041,0.150723 -0.223931,0.06029 -0.43925,0.08613 l -0.469394,0.06029 q -0.422024,0.05598 -0.633035,0.176561 -0.357429,0.2024 -0.357429,0.645955 z m 1.877576,-1.567517 q 0.266995,-0.03445 0.357429,-0.223931 0.05168,-0.103353 0.05168,-0.29714 0,-0.396185 -0.28422,-0.572746 -0.279914,-0.180868 -0.805291,-0.180868 -0.607198,0 -0.861273,0.327284 -0.14211,0.180867 -0.185174,0.538296 h -0.72347 q 0.02153,-0.852661 0.551215,-1.184251 0.53399,-0.335897 1.235928,-0.335897 0.813903,0 1.322054,0.310059 0.503845,0.310058 0.503845,0.964626 v 2.657029 q 0,0.120578 0.04737,0.193786 0.05168,0.07321 0.211012,0.07321 0.05168,0 0.116272,-0.0043 0.0646,-0.0086 0.137804,-0.02153 v 0.572747 q -0.180868,0.05168 -0.275608,0.0646 -0.09474,0.01292 -0.258382,0.01292 -0.400492,0 -0.581359,-0.284221 -0.09474,-0.150723 -0.133498,-0.42633 -0.23685,0.310058 -0.680406,0.538296 -0.443555,0.228237 -0.977545,0.228237 -0.641649,0 -1.050753,-0.387573 -0.404799,-0.391879 -0.404799,-0.977545 0,-0.641649 0.400492,-0.994771 0.400492,-0.353122 1.050754,-0.434943 z M 90.874171,13.003 Z m 3.535529,3.277146 q 0.03445,0.387573 0.193786,0.594278 0.292833,0.374654 1.016303,0.374654 0.430637,0 0.75792,-0.185173 0.327284,-0.189481 0.327284,-0.58136 0,-0.297139 -0.262688,-0.452169 -0.167948,-0.09474 -0.663181,-0.219624 l -0.61581,-0.155029 q -0.589972,-0.146417 -0.869886,-0.327284 -0.499539,-0.314365 -0.499539,-0.869887 0,-0.654567 0.469394,-1.059366 0.473701,-0.404798 1.270378,-0.404798 1.042141,0 1.502923,0.611504 0.288526,0.387573 0.279913,0.835435 h -0.732082 q -0.02153,-0.262688 -0.185174,-0.478007 -0.266994,-0.305752 -0.925869,-0.305752 -0.439249,0 -0.667487,0.167948 -0.223931,0.167949 -0.223931,0.443556 0,0.301446 0.29714,0.482313 0.172254,0.10766 0.508151,0.189481 l 0.512458,0.124884 q 0.835435,0.202399 1.119655,0.39188 0.452169,0.297139 0.452169,0.934481 0,0.615811 -0.469394,1.063673 -0.465088,0.447862 -1.421101,0.447862 -1.029222,0 -1.459859,-0.465087 -0.42633,-0.469395 -0.456475,-1.158413 z M 95.555193,13.003 Z m 4.724087,0.0086 q 0.49093,0 0.95171,0.232544 0.46078,0.228237 0.70193,0.594279 0.23255,0.348815 0.31006,0.813903 0.0689,0.318671 0.0689,1.016303 h -3.380493 q 0.02153,0.701937 0.33159,1.128268 0.310058,0.422024 0.960323,0.422024 0.60719,0 0.96893,-0.400492 0.2067,-0.232544 0.29283,-0.538296 h 0.76223 q -0.0302,0.254075 -0.2024,0.56844 -0.16795,0.310059 -0.37896,0.508152 -0.35312,0.344509 -0.87419,0.465087 -0.27992,0.0689 -0.63304,0.0689 -0.861272,0 -1.459857,-0.624423 -0.598585,-0.62873 -0.598585,-1.756998 0,-1.111043 0.602891,-1.804368 0.602892,-0.693325 1.576131,-0.693325 z m 1.23593,2.041218 q -0.0474,-0.503845 -0.21963,-0.805291 -0.31867,-0.559827 -1.06367,-0.559827 -0.53399,0 -0.895725,0.387573 -0.361735,0.383266 -0.383267,0.977545 z M 100.20607,13.003 Z m 5.66287,-1.175638 h 0.78376 v 1.287604 h 0.73639 v 0.633036 h -0.73639 v 3.010151 q 0,0.241156 0.16364,0.322977 0.0904,0.04737 0.30145,0.04737 0.056,0 0.12057,0 0.0646,-0.0043 0.15073,-0.01292 v 0.611504 q -0.1335,0.03876 -0.27992,0.05598 -0.14211,0.01722 -0.31006,0.01722 -0.5426,0 -0.73638,-0.275607 -0.19379,-0.279914 -0.19379,-0.72347 v -3.053214 h -0.62442 v -0.633036 h 0.62442 z m 2.2953,-0.447862 h 0.77514 v 2.359889 q 0.27561,-0.348816 0.49523,-0.490926 0.37466,-0.245463 0.93449,-0.245463 1.00338,0 1.36081,0.701938 0.19378,0.383267 0.19378,1.063673 v 2.958474 h -0.79667 v -2.906798 q 0,-0.508151 -0.1292,-0.745001 -0.21101,-0.378961 -0.79237,-0.378961 -0.48231,0 -0.87419,0.331591 -0.39188,0.33159 -0.39188,1.253153 v 2.446016 h -0.77514 z m 6.82559,1.632113 q 0.49092,0 0.95171,0.232544 0.46078,0.228237 0.70193,0.594279 0.23255,0.348815 0.31006,0.813903 0.0689,0.318671 0.0689,1.016303 h -3.3805 q 0.0215,0.701937 0.3316,1.128268 0.31005,0.422024 0.96032,0.422024 0.60719,0 0.96893,-0.400492 0.2067,-0.232544 0.29283,-0.538296 h 0.76223 q -0.0302,0.254075 -0.2024,0.56844 -0.16795,0.310059 -0.37896,0.508152 -0.35312,0.344509 -0.87419,0.465087 -0.27992,0.0689 -0.63304,0.0689 -0.86127,0 -1.45986,-0.624423 -0.59858,-0.62873 -0.59858,-1.756998 0,-1.111043 0.60289,-1.804368 0.60289,-0.693325 1.57613,-0.693325 z m 1.23593,2.041218 q -0.0474,-0.503845 -0.21963,-0.805291 -0.31867,-0.559827 -1.06367,-0.559827 -0.53399,0 -0.89573,0.387573 -0.36173,0.383266 -0.38326,0.977545 z M 114.91662,13.003 Z m 5.44756,-1.6235 h 0.75361 v 2.295294 q 0.25408,-0.331591 0.6072,-0.503845 0.35312,-0.176561 0.76653,-0.176561 0.86128,0 1.39527,0.594278 0.53829,0.589973 0.53829,1.744079 0,1.093817 -0.52968,1.817287 -0.52969,0.72347 -1.46847,0.72347 -0.52538,0 -0.88711,-0.254076 -0.21532,-0.150723 -0.46079,-0.482313 v 0.589972 h -0.71485 z m 2.01538,5.809289 q 0.62873,0 0.93878,-0.499538 0.31437,-0.499539 0.31437,-1.317749 0,-0.727776 -0.31437,-1.205783 -0.31005,-0.478006 -0.91725,-0.478006 -0.52968,0 -0.93018,0.391879 -0.39618,0.39188 -0.39618,1.29191 0,0.650262 0.16364,1.05506 0.30575,0.762227 1.14119,0.762227 z m 2.97139,-5.787757 h 0.77515 v 6.326053 h -0.77515 z m 3.76807,5.826515 q 0.77084,0 1.05506,-0.58136 0.28853,-0.585666 0.28853,-1.300523 0,-0.645955 -0.20671,-1.050753 -0.32728,-0.637343 -1.12827,-0.637343 -0.71055,0 -1.03352,0.542602 -0.32298,0.542603 -0.32298,1.309136 0,0.736389 0.32298,1.227315 0.32297,0.490926 1.02491,0.490926 z m 0.0301,-4.246078 q 0.89141,0 1.50722,0.594278 0.61582,0.594279 0.61582,1.748385 0,1.115349 -0.54261,1.843125 -0.5426,0.727776 -1.68379,0.727776 -0.9517,0 -1.51153,-0.641648 -0.55983,-0.645955 -0.55983,-1.73116 0,-1.162719 0.58997,-1.851738 0.58998,-0.689018 1.58475,-0.689018 z m -0.0258,0.02153 z m 4.84897,-0.02153 q 0.77945,0 1.26607,0.37896 0.49093,0.37896 0.58997,1.304829 h -0.75361 q -0.0689,-0.42633 -0.31437,-0.706244 -0.24546,-0.28422 -0.78806,-0.28422 -0.7407,0 -1.05937,0.723469 -0.2067,0.469394 -0.2067,1.158413 0,0.693325 0.29283,1.167026 0.29283,0.4737 0.92156,0.4737 0.48231,0 0.76223,-0.292833 0.28422,-0.297139 0.39188,-0.809597 h 0.75361 q -0.12919,0.917256 -0.64595,1.343587 -0.51677,0.422023 -1.32206,0.422023 -0.90433,0 -1.44263,-0.658874 -0.5383,-0.66318 -0.5383,-1.653645 0,-1.214395 0.58998,-1.890495 0.58997,-0.676099 1.50292,-0.676099 z m -0.12058,0.02153 z m 2.73454,-1.601968 h 0.745 v 3.673331 l 1.98954,-1.959397 h 0.99046 l -1.76561,1.726853 1.86466,2.885266 h -0.99046 l -1.43833,-2.325438 -0.65026,0.594279 v 1.731159 h -0.745 z m 4.88772,4.879114 q 0.0345,0.387573 0.19379,0.594278 0.29283,0.374654 1.0163,0.374654 0.43064,0 0.75792,-0.185173 0.32729,-0.189481 0.32729,-0.58136 0,-0.297139 -0.26269,-0.452169 -0.16795,-0.09474 -0.66318,-0.219624 l -0.61581,-0.155029 q -0.58997,-0.146417 -0.86989,-0.327284 -0.49954,-0.314365 -0.49954,-0.869887 0,-0.654567 0.4694,-1.059366 0.4737,-0.404798 1.27038,-0.404798 1.04214,0 1.50292,0.611504 0.28853,0.387573 0.27991,0.835435 h -0.73208 q -0.0215,-0.262688 -0.18517,-0.478007 -0.267,-0.305752 -0.92587,-0.305752 -0.43925,0 -0.66749,0.167948 -0.22393,0.167949 -0.22393,0.443556 0,0.301446 0.29714,0.482313 0.17225,0.10766 0.50815,0.189481 l 0.51246,0.124884 q 0.83543,0.202399 1.11965,0.39188 0.45217,0.297139 0.45217,0.934481 0,0.615811 -0.46939,1.063673 -0.46509,0.447862 -1.4211,0.447862 -1.02922,0 -1.45986,-0.465087 -0.42633,-0.469395 -0.45648,-1.158413 z m 1.1455,-3.277146 z m 5.84804,3.49677 q 0,0.335897 0.24546,0.529684 0.24547,0.193786 0.58136,0.193786 0.40911,0 0.79238,-0.18948 0.64595,-0.314365 0.64595,-1.029222 v -0.624423 q -0.14211,0.09043 -0.36604,0.150723 -0.22393,0.06029 -0.43925,0.08613 l -0.46939,0.06029 q -0.42203,0.05598 -0.63304,0.176561 -0.35743,0.2024 -0.35743,0.645955 z m 1.87758,-1.567517 q 0.26699,-0.03445 0.35743,-0.223931 0.0517,-0.103353 0.0517,-0.29714 0,-0.396185 -0.28422,-0.572746 -0.27991,-0.180868 -0.80529,-0.180868 -0.6072,0 -0.86127,0.327284 -0.14211,0.180867 -0.18518,0.538296 h -0.72347 q 0.0215,-0.852661 0.55122,-1.184251 0.53399,-0.335897 1.23593,-0.335897 0.8139,0 1.32205,0.310059 0.50385,0.310058 0.50385,0.964626 v 2.657029 q 0,0.120578 0.0474,0.193786 0.0517,0.07321 0.21101,0.07321 0.0517,0 0.11627,-0.0043 0.0646,-0.0086 0.1378,-0.02153 v 0.572747 q -0.18086,0.05168 -0.2756,0.0646 -0.0947,0.01292 -0.25839,0.01292 -0.40049,0 -0.58136,-0.284221 -0.0947,-0.150723 -0.13349,-0.42633 -0.23685,0.310058 -0.68041,0.538296 -0.44355,0.228237 -0.97754,0.228237 -0.64165,0 -1.05076,-0.387573 -0.4048,-0.391879 -0.4048,-0.977545 0,-0.641649 0.4005,-0.994771 0.40049,-0.353122 1.05075,-0.434943 z M 149.70345,13.003 Z m 3.07475,0.111966 h 0.73638 v 0.654568 q 0.32729,-0.404799 0.69333,-0.58136 0.36604,-0.176561 0.8139,-0.176561 0.98185,0 1.32636,0.684712 0.18948,0.374654 0.18948,1.072286 v 2.958474 h -0.78806 v -2.906798 q 0,-0.422024 -0.12489,-0.680406 -0.2067,-0.430636 -0.7493,-0.430636 -0.27561,0 -0.45217,0.05598 -0.31867,0.09474 -0.55983,0.378961 -0.19379,0.228237 -0.25408,0.4737 -0.056,0.241157 -0.056,0.693325 v 2.415872 H 152.7782 Z M 154.59979,13.003 Z m 3.57428,2.471855 q 0,0.740695 0.31437,1.240234 0.31436,0.499538 1.00769,0.499538 0.53829,0 0.8828,-0.460781 0.34882,-0.465088 0.34882,-1.330667 0,-0.874193 -0.35743,-1.29191 -0.35743,-0.422024 -0.8828,-0.422024 -0.58567,0 -0.95171,0.447862 -0.36174,0.447862 -0.36174,1.317748 z m 1.16703,-2.44171 q 0.52968,0 0.88711,0.223931 0.20671,0.129191 0.4694,0.452169 V 11.3795 h 0.745 v 6.347585 h -0.69763 v -0.641649 q -0.27131,0.426331 -0.64165,0.615811 -0.37035,0.18948 -0.84836,0.18948 -0.77084,0 -1.33497,-0.645955 -0.56414,-0.650261 -0.56414,-1.726853 0,-1.00769 0.51246,-1.744079 0.51677,-0.740695 1.47278,-0.740695 z m 5.89112,-0.620117 q 0.0172,-0.482313 0.16795,-0.706244 0.2713,-0.396186 1.04645,-0.396186 0.0732,0 0.15072,0.0043 0.0775,0.0043 0.17656,0.01292 v 0.706244 q -0.12058,-0.0086 -0.17656,-0.0086 -0.0517,-0.0043 -0.0991,-0.0043 -0.35312,0 -0.42202,0.185173 -0.0689,0.180868 -0.0689,0.930176 h 0.76653 v 0.611504 h -0.77515 v 3.979083 h -0.76653 v -3.979083 h -0.64165 v -0.611504 h 0.64165 z m 4.17717,0.598585 q 0.49093,0 0.95171,0.232544 0.46078,0.228237 0.70194,0.594279 0.23254,0.348815 0.31005,0.813903 0.0689,0.318671 0.0689,1.016303 h -3.3805 q 0.0215,0.701937 0.33159,1.128268 0.31006,0.422024 0.96032,0.422024 0.6072,0 0.96893,-0.400492 0.20671,-0.232544 0.29283,-0.538296 h 0.76223 q -0.0301,0.254075 -0.2024,0.56844 -0.16795,0.310059 -0.37896,0.508152 -0.35312,0.344509 -0.87419,0.465087 -0.27991,0.0689 -0.63304,0.0689 -0.86127,0 -1.45986,-0.624423 -0.59858,-0.62873 -0.59858,-1.756998 0,-1.111043 0.60289,-1.804368 0.60289,-0.693325 1.57613,-0.693325 z m 1.23593,2.041218 q -0.0474,-0.503845 -0.21963,-0.805291 -0.31867,-0.559827 -1.06367,-0.559827 -0.53399,0 -0.89572,0.387573 -0.36174,0.383266 -0.38327,0.977545 z M 169.33618,13.003 Z m 3.6518,3.49677 q 0,0.335897 0.24547,0.529684 0.24546,0.193786 0.58136,0.193786 0.4091,0 0.79237,-0.18948 0.64595,-0.314365 0.64595,-1.029222 v -0.624423 q -0.14211,0.09043 -0.36604,0.150723 -0.22393,0.06029 -0.43925,0.08613 l -0.46939,0.06029 q -0.42203,0.05598 -0.63304,0.176561 -0.35743,0.2024 -0.35743,0.645955 z m 1.87758,-1.567517 q 0.26699,-0.03445 0.35743,-0.223931 0.0517,-0.103353 0.0517,-0.29714 0,-0.396185 -0.28422,-0.572746 -0.27991,-0.180868 -0.80529,-0.180868 -0.60719,0 -0.86127,0.327284 -0.14211,0.180867 -0.18517,0.538296 h -0.72347 q 0.0215,-0.852661 0.55121,-1.184251 0.53399,-0.335897 1.23593,-0.335897 0.8139,0 1.32205,0.310059 0.50385,0.310058 0.50385,0.964626 v 2.657029 q 0,0.120578 0.0474,0.193786 0.0517,0.07321 0.21101,0.07321 0.0517,0 0.11627,-0.0043 0.0646,-0.0086 0.13781,-0.02153 v 0.572747 q -0.18087,0.05168 -0.27561,0.0646 -0.0947,0.01292 -0.25838,0.01292 -0.4005,0 -0.58136,-0.284221 -0.0947,-0.150723 -0.1335,-0.42633 -0.23685,0.310058 -0.68041,0.538296 -0.44355,0.228237 -0.97754,0.228237 -0.64165,0 -1.05076,-0.387573 -0.40479,-0.391879 -0.40479,-0.977545 0,-0.641649 0.40049,-0.994771 0.40049,-0.353122 1.05075,-0.434943 z M 174.22391,13.003 Z m 3.09628,0.111966 h 0.73639 v 0.796678 q 0.0904,-0.232544 0.44355,-0.564134 0.35313,-0.335897 0.81391,-0.335897 0.0215,0 0.0732,0.0043 0.0517,0.0043 0.17656,0.01723 v 0.81821 q -0.0689,-0.01292 -0.12919,-0.01723 -0.056,-0.0043 -0.12489,-0.0043 -0.58567,0 -0.90003,0.37896 -0.31436,0.374654 -0.31436,0.86558 v 2.652722 h -0.77515 z m 3.37618,3.16518 q 0.0345,0.387573 0.19379,0.594278 0.29283,0.374654 1.0163,0.374654 0.43064,0 0.75792,-0.185173 0.32729,-0.189481 0.32729,-0.58136 0,-0.297139 -0.26269,-0.452169 -0.16795,-0.09474 -0.66318,-0.219624 l -0.61581,-0.155029 q -0.58997,-0.146417 -0.86989,-0.327284 -0.49954,-0.314365 -0.49954,-0.869887 0,-0.654567 0.4694,-1.059366 0.4737,-0.404798 1.27038,-0.404798 1.04214,0 1.50292,0.611504 0.28852,0.387573 0.27991,0.835435 h -0.73208 q -0.0215,-0.262688 -0.18517,-0.478007 -0.267,-0.305752 -0.92587,-0.305752 -0.43925,0 -0.66749,0.167948 -0.22393,0.167949 -0.22393,0.443556 0,0.301446 0.29714,0.482313 0.17225,0.10766 0.50815,0.189481 l 0.51246,0.124884 q 0.83543,0.202399 1.11965,0.39188 0.45217,0.297139 0.45217,0.934481 0,0.615811 -0.46939,1.063673 -0.46509,0.447862 -1.4211,0.447862 -1.02923,0 -1.45986,-0.465087 -0.42633,-0.469395 -0.45648,-1.158413 z m 1.1455,-3.277146 z m 5.4088,-1.175638 h 0.78376 v 1.287604 h 0.73639 v 0.633036 h -0.73639 v 3.010151 q 0,0.241156 0.16364,0.322977 0.0904,0.04737 0.30144,0.04737 0.056,0 0.12058,0 0.0646,-0.0043 0.15073,-0.01292 v 0.611504 q -0.1335,0.03876 -0.27992,0.05598 -0.14211,0.01722 -0.31006,0.01722 -0.5426,0 -0.73639,-0.275607 -0.19378,-0.279914 -0.19378,-0.72347 v -3.053214 h -0.62442 v -0.633036 h 0.62442 z m 2.29529,-0.447862 h 0.77514 v 2.359889 q 0.27561,-0.348816 0.49523,-0.490926 0.37466,-0.245463 0.93449,-0.245463 1.00338,0 1.36081,0.701938 0.19379,0.383267 0.19379,1.063673 v 2.958474 h -0.79668 v -2.906798 q 0,-0.508151 -0.12919,-0.745001 -0.21102,-0.378961 -0.79238,-0.378961 -0.48231,0 -0.87419,0.331591 -0.39188,0.33159 -0.39188,1.253153 v 2.446016 h -0.77514 z m 5.49923,5.12027 q 0,0.335897 0.24546,0.529684 0.24546,0.193786 0.58136,0.193786 0.40911,0 0.79237,-0.18948 0.64596,-0.314365 0.64596,-1.029222 v -0.624423 q -0.14211,0.09043 -0.36604,0.150723 -0.22393,0.06029 -0.43925,0.08613 l -0.4694,0.06029 q -0.42202,0.05598 -0.63303,0.176561 -0.35743,0.2024 -0.35743,0.645955 z m 1.87757,-1.567517 q 0.267,-0.03445 0.35743,-0.223931 0.0517,-0.103353 0.0517,-0.29714 0,-0.396185 -0.28422,-0.572746 -0.27991,-0.180868 -0.80529,-0.180868 -0.6072,0 -0.86128,0.327284 -0.14211,0.180867 -0.18517,0.538296 h -0.72347 q 0.0215,-0.852661 0.55122,-1.184251 0.53399,-0.335897 1.23592,-0.335897 0.81391,0 1.32206,0.310059 0.50384,0.310058 0.50384,0.964626 v 2.657029 q 0,0.120578 0.0474,0.193786 0.0517,0.07321 0.21102,0.07321 0.0517,0 0.11627,-0.0043 0.0646,-0.0086 0.1378,-0.02153 v 0.572747 q -0.18087,0.05168 -0.27561,0.0646 -0.0947,0.01292 -0.25838,0.01292 -0.40049,0 -0.58136,-0.284221 -0.0947,-0.150723 -0.1335,-0.42633 -0.23685,0.310058 -0.6804,0.538296 -0.44356,0.228237 -0.97755,0.228237 -0.64165,0 -1.05075,-0.387573 -0.4048,-0.391879 -0.4048,-0.977545 0,-0.641649 0.40049,-0.994771 0.4005,-0.353122 1.05076,-0.434943 z M 196.28112,13.003 Z m 3.22977,-1.175638 h 0.78376 v 1.287604 h 0.73639 v 0.633036 h -0.73639 v 3.010151 q 0,0.241156 0.16364,0.322977 0.0904,0.04737 0.30145,0.04737 0.056,0 0.12058,0 0.0646,-0.0043 0.15072,-0.01292 v 0.611504 q -0.1335,0.03876 -0.27991,0.05598 -0.14211,0.01722 -0.31006,0.01722 -0.54261,0 -0.73639,-0.275607 -0.19379,-0.279914 -0.19379,-0.72347 v -3.053214 h -0.62442 v -0.633036 h 0.62442 z m 5.3399,4.672408 q 0,0.335897 0.24546,0.529684 0.24547,0.193786 0.58136,0.193786 0.40911,0 0.79238,-0.18948 0.64595,-0.314365 0.64595,-1.029222 v -0.624423 q -0.14211,0.09043 -0.36604,0.150723 -0.22393,0.06029 -0.43925,0.08613 l -0.46939,0.06029 q -0.42203,0.05598 -0.63304,0.176561 -0.35743,0.2024 -0.35743,0.645955 z m 1.87758,-1.567517 q 0.26699,-0.03445 0.35743,-0.223931 0.0517,-0.103353 0.0517,-0.29714 0,-0.396185 -0.28422,-0.572746 -0.27991,-0.180868 -0.80529,-0.180868 -0.6072,0 -0.86127,0.327284 -0.14211,0.180867 -0.18518,0.538296 h -0.72347 q 0.0215,-0.852661 0.55122,-1.184251 0.53399,-0.335897 1.23593,-0.335897 0.8139,0 1.32205,0.310059 0.50385,0.310058 0.50385,0.964626 v 2.657029 q 0,0.120578 0.0474,0.193786 0.0517,0.07321 0.21101,0.07321 0.0517,0 0.11627,-0.0043 0.0646,-0.0086 0.1378,-0.02153 v 0.572747 q -0.18086,0.05168 -0.2756,0.0646 -0.0947,0.01292 -0.25839,0.01292 -0.40049,0 -0.58135,-0.284221 -0.0947,-0.150723 -0.1335,-0.42633 -0.23685,0.310058 -0.68041,0.538296 -0.44355,0.228237 -0.97754,0.228237 -0.64165,0 -1.05076,-0.387573 -0.4048,-0.391879 -0.4048,-0.977545 0,-0.641649 0.4005,-0.994771 0.40049,-0.353122 1.05075,-0.434943 z M 206.08672,13.003 Z m 3.09628,0.111966 h 0.73639 v 0.796678 q 0.0904,-0.232544 0.44355,-0.564134 0.35312,-0.335897 0.81391,-0.335897 0.0215,0 0.0732,0.0043 0.0517,0.0043 0.17656,0.01723 v 0.81821 q -0.0689,-0.01292 -0.12919,-0.01723 -0.056,-0.0043 -0.12488,-0.0043 -0.58567,0 -0.90003,0.37896 -0.31437,0.374654 -0.31437,0.86558 v 2.652722 H 209.183 Z m 4.83604,-0.103353 q 0.49093,0 0.95171,0.232544 0.46078,0.228237 0.70194,0.594279 0.23254,0.348815 0.31005,0.813903 0.0689,0.318671 0.0689,1.016303 h -3.3805 q 0.0215,0.701937 0.33159,1.128268 0.31006,0.422024 0.96032,0.422024 0.6072,0 0.96893,-0.400492 0.20671,-0.232544 0.29283,-0.538296 h 0.76223 q -0.0301,0.254075 -0.2024,0.56844 -0.16795,0.310059 -0.37896,0.508152 -0.35312,0.344509 -0.87419,0.465087 -0.27992,0.0689 -0.63304,0.0689 -0.86127,0 -1.45986,-0.624423 -0.59858,-0.62873 -0.59858,-1.756998 0,-1.111043 0.60289,-1.804368 0.60289,-0.693325 1.57613,-0.693325 z m 1.23593,2.041218 q -0.0474,-0.503845 -0.21963,-0.805291 -0.31867,-0.559827 -1.06367,-0.559827 -0.53399,0 -0.89572,0.387573 -0.36174,0.383266 -0.38327,0.977545 z M 213.94583,13.003 Z"
         id="path12" />
      <path
         d="m 17.433389,27.304446 q 0.03445,0.387573 0.193786,0.594278 0.292833,0.374654 1.016303,0.374654 0.430637,0 0.757921,-0.185174 0.327284,-0.18948 0.327284,-0.581359 0,-0.297139 -0.262689,-0.452169 -0.167948,-0.09474 -0.66318,-0.219624 l -0.615811,-0.15503 q -0.589972,-0.146416 -0.869886,-0.327284 -0.499539,-0.314364 -0.499539,-0.869886 0,-0.654567 0.469394,-1.059366 0.473701,-0.404799 1.270379,-0.404799 1.042141,0 1.502922,0.611505 0.288526,0.387573 0.279914,0.835435 h -0.732083 q -0.02153,-0.262689 -0.185173,-0.478007 -0.266995,-0.305752 -0.925869,-0.305752 -0.43925,0 -0.667487,0.167948 -0.223931,0.167949 -0.223931,0.443556 0,0.301446 0.297139,0.482313 0.172255,0.107659 0.508151,0.18948 l 0.512458,0.124885 q 0.835435,0.202399 1.119655,0.391879 0.452169,0.29714 0.452169,0.934482 0,0.615811 -0.469394,1.063673 -0.465088,0.447862 -1.421101,0.447862 -1.029222,0 -1.459859,-0.465088 -0.42633,-0.469394 -0.456475,-1.158412 z M 18.578883,24.0273 Z m 2.958474,-1.175638 h 0.783759 v 1.287604 h 0.736388 v 0.633036 h -0.736388 v 3.01015 q 0,0.241157 0.163642,0.322978 0.09043,0.04737 0.301445,0.04737 0.05598,0 0.120579,0 0.0646,-0.0043 0.150722,-0.01292 v 0.611504 q -0.133497,0.03876 -0.279913,0.05598 -0.142111,0.01722 -0.310059,0.01722 -0.542602,0 -0.736389,-0.275607 -0.193786,-0.279914 -0.193786,-0.72347 v -3.053214 h -0.624423 v -0.633036 h 0.624423 z m 4.125499,5.400184 q 0.77084,0 1.05506,-0.581359 0.288527,-0.585666 0.288527,-1.300523 0,-0.645955 -0.206706,-1.050754 -0.327284,-0.637342 -1.128268,-0.637342 -0.710551,0 -1.033528,0.542602 -0.322978,0.542603 -0.322978,1.309136 0,0.736389 0.322978,1.227315 0.322977,0.490925 1.024915,0.490925 z m 0.03014,-4.246078 q 0.891418,0 1.507228,0.594279 0.615811,0.594279 0.615811,1.748385 0,1.115349 -0.542602,1.843125 -0.542603,0.727776 -1.68379,0.727776 -0.951707,0 -1.511535,-0.641648 -0.559828,-0.645955 -0.559828,-1.73116 0,-1.162719 0.589973,-1.851738 0.589972,-0.689019 1.584743,-0.689019 z m -0.02584,0.02153 z m 5.016917,4.203015 q 0.542602,0 0.900031,-0.452169 0.361735,-0.456475 0.361735,-1.360812 0,-0.551215 -0.159336,-0.947401 -0.301446,-0.762227 -1.10243,-0.762227 -0.80529,0 -1.10243,0.805291 -0.159335,0.430637 -0.159335,1.093817 0,0.53399 0.159335,0.908644 0.301446,0.714857 1.10243,0.714857 z m -2.006767,-4.069517 h 0.753614 v 0.611504 q 0.232544,-0.314365 0.508152,-0.48662 0.391879,-0.258382 0.921562,-0.258382 0.783759,0 1.330668,0.602892 0.546908,0.598585 0.546908,1.713934 0,1.507228 -0.788065,2.153183 -0.499538,0.409105 -1.162719,0.409105 -0.52107,0 -0.874193,-0.228237 -0.206705,-0.129191 -0.460781,-0.443556 v 2.355583 h -0.775146 z m 6.911719,4.069517 q 0.542603,0 0.900031,-0.452169 0.361735,-0.456475 0.361735,-1.360812 0,-0.551215 -0.159336,-0.947401 -0.301445,-0.762227 -1.10243,-0.762227 -0.80529,0 -1.10243,0.805291 -0.159335,0.430637 -0.159335,1.093817 0,0.53399 0.159335,0.908644 0.301446,0.714857 1.10243,0.714857 z m -2.006767,-4.069517 h 0.753614 v 0.611504 q 0.232544,-0.314365 0.508152,-0.48662 0.391879,-0.258382 0.921562,-0.258382 0.783759,0 1.330668,0.602892 0.546908,0.598585 0.546908,1.713934 0,1.507228 -0.788065,2.153183 -0.499538,0.409105 -1.162719,0.409105 -0.52107,0 -0.874192,-0.228237 -0.206706,-0.129191 -0.460782,-0.443556 v 2.355583 h -0.775146 z m 4.965242,0 h 0.788065 v 4.590587 h -0.788065 z m 0,-1.735466 h 0.788065 v 0.878499 h -0.788065 z m 1.959397,1.713934 h 0.736388 v 0.654568 q 0.327284,-0.404799 0.693326,-0.58136 0.366041,-0.176561 0.813903,-0.176561 0.981852,0 1.326361,0.684712 0.18948,0.374654 0.18948,1.072286 v 2.958474 h -0.788065 v -2.906798 q 0,-0.422024 -0.124885,-0.680406 -0.206705,-0.430637 -0.749308,-0.430637 -0.275607,0 -0.452168,0.05598 -0.318671,0.09474 -0.559828,0.378961 -0.193786,0.228237 -0.254075,0.4737 -0.05598,0.241156 -0.05598,0.693325 v 2.415872 H 40.506904 Z M 42.328497,24.0273 Z m 4.711165,0.03015 q 0.542602,0 0.9474,0.266995 0.219625,0.150722 0.447862,0.439249 v -0.58136 h 0.714857 v 4.194402 q 0,0.878499 -0.258382,1.38665 -0.482313,0.938788 -1.821593,0.938788 -0.745001,0 -1.253153,-0.335896 -0.508151,-0.331591 -0.56844,-1.042141 h 0.788065 q 0.05598,0.310058 0.223931,0.478007 0.262688,0.258382 0.826823,0.258382 0.891418,0 1.167025,-0.62873 0.163642,-0.370348 0.150723,-1.322055 -0.232544,0.353122 -0.559828,0.525377 -0.327284,0.172255 -0.86558,0.172255 -0.749307,0 -1.313442,-0.529683 -0.559827,-0.53399 -0.559827,-1.761305 0,-1.158412 0.564134,-1.808674 0.56844,-0.650261 1.369425,-0.650261 z m 1.395262,2.368502 q 0,-0.856967 -0.353122,-1.270379 -0.353122,-0.413411 -0.90003,-0.413411 -0.81821,0 -1.119656,0.766534 -0.159335,0.409104 -0.159335,1.072285 0,0.779452 0.314364,1.188557 0.318672,0.404799 0.852661,0.404799 0.835435,0 1.175638,-0.753614 0.18948,-0.426331 0.18948,-0.994771 z M 47.130095,24.0273 Z m 8.517994,0.111966 h 0.856967 q -0.163642,0.443556 -0.727776,2.023992 -0.422024,1.188558 -0.706245,1.937866 -0.671793,1.76561 -0.9474,2.153183 -0.275608,0.387573 -0.947401,0.387573 -0.163642,0 -0.254076,-0.01292 -0.08613,-0.01292 -0.215318,-0.04737 v -0.706244 q 0.202399,0.05598 0.292833,0.0689 0.09043,0.01292 0.159335,0.01292 0.215319,0 0.314365,-0.07321 0.103353,-0.0689 0.172255,-0.172255 0.02153,-0.03445 0.155029,-0.353122 0.133497,-0.318671 0.193787,-0.473701 l -1.705322,-4.745616 h 0.878499 l 1.235927,3.755152 z M 54.399242,24.0273 Z m 4.607814,4.224546 q 0.77084,0 1.05506,-0.581359 0.288527,-0.585666 0.288527,-1.300523 0,-0.645955 -0.206706,-1.050754 -0.327284,-0.637342 -1.128268,-0.637342 -0.71055,0 -1.033528,0.542602 -0.322978,0.542603 -0.322978,1.309136 0,0.736389 0.322978,1.227315 0.322978,0.490925 1.024915,0.490925 z m 0.03015,-4.246078 q 0.891418,0 1.507228,0.594279 0.615811,0.594279 0.615811,1.748385 0,1.115349 -0.542602,1.843125 -0.542603,0.727776 -1.68379,0.727776 -0.951707,0 -1.511535,-0.641648 -0.559827,-0.645955 -0.559827,-1.73116 0,-1.162719 0.589972,-1.851738 0.589972,-0.689019 1.584743,-0.689019 z m -0.02584,0.02153 z m 3.845586,0.111966 v 3.061827 q 0,0.353122 0.111966,0.577053 0.206706,0.413411 0.77084,0.413411 0.809597,0 1.10243,-0.723469 0.159335,-0.387573 0.159335,-1.063673 v -2.265149 h 0.775146 v 4.612119 h -0.732082 l 0.0086,-0.680406 q -0.150723,0.262688 -0.374654,0.443556 -0.443556,0.361735 -1.076592,0.361735 -0.986158,0 -1.343587,-0.658875 -0.193786,-0.353122 -0.193786,-0.943094 V 24.139266 Z M 63.920622,24.0273 Z m 5.710242,-0.589972 q 0.01723,-0.482313 0.167948,-0.706244 0.271302,-0.396186 1.046448,-0.396186 0.07321,0 0.150722,0.0043 0.07752,0.0043 0.176562,0.01292 v 0.706245 q -0.120579,-0.0086 -0.176562,-0.0086 -0.05168,-0.0043 -0.09905,-0.0043 -0.353122,0 -0.422024,0.185173 -0.0689,0.180868 -0.0689,0.930176 h 0.766534 v 0.611504 h -0.775147 v 3.979083 h -0.766533 v -3.979083 h -0.641649 v -0.611504 h 0.641649 z m 2.278067,0.701938 h 0.736388 v 0.796678 q 0.09043,-0.232544 0.443556,-0.564134 0.353122,-0.335897 0.813904,-0.335897 0.02153,0 0.07321,0.0043 0.05168,0.0043 0.176561,0.01723 v 0.81821 q -0.0689,-0.01292 -0.129191,-0.01723 -0.05598,-0.0043 -0.124885,-0.0043 -0.585666,0 -0.900031,0.37896 -0.314364,0.374654 -0.314364,0.86558 v 2.652722 h -0.775146 z m 4.745617,4.11258 q 0.77084,0 1.05506,-0.581359 0.288526,-0.585666 0.288526,-1.300523 0,-0.645955 -0.206705,-1.050754 -0.327284,-0.637342 -1.128268,-0.637342 -0.710551,0 -1.033529,0.542602 -0.322977,0.542603 -0.322977,1.309136 0,0.736389 0.322977,1.227315 0.322978,0.490925 1.024916,0.490925 z m 0.03014,-4.246078 q 0.891418,0 1.507229,0.594279 0.61581,0.594279 0.61581,1.748385 0,1.115349 -0.542602,1.843125 -0.542602,0.727776 -1.683789,0.727776 -0.951708,0 -1.511535,-0.641648 -0.559828,-0.645955 -0.559828,-1.73116 0,-1.162719 0.589972,-1.851738 0.589973,-0.689019 1.584743,-0.689019 z m -0.02584,0.02153 z m 3.070441,0.111966 h 0.766533 v 0.654568 q 0.275608,-0.340203 0.499539,-0.495233 0.383266,-0.262688 0.869886,-0.262688 0.551215,0 0.887112,0.271301 0.18948,0.155029 0.344509,0.456475 0.258382,-0.370348 0.607198,-0.546909 0.348815,-0.180867 0.783758,-0.180867 0.930176,0 1.266072,0.671793 0.180868,0.361735 0.180868,0.973239 v 3.07044 h -0.805291 v -3.203937 q 0,-0.460781 -0.232544,-0.633036 -0.228237,-0.172255 -0.559827,-0.172255 -0.456475,0 -0.788066,0.305752 -0.327283,0.305752 -0.327283,1.020609 v 2.682867 h -0.788066 v -3.010151 q 0,-0.469394 -0.111965,-0.684712 -0.176561,-0.322978 -0.658874,-0.322978 -0.43925,0 -0.800985,0.340203 -0.357428,0.340203 -0.357428,1.231621 v 2.446017 H 79.729295 Z M 91.30481,24.005768 q 0.779453,0 1.266072,0.378961 0.490926,0.37896 0.589972,1.304829 H 92.40724 q -0.0689,-0.42633 -0.314365,-0.706244 -0.245463,-0.28422 -0.788065,-0.28422 -0.740695,0 -1.059366,0.723469 -0.206706,0.469394 -0.206706,1.158413 0,0.693325 0.292833,1.167025 0.292833,0.473701 0.921563,0.473701 0.482313,0 0.762227,-0.292833 0.28422,-0.297139 0.391879,-0.809597 h 0.753614 q -0.129191,0.917256 -0.645955,1.343586 -0.516764,0.422024 -1.322054,0.422024 -0.904338,0 -1.442633,-0.658874 -0.538296,-0.66318 -0.538296,-1.653645 0,-1.214395 0.589972,-1.890495 0.589972,-0.6761 1.502922,-0.6761 z m -0.120578,0.02153 z m 2.773302,0.111966 h 0.736388 v 0.796678 q 0.09043,-0.232544 0.443556,-0.564134 0.353122,-0.335897 0.813904,-0.335897 0.02153,0 0.07321,0.0043 0.05168,0.0043 0.176561,0.01723 v 0.81821 q -0.0689,-0.01292 -0.129191,-0.01723 -0.05598,-0.0043 -0.124885,-0.0043 -0.585666,0 -0.90003,0.37896 -0.314365,0.374654 -0.314365,0.86558 v 2.652722 h -0.775146 z m 4.836051,-0.103353 q 0.490925,0 0.951707,0.232544 0.460778,0.228237 0.701938,0.594278 0.23254,0.348816 0.31006,0.813904 0.0689,0.318671 0.0689,1.016302 h -3.380498 q 0.02153,0.701938 0.33159,1.128269 0.310058,0.422024 0.96032,0.422024 0.607198,0 0.968932,-0.400492 0.206706,-0.232544 0.292833,-0.538296 h 0.762223 q -0.0301,0.254075 -0.20239,0.56844 -0.16795,0.310059 -0.37897,0.508151 -0.353117,0.34451 -0.874188,0.465088 -0.279914,0.0689 -0.633036,0.0689 -0.861273,0 -1.459858,-0.624423 -0.598585,-0.62873 -0.598585,-1.756998 0,-1.111043 0.602891,-1.804368 0.602892,-0.693325 1.576131,-0.693325 z m 1.235925,2.041218 q -0.04737,-0.503845 -0.219623,-0.805291 -0.318671,-0.559827 -1.063672,-0.559827 -0.53399,0 -0.895725,0.387573 -0.361735,0.383266 -0.383266,0.977545 z M 98.720376,24.0273 Z m 3.651804,3.49677 q 0,0.335897 0.24546,0.529683 0.24546,0.193787 0.58136,0.193787 0.4091,0 0.79237,-0.18948 0.64596,-0.314365 0.64596,-1.029222 v -0.624423 q -0.14211,0.09043 -0.36605,0.150723 -0.22393,0.06029 -0.43925,0.08613 l -0.46939,0.06029 q -0.42202,0.05598 -0.63304,0.176561 -0.35742,0.2024 -0.35742,0.645955 z m 1.87757,-1.567517 q 0.267,-0.03445 0.35743,-0.223931 0.0517,-0.103353 0.0517,-0.29714 0,-0.396185 -0.28422,-0.572747 -0.27992,-0.180867 -0.80529,-0.180867 -0.6072,0 -0.86128,0.327284 -0.14211,0.180867 -0.18517,0.538296 h -0.72347 q 0.0215,-0.852661 0.55121,-1.184251 0.53399,-0.335897 1.23593,-0.335897 0.81391,0 1.32206,0.310059 0.50384,0.310058 0.50384,0.964626 v 2.657028 q 0,0.120579 0.0474,0.193787 0.0517,0.07321 0.21101,0.07321 0.0517,0 0.11628,-0.0043 0.0646,-0.0086 0.1378,-0.02153 v 0.572747 q -0.18087,0.05168 -0.27561,0.0646 -0.0947,0.01292 -0.25838,0.01292 -0.40049,0 -0.58136,-0.28422 -0.0947,-0.150723 -0.1335,-0.42633 -0.23685,0.310058 -0.6804,0.538296 -0.44356,0.228237 -0.97755,0.228237 -0.64165,0 -1.05075,-0.387573 -0.4048,-0.391879 -0.4048,-0.977545 0,-0.641649 0.40049,-0.994771 0.40049,-0.353122 1.05076,-0.434943 z M 103.6081,24.0273 Z m 3.22977,-1.175638 h 0.78376 v 1.287604 h 0.73639 v 0.633036 h -0.73639 v 3.01015 q 0,0.241157 0.16364,0.322978 0.0904,0.04737 0.30145,0.04737 0.056,0 0.12058,0 0.0646,-0.0043 0.15072,-0.01292 v 0.611504 q -0.1335,0.03876 -0.27991,0.05598 -0.14211,0.01722 -0.31006,0.01722 -0.5426,0 -0.73639,-0.275607 -0.19379,-0.279914 -0.19379,-0.72347 v -3.053214 h -0.62442 v -0.633036 h 0.62442 z m 2.2953,1.309136 h 0.78806 v 4.590587 h -0.78806 z m 0,-1.735466 h 0.78806 v 0.878499 h -0.78806 z m 1.95939,1.713934 h 0.73639 v 0.654568 q 0.32729,-0.404799 0.69333,-0.58136 0.36604,-0.176561 0.8139,-0.176561 0.98185,0 1.32636,0.684712 0.18948,0.374654 0.18948,1.072286 v 2.958474 h -0.78806 v -2.906798 q 0,-0.422024 -0.12489,-0.680406 -0.2067,-0.430637 -0.7493,-0.430637 -0.27561,0 -0.45217,0.05598 -0.31867,0.09474 -0.55983,0.378961 -0.19379,0.228237 -0.25408,0.4737 -0.056,0.241156 -0.056,0.693325 v 2.415872 h -0.77515 z m 1.8216,-0.111966 z m 4.71116,0.03015 q 0.54261,0 0.94741,0.266995 0.21962,0.150722 0.44786,0.439249 v -0.58136 h 0.71485 v 4.194402 q 0,0.878499 -0.25838,1.38665 -0.48231,0.938788 -1.82159,0.938788 -0.745,0 -1.25315,-0.335896 -0.50816,-0.331591 -0.56844,-1.042141 h 0.78806 q 0.056,0.310058 0.22393,0.478007 0.26269,0.258382 0.82682,0.258382 0.89142,0 1.16703,-0.62873 0.16364,-0.370348 0.15072,-1.322055 -0.23254,0.353122 -0.55982,0.525377 -0.32729,0.172255 -0.86558,0.172255 -0.74931,0 -1.31345,-0.529683 -0.55982,-0.53399 -0.55982,-1.761305 0,-1.158412 0.56413,-1.808674 0.56844,-0.650261 1.36942,-0.650261 z m 1.39527,2.368502 q 0,-0.856967 -0.35312,-1.270379 -0.35313,-0.413411 -0.90004,-0.413411 -0.81821,0 -1.11965,0.766534 -0.15934,0.409104 -0.15934,1.072285 0,0.779452 0.31437,1.188557 0.31867,0.404799 0.85266,0.404799 0.83543,0 1.17564,-0.753614 0.18948,-0.426331 0.18948,-0.994771 z M 117.71576,24.0273 Z m 5.79206,-1.175638 h 0.78376 v 1.287604 h 0.73639 v 0.633036 h -0.73639 v 3.01015 q 0,0.241157 0.16365,0.322978 0.0904,0.04737 0.30144,0.04737 0.056,0 0.12058,0 0.0646,-0.0043 0.15072,-0.01292 v 0.611504 q -0.13349,0.03876 -0.27991,0.05598 -0.14211,0.01722 -0.31006,0.01722 -0.5426,0 -0.73639,-0.275607 -0.19379,-0.279914 -0.19379,-0.72347 v -3.053214 h -0.62442 v -0.633036 h 0.62442 z m 2.29529,-0.447862 h 0.77515 v 2.359889 q 0.27561,-0.348816 0.49523,-0.490926 0.37466,-0.245463 0.93448,-0.245463 1.00339,0 1.36081,0.701938 0.19379,0.383267 0.19379,1.063673 v 2.958474 h -0.79668 v -2.906798 q 0,-0.508151 -0.12919,-0.745001 -0.21101,-0.378961 -0.79237,-0.378961 -0.48231,0 -0.87419,0.331591 -0.39188,0.33159 -0.39188,1.253152 v 2.446017 h -0.77515 z m 6.8256,1.632113 q 0.49092,0 0.9517,0.232544 0.46078,0.228237 0.70194,0.594278 0.23254,0.348816 0.31006,0.813904 0.0689,0.318671 0.0689,1.016302 h -3.3805 q 0.0215,0.701938 0.33159,1.128269 0.31006,0.422024 0.96032,0.422024 0.6072,0 0.96894,-0.400492 0.2067,-0.232544 0.29283,-0.538296 h 0.76223 q -0.0301,0.254075 -0.2024,0.56844 -0.16795,0.310059 -0.37896,0.508151 -0.35313,0.34451 -0.8742,0.465088 -0.27991,0.0689 -0.63303,0.0689 -0.86128,0 -1.45986,-0.624423 -0.59859,-0.62873 -0.59859,-1.756998 0,-1.111043 0.6029,-1.804368 0.60289,-0.693325 1.57613,-0.693325 z m 1.23592,2.041218 q -0.0474,-0.503845 -0.21962,-0.805291 -0.31867,-0.559827 -1.06367,-0.559827 -0.53399,0 -0.89573,0.387573 -0.36173,0.383266 -0.38327,0.977545 z M 132.5555,24.0273 Z m 5.52938,-1.601968 h 0.77514 v 6.326053 h -0.77514 z m 1.93786,1.735466 h 0.78807 v 4.590587 h -0.78807 z m 0,-1.735466 h 0.78807 v 0.878499 h -0.78807 z m 2.15318,1.011996 q 0.0172,-0.482313 0.16795,-0.706244 0.2713,-0.396186 1.04645,-0.396186 0.0732,0 0.15072,0.0043 0.0775,0.0043 0.17656,0.01292 v 0.706245 q -0.12058,-0.0086 -0.17656,-0.0086 -0.0517,-0.0043 -0.099,-0.0043 -0.35313,0 -0.42203,0.185173 -0.0689,0.180868 -0.0689,0.930176 h 0.76653 v 0.611504 h -0.77514 v 3.979083 h -0.76654 v -3.979083 h -0.64165 v -0.611504 h 0.64165 z m 4.17718,0.598585 q 0.49093,0 0.95171,0.232544 0.46078,0.228237 0.70194,0.594278 0.23254,0.348816 0.31005,0.813904 0.0689,0.318671 0.0689,1.016302 h -3.3805 q 0.0215,0.701938 0.33159,1.128269 0.31006,0.422024 0.96032,0.422024 0.6072,0 0.96893,-0.400492 0.20671,-0.232544 0.29283,-0.538296 h 0.76223 q -0.0301,0.254075 -0.2024,0.56844 -0.16795,0.310059 -0.37896,0.508151 -0.35312,0.34451 -0.87419,0.465088 -0.27991,0.0689 -0.63304,0.0689 -0.86127,0 -1.45986,-0.624423 -0.59858,-0.62873 -0.59858,-1.756998 0,-1.111043 0.60289,-1.804368 0.60289,-0.693325 1.57613,-0.693325 z m 1.23593,2.041218 q -0.0474,-0.503845 -0.21963,-0.805291 -0.31867,-0.559827 -1.06367,-0.559827 -0.53399,0 -0.89572,0.387573 -0.36174,0.383266 -0.38327,0.977545 z M 146.27989,24.0273 Z m 5.66287,-1.175638 h 0.78376 v 1.287604 h 0.73639 v 0.633036 h -0.73639 v 3.01015 q 0,0.241157 0.16364,0.322978 0.0904,0.04737 0.30145,0.04737 0.056,0 0.12058,0 0.0646,-0.0043 0.15072,-0.01292 v 0.611504 q -0.1335,0.03876 -0.27991,0.05598 -0.14212,0.01722 -0.31006,0.01722 -0.54261,0 -0.73639,-0.275607 -0.19379,-0.279914 -0.19379,-0.72347 v -3.053214 h -0.62442 v -0.633036 h 0.62442 z m 2.2953,-0.447862 h 0.77515 v 2.359889 q 0.27561,-0.348816 0.49523,-0.490926 0.37466,-0.245463 0.93448,-0.245463 1.00339,0 1.36082,0.701938 0.19378,0.383267 0.19378,1.063673 v 2.958474 h -0.79667 v -2.906798 q 0,-0.508151 -0.1292,-0.745001 -0.21101,-0.378961 -0.79237,-0.378961 -0.48231,0 -0.87419,0.331591 -0.39188,0.33159 -0.39188,1.253152 v 2.446017 h -0.77515 z m 5.49924,5.12027 q 0,0.335897 0.24546,0.529683 0.24546,0.193787 0.58136,0.193787 0.4091,0 0.79237,-0.18948 0.64596,-0.314365 0.64596,-1.029222 v -0.624423 q -0.14211,0.09043 -0.36605,0.150723 -0.22393,0.06029 -0.43925,0.08613 l -0.46939,0.06029 q -0.42202,0.05598 -0.63304,0.176561 -0.35742,0.2024 -0.35742,0.645955 z m 1.87757,-1.567517 q 0.267,-0.03445 0.35743,-0.223931 0.0517,-0.103353 0.0517,-0.29714 0,-0.396185 -0.28422,-0.572747 -0.27992,-0.180867 -0.80529,-0.180867 -0.6072,0 -0.86128,0.327284 -0.14211,0.180867 -0.18517,0.538296 h -0.72347 q 0.0215,-0.852661 0.55121,-1.184251 0.53399,-0.335897 1.23593,-0.335897 0.81391,0 1.32206,0.310059 0.50384,0.310058 0.50384,0.964626 v 2.657028 q 0,0.120579 0.0474,0.193787 0.0517,0.07321 0.21101,0.07321 0.0517,0 0.11628,-0.0043 0.0646,-0.0086 0.1378,-0.02153 v 0.572747 q -0.18087,0.05168 -0.27561,0.0646 -0.0947,0.01292 -0.25838,0.01292 -0.40049,0 -0.58136,-0.28422 -0.0947,-0.150723 -0.1335,-0.42633 -0.23685,0.310058 -0.6804,0.538296 -0.44356,0.228237 -0.97755,0.228237 -0.64165,0 -1.05075,-0.387573 -0.4048,-0.391879 -0.4048,-0.977545 0,-0.641649 0.40049,-0.994771 0.40049,-0.353122 1.05076,-0.434943 z M 160.97322,24.0273 Z m 3.22976,-1.175638 h 0.78376 v 1.287604 h 0.73639 v 0.633036 h -0.73639 v 3.01015 q 0,0.241157 0.16365,0.322978 0.0904,0.04737 0.30144,0.04737 0.056,0 0.12058,0 0.0646,-0.0043 0.15072,-0.01292 v 0.611504 q -0.1335,0.03876 -0.27991,0.05598 -0.14211,0.01722 -0.31006,0.01722 -0.5426,0 -0.73639,-0.275607 -0.19379,-0.279914 -0.19379,-0.72347 v -3.053214 h -0.62442 v -0.633036 h 0.62442 z m 7.62659,1.287604 h 0.85696 q -0.16364,0.443556 -0.72777,2.023992 -0.42203,1.188558 -0.70625,1.937866 -0.67179,1.76561 -0.9474,2.153183 -0.27561,0.387573 -0.9474,0.387573 -0.16364,0 -0.25408,-0.01292 -0.0861,-0.01292 -0.21531,-0.04737 v -0.706244 q 0.2024,0.05598 0.29283,0.0689 0.0904,0.01292 0.15933,0.01292 0.21532,0 0.31437,-0.07321 0.10335,-0.0689 0.17225,-0.172255 0.0215,-0.03445 0.15503,-0.353122 0.1335,-0.318671 0.19379,-0.473701 l -1.70532,-4.745616 h 0.8785 l 1.23593,3.755152 z M 170.58072,24.0273 Z m 4.60782,4.224546 q 0.77084,0 1.05506,-0.581359 0.28853,-0.585666 0.28853,-1.300523 0,-0.645955 -0.20671,-1.050754 -0.32728,-0.637342 -1.12827,-0.637342 -0.71055,0 -1.03352,0.542602 -0.32298,0.542603 -0.32298,1.309136 0,0.736389 0.32298,1.227315 0.32297,0.490925 1.02491,0.490925 z m 0.0302,-4.246078 q 0.89141,0 1.50722,0.594279 0.61581,0.594279 0.61581,1.748385 0,1.115349 -0.5426,1.843125 -0.5426,0.727776 -1.68379,0.727776 -0.9517,0 -1.51153,-0.641648 -0.55983,-0.645955 -0.55983,-1.73116 0,-1.162719 0.58997,-1.851738 0.58997,-0.689019 1.58475,-0.689019 z m -0.0258,0.02153 z m 3.84558,0.111966 v 3.061827 q 0,0.353122 0.11197,0.577053 0.2067,0.413411 0.77084,0.413411 0.8096,0 1.10243,-0.723469 0.15933,-0.387573 0.15933,-1.063673 v -2.265149 h 0.77515 v 4.612119 h -0.73208 l 0.009,-0.680406 q -0.15072,0.262688 -0.37465,0.443556 -0.44356,0.361735 -1.07659,0.361735 -0.98616,0 -1.34359,-0.658875 -0.19379,-0.353122 -0.19379,-0.943094 v -3.135035 z m 1.06368,-0.111966 z m 6.00737,2.471855 q 0,0.740695 0.31437,1.240234 0.31436,0.499538 1.00769,0.499538 0.53829,0 0.8828,-0.460781 0.34882,-0.465088 0.34882,-1.330667 0,-0.874193 -0.35743,-1.291911 -0.35743,-0.422024 -0.8828,-0.422024 -0.58567,0 -0.95171,0.447863 -0.36174,0.447862 -0.36174,1.317748 z m 1.16703,-2.44171 q 0.52968,0 0.88711,0.223931 0.20671,0.129191 0.46939,0.452168 V 22.4038 h 0.74501 v 6.347585 h -0.69764 v -0.641649 q -0.2713,0.426331 -0.64164,0.615811 -0.37035,0.18948 -0.84836,0.18948 -0.77084,0 -1.33497,-0.645955 -0.56414,-0.650262 -0.56414,-1.726853 0,-1.00769 0.51246,-1.744079 0.51677,-0.740695 1.47278,-0.740695 z m 3.26853,0.08182 h 0.73639 v 0.796678 q 0.0904,-0.232544 0.44356,-0.564134 0.35312,-0.335897 0.8139,-0.335897 0.0215,0 0.0732,0.0043 0.0517,0.0043 0.17656,0.01723 v 0.81821 q -0.0689,-0.01292 -0.12919,-0.01723 -0.056,-0.0043 -0.12489,-0.0043 -0.58566,0 -0.90003,0.37896 -0.31436,0.374654 -0.31436,0.86558 v 2.652722 h -0.77515 z m 4.83605,-0.103353 q 0.49092,0 0.9517,0.232544 0.46078,0.228237 0.70194,0.594278 0.23254,0.348816 0.31006,0.813904 0.0689,0.318671 0.0689,1.016302 h -3.3805 q 0.0215,0.701938 0.33159,1.128269 0.31006,0.422024 0.96032,0.422024 0.6072,0 0.96894,-0.400492 0.2067,-0.232544 0.29283,-0.538296 h 0.76223 q -0.0301,0.254075 -0.2024,0.56844 -0.16795,0.310059 -0.37896,0.508151 -0.35313,0.34451 -0.8742,0.465088 -0.27991,0.0689 -0.63303,0.0689 -0.86128,0 -1.45986,-0.624423 -0.59859,-0.62873 -0.59859,-1.756998 0,-1.111043 0.6029,-1.804368 0.60289,-0.693325 1.57613,-0.693325 z m 1.23592,2.041218 q -0.0474,-0.503845 -0.21962,-0.805291 -0.31867,-0.559827 -1.06367,-0.559827 -0.53399,0 -0.89573,0.387573 -0.36173,0.383266 -0.38326,0.977545 z M 195.30788,24.0273 Z m 3.6518,3.49677 q 0,0.335897 0.24546,0.529683 0.24546,0.193787 0.58136,0.193787 0.40911,0 0.79237,-0.18948 0.64596,-0.314365 0.64596,-1.029222 v -0.624423 q -0.14211,0.09043 -0.36604,0.150723 -0.22394,0.06029 -0.43925,0.08613 l -0.4694,0.06029 q -0.42202,0.05598 -0.63303,0.176561 -0.35743,0.2024 -0.35743,0.645955 z m 1.87757,-1.567517 q 0.267,-0.03445 0.35743,-0.223931 0.0517,-0.103353 0.0517,-0.29714 0,-0.396185 -0.28422,-0.572747 -0.27992,-0.180867 -0.80529,-0.180867 -0.6072,0 -0.86128,0.327284 -0.14211,0.180867 -0.18517,0.538296 h -0.72347 q 0.0215,-0.852661 0.55122,-1.184251 0.53399,-0.335897 1.23592,-0.335897 0.81391,0 1.32206,0.310059 0.50384,0.310058 0.50384,0.964626 v 2.657028 q 0,0.120579 0.0474,0.193787 0.0517,0.07321 0.21102,0.07321 0.0517,0 0.11627,-0.0043 0.0646,-0.0086 0.1378,-0.02153 v 0.572747 q -0.18087,0.05168 -0.27561,0.0646 -0.0947,0.01292 -0.25838,0.01292 -0.40049,0 -0.58136,-0.28422 -0.0947,-0.150723 -0.1335,-0.42633 -0.23685,0.310058 -0.6804,0.538296 -0.44356,0.228237 -0.97755,0.228237 -0.64165,0 -1.05075,-0.387573 -0.4048,-0.391879 -0.4048,-0.977545 0,-0.641649 0.40049,-0.994771 0.4005,-0.353122 1.05076,-0.434943 z M 200.19561,24.0273 Z m 3.07474,0.111966 h 0.76654 v 0.654568 q 0.2756,-0.340203 0.49953,-0.495233 0.38327,-0.262688 0.86989,-0.262688 0.55122,0 0.88711,0.271301 0.18948,0.155029 0.34451,0.456475 0.25838,-0.370348 0.6072,-0.546909 0.34881,-0.180867 0.78376,-0.180867 0.93017,0 1.26607,0.671793 0.18087,0.361735 0.18087,0.973239 v 3.07044 h -0.80529 v -3.203937 q 0,-0.460781 -0.23255,-0.633036 -0.22823,-0.172255 -0.55982,-0.172255 -0.45648,0 -0.78807,0.305752 -0.32728,0.305752 -0.32728,1.020609 v 2.682867 h -0.78807 v -3.010151 q 0,-0.469394 -0.11196,-0.684712 -0.17657,-0.322978 -0.65888,-0.322978 -0.43925,0 -0.80098,0.340203 -0.35743,0.340203 -0.35743,1.231621 v 2.446017 h -0.77515 z m 11.62719,4.11258 q 0.77084,0 1.05506,-0.581359 0.28853,-0.585666 0.28853,-1.300523 0,-0.645955 -0.20671,-1.050754 -0.32728,-0.637342 -1.12827,-0.637342 -0.71055,0 -1.03353,0.542602 -0.32297,0.542603 -0.32297,1.309136 0,0.736389 0.32297,1.227315 0.32298,0.490925 1.02492,0.490925 z m 0.0301,-4.246078 q 0.89142,0 1.50723,0.594279 0.61581,0.594279 0.61581,1.748385 0,1.115349 -0.5426,1.843125 -0.5426,0.727776 -1.68379,0.727776 -0.95171,0 -1.51153,-0.641648 -0.55983,-0.645955 -0.55983,-1.73116 0,-1.162719 0.58997,-1.851738 0.58997,-0.689019 1.58474,-0.689019 z m -0.0258,0.02153 z m 3.26422,-0.589972 q 0.0172,-0.482313 0.16795,-0.706244 0.2713,-0.396186 1.04645,-0.396186 0.0732,0 0.15072,0.0043 0.0775,0.0043 0.17656,0.01292 v 0.706245 q -0.12058,-0.0086 -0.17656,-0.0086 -0.0517,-0.0043 -0.099,-0.0043 -0.35313,0 -0.42203,0.185173 -0.0689,0.180868 -0.0689,0.930176 h 0.76653 v 0.611504 h -0.77514 v 3.979083 h -0.76654 v -3.979083 h -0.64164 v -0.611504 h 0.64164 z m 2.44172,4.375269 h 0.90003 v 0.938788 h -0.90003 z"
         id="path13" />
    </g>
    <g
       id="text1-1"
       style="font-size:8.81944px;font-family:Helvetica;-inkscape-font-specification:'Helvetica, Normal';fill:#1a1a1a;stroke-width:0"
       aria-label="My secret for your success?&#10;Clinical Emotional Freedom Techniques (EFT)*.">
      <path
         style="font-weight:bold;-inkscape-font-specification:'Helvetica Bold';text-align:center;text-anchor:middle"
         d="m 59.659301,46.633156 h -1.235927 v -6.347585 h 1.929252 l 1.154107,4.991079 1.145493,-4.991079 h 1.907721 v 6.347585 h -1.235928 v -4.293448 q 0,-0.185174 0.0043,-0.516764 0.0043,-0.335897 0.0043,-0.516764 l -1.201476,5.326976 H 60.843552 L 59.650688,41.30618 q 0,0.180867 0.0043,0.516764 0.0043,0.33159 0.0043,0.516764 z m 7.940941,-1.231621 0.968933,-3.462319 h 1.304829 l -1.610581,4.616425 q -0.465088,1.334974 -0.736389,1.653645 -0.271301,0.322978 -1.085205,0.322978 -0.163641,0 -0.262688,-0.0043 -0.09905,0 -0.297139,-0.01292 v -0.981851 l 0.155029,0.0086 q 0.180867,0.0086 0.344509,-0.01292 0.163642,-0.02153 0.275608,-0.09905 0.107659,-0.07321 0.198093,-0.305752 0.09474,-0.232544 0.07751,-0.284221 l -1.722547,-4.900645 h 1.365119 z m 8.681636,-3.247001 q 0.551215,0.353122 0.633036,1.214396 H 75.6876 q -0.02584,-0.236851 -0.133498,-0.374654 -0.202399,-0.24977 -0.689018,-0.24977 -0.400492,0 -0.572747,0.124885 -0.167948,0.124885 -0.167948,0.292833 0,0.211012 0.180867,0.305752 0.180867,0.09905 1.278991,0.340203 0.732082,0.172255 1.098124,0.52107 0.361734,0.353123 0.361734,0.882806 0,0.697631 -0.52107,1.141187 -0.516764,0.439249 -1.601969,0.439249 -1.106736,0 -1.636419,-0.465087 Q 72.75927,45.85801 72.75927,45.13454 h 1.24454 q 0.03876,0.327284 0.167949,0.465088 0.228237,0.245463 0.844048,0.245463 0.361734,0 0.572746,-0.10766 0.215319,-0.107659 0.215319,-0.322977 0,-0.206706 -0.172255,-0.314365 -0.172255,-0.107659 -1.278991,-0.370347 -0.796678,-0.198093 -1.123962,-0.495233 -0.327284,-0.292833 -0.327284,-0.844048 0,-0.650261 0.508152,-1.115349 0.512457,-0.469394 1.438326,-0.469394 0.878499,0 1.43402,0.348816 z m 5.688711,3.100584 q -0.04737,0.417718 -0.434943,0.848355 -0.602891,0.684712 -1.688096,0.684712 -0.895724,0 -1.580436,-0.577053 -0.684713,-0.577053 -0.684713,-1.877576 0,-1.218702 0.615811,-1.868964 0.620117,-0.650261 1.606275,-0.650261 0.585666,0 1.05506,0.219625 0.469394,0.219624 0.775146,0.693325 0.275607,0.417717 0.357428,0.968932 0.04737,0.322978 0.03876,0.930176 h -3.212549 q 0.02584,0.706244 0.443555,0.990464 0.254076,0.176561 0.611505,0.176561 0.37896,0 0.61581,-0.215318 0.129191,-0.116272 0.228237,-0.322978 z m -1.214395,-1.438326 q -0.03014,-0.48662 -0.29714,-0.736389 -0.262688,-0.254076 -0.654567,-0.254076 -0.426331,0 -0.663181,0.266995 -0.232544,0.266995 -0.292833,0.72347 z m 6.16241,-0.193787 h -1.257459 q -0.03445,-0.262688 -0.176561,-0.4737 -0.206706,-0.28422 -0.641649,-0.28422 -0.620117,0 -0.848354,0.61581 -0.120578,0.327284 -0.120578,0.869886 0,0.516764 0.120578,0.831129 0.219625,0.585666 0.826822,0.585666 0.430637,0 0.611504,-0.232544 0.180868,-0.232544 0.219625,-0.602891 h 1.253153 q -0.04306,0.559828 -0.404799,1.059366 -0.577053,0.805291 -1.709627,0.805291 -1.132575,0 -1.666564,-0.671793 -0.53399,-0.671794 -0.53399,-1.744079 0,-1.210089 0.589972,-1.881883 0.589973,-0.671793 1.627807,-0.671793 0.882805,0 1.442633,0.396186 0.564134,0.396186 0.667487,1.399569 z m 3.203938,-0.551215 q -0.740695,0 -0.994771,0.482313 -0.14211,0.271301 -0.14211,0.835436 v 2.243617 h -1.235927 v -4.69394 h 1.171332 v 0.818209 q 0.28422,-0.469394 0.495232,-0.641648 0.344509,-0.288527 0.895724,-0.288527 0.03445,0 0.05598,0.0043 0.02584,0 0.107659,0.0043 v 1.257459 q -0.116272,-0.01292 -0.206705,-0.01723 -0.09043,-0.0043 -0.146417,-0.0043 z m 5.090126,2.183328 q -0.04737,0.417718 -0.434943,0.848355 -0.602891,0.684712 -1.688096,0.684712 -0.895724,0 -1.580437,-0.577053 -0.684712,-0.577053 -0.684712,-1.877576 0,-1.218702 0.61581,-1.868964 0.620117,-0.650261 1.606275,-0.650261 0.585666,0 1.05506,0.219625 0.469394,0.219624 0.775146,0.693325 0.275608,0.417717 0.357429,0.968932 0.04737,0.322978 0.03876,0.930176 h -3.21255 q 0.02584,0.706244 0.443556,0.990464 0.254076,0.176561 0.611504,0.176561 0.378961,0 0.615811,-0.215318 0.129191,-0.116272 0.228237,-0.322978 z m -1.214395,-1.438326 q -0.03015,-0.48662 -0.29714,-0.736389 -0.262688,-0.254076 -0.654568,-0.254076 -0.42633,0 -0.66318,0.266995 -0.232544,0.266995 -0.292833,0.72347 z m 4.250385,1.942171 v 0.917256 l -0.58136,0.02153 q -0.869886,0.03015 -1.188557,-0.301445 -0.206706,-0.211012 -0.206706,-0.650262 v -2.889572 h -0.654568 v -0.874193 h 0.654568 v -1.309135 h 1.214396 v 1.309135 h 0.762227 v 0.874193 h -0.762227 v 2.480467 q 0,0.288527 0.07321,0.361735 0.07321,0.0689 0.447862,0.0689 0.05598,0 0.116272,0 0.0646,-0.0043 0.124885,-0.0086 z m 5.438942,-5.51215 v 0.999078 q -0.10335,-0.01292 -0.34882,-0.01723 -0.24115,-0.0086 -0.33589,0.107659 -0.0904,0.111966 -0.0904,0.24977 v 0.396185 h 0.80529 v 0.86558 h -0.80529 v 3.785297 h -1.22301 v -3.785297 h -0.68471 v -0.86558 h 0.67179 v -0.301445 q 0,-0.753615 0.25408,-1.037835 0.267,-0.422024 1.2876,-0.422024 0.11628,0 0.21102,0.0086 0.0947,0.0043 0.25838,0.01723 z m 4.65088,2.286681 q 0.59427,0.745002 0.59427,1.761304 0,1.033529 -0.59427,1.769917 -0.59428,0.732083 -1.80437,0.732083 -1.21009,0 -1.80437,-0.732083 -0.59428,-0.736388 -0.59428,-1.769917 0,-1.016302 0.59428,-1.761304 0.59428,-0.745001 1.80437,-0.745001 1.21009,0 1.80437,0.745001 z m -1.80868,0.292833 q -0.53829,0 -0.83113,0.383267 -0.28852,0.37896 -0.28852,1.085204 0,0.706245 0.28852,1.089511 0.29284,0.383267 0.83113,0.383267 0.5383,0 0.82682,-0.383267 0.28853,-0.383266 0.28853,-1.089511 0,-0.706244 -0.28853,-1.085204 -0.28852,-0.383267 -0.82682,-0.383267 z m 5.64134,0.245463 q -0.74069,0 -0.99477,0.482313 -0.14211,0.271301 -0.14211,0.835436 v 2.243617 h -1.23593 v -4.69394 h 1.17133 v 0.818209 q 0.28423,-0.469394 0.49524,-0.641648 0.34451,-0.288527 0.89572,-0.288527 0.0345,0 0.056,0.0043 0.0258,0 0.10766,0.0043 v 1.257459 q -0.11627,-0.01292 -0.2067,-0.01723 -0.0904,-0.0043 -0.14642,-0.0043 z m 5.43033,2.329745 0.96893,-3.462319 h 1.30483 l -1.61058,4.616425 q -0.46509,1.334974 -0.73639,1.653645 -0.2713,0.322978 -1.0852,0.322978 -0.16365,0 -0.26269,-0.0043 -0.099,0 -0.29714,-0.01292 v -0.981851 l 0.15503,0.0086 q 0.18086,0.0086 0.34451,-0.01292 0.16364,-0.02153 0.2756,-0.09905 0.10766,-0.07321 0.1981,-0.305752 0.0947,-0.232544 0.0775,-0.284221 l -1.72255,-4.900645 h 1.36512 z m 6.91172,-2.868041 q 0.59428,0.745002 0.59428,1.761304 0,1.033529 -0.59428,1.769917 -0.59428,0.732083 -1.80437,0.732083 -1.21009,0 -1.80437,-0.732083 -0.59428,-0.736388 -0.59428,-1.769917 0,-1.016302 0.59428,-1.761304 0.59428,-0.745001 1.80437,-0.745001 1.21009,0 1.80437,0.745001 z m -1.80868,0.292833 q -0.53829,0 -0.83112,0.383267 -0.28853,0.37896 -0.28853,1.085204 0,0.706245 0.28853,1.089511 0.29283,0.383267 0.83112,0.383267 0.5383,0 0.82683,-0.383267 0.28852,-0.383266 0.28852,-1.089511 0,-0.706244 -0.28852,-1.085204 -0.28853,-0.383267 -0.82683,-0.383267 z m 6.29161,3.143648 q -0.0172,0.02153 -0.0861,0.129191 -0.0689,0.107659 -0.16364,0.18948 -0.28853,0.258382 -0.55983,0.353123 -0.267,0.09474 -0.62873,0.09474 -1.04214,0 -1.40388,-0.749308 -0.2024,-0.413411 -0.2024,-1.218702 v -2.829283 h 1.25746 v 2.829283 q 0,0.400492 0.0947,0.602891 0.16795,0.357429 0.65888,0.357429 0.62873,0 0.86127,-0.508152 0.12058,-0.275607 0.12058,-0.727776 v -2.553675 h 1.24454 v 4.69394 h -1.19286 z m 4.737,-2.898185 q -0.74069,0 -0.99477,0.482313 -0.14211,0.271301 -0.14211,0.835436 v 2.243617 h -1.23593 v -4.69394 h 1.17134 v 0.818209 q 0.28422,-0.469394 0.49523,-0.641648 0.34451,-0.288527 0.89572,-0.288527 0.0345,0 0.056,0.0043 0.0258,0 0.10765,0.0043 v 1.257459 q -0.11627,-0.01292 -0.2067,-0.01723 -0.0904,-0.0043 -0.14642,-0.0043 z m 6.75669,-0.917256 q 0.55122,0.353122 0.63304,1.214396 h -1.22731 q -0.0258,-0.236851 -0.1335,-0.374654 -0.2024,-0.24977 -0.68902,-0.24977 -0.40049,0 -0.57275,0.124885 -0.16795,0.124885 -0.16795,0.292833 0,0.211012 0.18087,0.305752 0.18087,0.09905 1.27899,0.340203 0.73209,0.172255 1.09813,0.52107 0.36173,0.353123 0.36173,0.882806 0,0.697631 -0.52107,1.141187 -0.51676,0.439249 -1.60197,0.439249 -1.10673,0 -1.63642,-0.465087 -0.52537,-0.469394 -0.52537,-1.192864 h 1.24454 q 0.0387,0.327284 0.16794,0.465088 0.22824,0.245463 0.84405,0.245463 0.36174,0 0.57275,-0.10766 0.21532,-0.107659 0.21532,-0.322977 0,-0.206706 -0.17226,-0.314365 -0.17225,-0.107659 -1.27899,-0.370347 -0.79668,-0.198093 -1.12396,-0.495233 -0.32728,-0.292833 -0.32728,-0.844048 0,-0.650261 0.50815,-1.115349 0.51246,-0.469394 1.43832,-0.469394 0.8785,0 1.43402,0.348816 z m 4.68102,3.815441 q -0.0172,0.02153 -0.0861,0.129191 -0.0689,0.107659 -0.16364,0.18948 -0.28853,0.258382 -0.55983,0.353123 -0.26699,0.09474 -0.62873,0.09474 -1.04214,0 -1.40387,-0.749308 -0.2024,-0.413411 -0.2024,-1.218702 v -2.829283 h 1.25746 v 2.829283 q 0,0.400492 0.0947,0.602891 0.16795,0.357429 0.65887,0.357429 0.62873,0 0.86127,-0.508152 0.12058,-0.275607 0.12058,-0.727776 v -2.553675 h 1.24454 v 4.69394 h -1.19286 z m 6.43802,-2.34697 h -1.25746 q -0.0345,-0.262688 -0.17656,-0.4737 -0.20671,-0.28422 -0.64165,-0.28422 -0.62012,0 -0.84835,0.61581 -0.12058,0.327284 -0.12058,0.869886 0,0.516764 0.12058,0.831129 0.21962,0.585666 0.82682,0.585666 0.43064,0 0.6115,-0.232544 0.18087,-0.232544 0.21963,-0.602891 h 1.25315 q -0.0431,0.559828 -0.4048,1.059366 -0.57705,0.805291 -1.70962,0.805291 -1.13258,0 -1.66657,-0.671793 -0.53399,-0.671794 -0.53399,-1.744079 0,-1.210089 0.58997,-1.881883 0.58998,-0.671793 1.62781,-0.671793 0.88281,0 1.44263,0.396186 0.56414,0.396186 0.66749,1.399569 z m 4.90495,0 h -1.25746 q -0.0344,-0.262688 -0.17656,-0.4737 -0.2067,-0.28422 -0.64165,-0.28422 -0.62011,0 -0.84835,0.61581 -0.12058,0.327284 -0.12058,0.869886 0,0.516764 0.12058,0.831129 0.21963,0.585666 0.82682,0.585666 0.43064,0 0.61151,-0.232544 0.18086,-0.232544 0.21962,-0.602891 h 1.25315 q -0.0431,0.559828 -0.40479,1.059366 -0.57706,0.805291 -1.70963,0.805291 -1.13258,0 -1.66657,-0.671793 -0.53399,-0.671794 -0.53399,-1.744079 0,-1.210089 0.58998,-1.881883 0.58997,-0.671793 1.6278,-0.671793 0.88281,0 1.44264,0.396186 0.56413,0.396186 0.66748,1.399569 z m 4.86189,1.632113 q -0.0474,0.417718 -0.43494,0.848355 -0.60289,0.684712 -1.6881,0.684712 -0.89572,0 -1.58043,-0.577053 -0.68472,-0.577053 -0.68472,-1.877576 0,-1.218702 0.61582,-1.868964 0.62011,-0.650261 1.60627,-0.650261 0.58567,0 1.05506,0.219625 0.46939,0.219624 0.77515,0.693325 0.2756,0.417717 0.35742,0.968932 0.0474,0.322978 0.0388,0.930176 h -3.21255 q 0.0258,0.706244 0.44356,0.990464 0.25407,0.176561 0.6115,0.176561 0.37896,0 0.61581,-0.215318 0.12919,-0.116272 0.22824,-0.322978 z m -1.21439,-1.438326 q -0.0302,-0.48662 -0.29714,-0.736389 -0.26269,-0.254076 -0.65457,-0.254076 -0.42633,0 -0.66318,0.266995 -0.23254,0.266995 -0.29283,0.72347 z m 5.33559,-1.662258 q 0.55121,0.353122 0.63303,1.214396 h -1.22731 q -0.0258,-0.236851 -0.1335,-0.374654 -0.2024,-0.24977 -0.68902,-0.24977 -0.40049,0 -0.57274,0.124885 -0.16795,0.124885 -0.16795,0.292833 0,0.211012 0.18086,0.305752 0.18087,0.09905 1.279,0.340203 0.73208,0.172255 1.09812,0.52107 0.36173,0.353123 0.36173,0.882806 0,0.697631 -0.52107,1.141187 -0.51676,0.439249 -1.60196,0.439249 -1.10674,0 -1.63642,-0.465087 -0.52538,-0.469394 -0.52538,-1.192864 h 1.24454 q 0.0388,0.327284 0.16795,0.465088 0.22823,0.245463 0.84405,0.245463 0.36173,0 0.57274,-0.10766 0.21532,-0.107659 0.21532,-0.322977 0,-0.206706 -0.17225,-0.314365 -0.17226,-0.107659 -1.279,-0.370347 -0.79667,-0.198093 -1.12396,-0.495233 -0.32728,-0.292833 -0.32728,-0.844048 0,-0.650261 0.50815,-1.115349 0.51246,-0.469394 1.43833,-0.469394 0.8785,0 1.43402,0.348816 z m 4.90495,0 q 0.55122,0.353122 0.63304,1.214396 h -1.22732 q -0.0258,-0.236851 -0.1335,-0.374654 -0.2024,-0.24977 -0.68901,-0.24977 -0.4005,0 -0.57275,0.124885 -0.16795,0.124885 -0.16795,0.292833 0,0.211012 0.18087,0.305752 0.18087,0.09905 1.27899,0.340203 0.73208,0.172255 1.09812,0.52107 0.36174,0.353123 0.36174,0.882806 0,0.697631 -0.52107,1.141187 -0.51677,0.439249 -1.60197,0.439249 -1.10674,0 -1.63642,-0.465087 -0.52538,-0.469394 -0.52538,-1.192864 h 1.24454 q 0.0388,0.327284 0.16795,0.465088 0.22824,0.245463 0.84405,0.245463 0.36173,0 0.57275,-0.10766 0.21531,-0.107659 0.21531,-0.322977 0,-0.206706 -0.17225,-0.314365 -0.17226,-0.107659 -1.27899,-0.370347 -0.79668,-0.198093 -1.12396,-0.495233 -0.32729,-0.292833 -0.32729,-0.844048 0,-0.650261 0.50815,-1.115349 0.51246,-0.469394 1.43833,-0.469394 0.8785,0 1.43402,0.348816 z m 4.44847,2.135958 q -0.0517,0.163642 -0.056,0.508151 h -1.16272 q 0.0258,-0.727776 0.1378,-1.003383 0.11197,-0.279914 0.57706,-0.641649 l 0.31436,-0.245463 q 0.15503,-0.116272 0.24977,-0.254075 0.17225,-0.236851 0.17225,-0.521071 0,-0.327284 -0.19378,-0.594278 -0.18948,-0.271302 -0.69763,-0.271302 -0.49954,0 -0.71055,0.331591 -0.20671,0.33159 -0.20671,0.689018 h -1.24454 q 0.0517,-1.227314 0.85697,-1.739772 0.50815,-0.327284 1.24884,-0.327284 0.97324,0 1.61489,0.465088 0.64596,0.465087 0.64596,1.378037 0,0.559828 -0.27992,0.943095 -0.16364,0.232544 -0.62873,0.594278 l -0.30575,0.236851 q -0.24977,0.193786 -0.33159,0.452168 z m 0.0344,2.342664 h -1.2833 v -1.24454 h 1.2833 z"
         id="path14" />
      <path
         style="font-weight:bold;-inkscape-font-specification:'Helvetica Bold';text-align:center;text-anchor:middle"
         d="m 23.574098,57.183755 q -0.710551,0.650262 -1.817287,0.650262 -1.369425,0 -2.153184,-0.878499 -0.783759,-0.882805 -0.783759,-2.420178 0,-1.662258 0.891418,-2.562289 0.775146,-0.783759 1.972316,-0.783759 1.601969,0 2.342664,1.050754 0.409105,0.589972 0.43925,1.184251 h -1.326361 q -0.129191,-0.456475 -0.331591,-0.689019 -0.361735,-0.413411 -1.072285,-0.413411 -0.72347,0 -1.141187,0.585666 -0.417718,0.581359 -0.417718,1.649338 0,1.067979 0.439249,1.601969 0.443556,0.529683 1.123962,0.529683 0.697632,0 1.063673,-0.456475 0.202399,-0.245463 0.335897,-0.736389 h 1.313442 q -0.172255,1.037835 -0.878499,1.688096 z m 1.817286,-5.873884 h 1.227315 v 6.347585 h -1.227315 z m 3.686251,1.653645 v 4.69394 h -1.24454 v -4.69394 z m 0,-1.692403 v 1.132575 h -1.24454 v -1.132575 z m 3.397723,2.601046 q -0.624423,0 -0.856967,0.529683 -0.120579,0.279914 -0.120579,0.714857 v 2.540757 h -1.223008 v -4.685328 h 1.184251 v 0.684713 q 0.23685,-0.361735 0.447862,-0.521071 0.378961,-0.28422 0.96032,-0.28422 0.727776,0 1.188557,0.383267 0.465088,0.37896 0.465088,1.261765 v 3.160874 h -1.257459 v -2.855122 q 0,-0.370347 -0.09905,-0.56844 -0.180868,-0.361735 -0.689019,-0.361735 z m 4.439865,-0.908643 v 4.69394 h -1.24454 v -4.69394 z m 0,-1.692403 v 1.132575 h -1.24454 v -1.132575 z m 5.249462,3.376192 h -1.257459 q -0.03445,-0.262688 -0.176561,-0.4737 -0.206706,-0.284221 -0.641649,-0.284221 -0.620117,0 -0.848354,0.615811 -0.120579,0.327284 -0.120579,0.869886 0,0.516764 0.120579,0.831129 0.219624,0.585666 0.826822,0.585666 0.430637,0 0.611504,-0.232544 0.180868,-0.232544 0.219625,-0.602891 h 1.253153 q -0.04306,0.559827 -0.404799,1.059366 -0.577053,0.805291 -1.709627,0.805291 -1.132575,0 -1.666565,-0.671794 -0.533989,-0.671793 -0.533989,-1.744078 0,-1.210089 0.589972,-1.881883 0.589973,-0.671793 1.627807,-0.671793 0.882805,0 1.442633,0.396186 0.564134,0.396186 0.667487,1.399569 z m 1.020608,-1.175638 q 0.486619,-0.620117 1.67087,-0.620117 0.77084,0 1.369425,0.305752 0.598585,0.305752 0.598585,1.154106 v 2.153184 q 0,0.223931 0.0086,0.542602 0.01292,0.241157 0.07321,0.327284 0.06029,0.08613 0.180867,0.14211 v 0.180868 h -1.334973 q -0.05598,-0.14211 -0.07751,-0.266995 -0.02153,-0.124885 -0.03445,-0.28422 -0.254076,0.275607 -0.585666,0.469394 -0.396186,0.228237 -0.895724,0.228237 -0.637343,0 -1.05506,-0.361735 -0.413411,-0.366041 -0.413411,-1.033528 0,-0.86558 0.667487,-1.253153 0.366041,-0.211012 1.076591,-0.301445 l 0.417718,-0.05168 q 0.340203,-0.04306 0.486619,-0.107659 0.262689,-0.111965 0.262689,-0.348816 0,-0.288526 -0.202399,-0.396185 -0.198093,-0.111966 -0.585666,-0.111966 -0.434943,0 -0.615811,0.215318 -0.129191,0.159336 -0.172255,0.430637 h -1.184251 q 0.03876,-0.61581 0.34451,-1.011996 z m 0.91295,3.298677 q 0.172254,0.14211 0.422024,0.14211 0.396185,0 0.727776,-0.232544 0.335896,-0.232543 0.348815,-0.848354 v -0.456475 q -0.116271,0.07321 -0.23685,0.120578 -0.116272,0.04306 -0.322977,0.08182 l -0.275608,0.05168 q -0.387573,0.0689 -0.555521,0.167948 -0.28422,0.167948 -0.28422,0.521071 0,0.314364 0.176561,0.452168 z m 3.84128,-5.460473 h 1.227315 v 6.347585 h -1.227315 z m 9.392187,3.574284 h -3.083359 v 1.632113 h 3.513996 v 1.141188 h -4.810212 v -6.347585 h 4.655183 v 1.123961 h -3.358967 v 1.347893 h 3.083359 z m 4.000614,-0.628729 q -0.15503,-0.340203 -0.607198,-0.340203 -0.525377,0 -0.706244,0.340203 -0.09905,0.193786 -0.09905,0.577053 v 2.824977 h -1.24454 v -4.685328 h 1.192864 v 0.684713 q 0.228237,-0.366042 0.430636,-0.521071 0.357429,-0.275607 0.925869,-0.275607 0.538296,0 0.869887,0.23685 0.266994,0.219625 0.404798,0.564134 0.241157,-0.413411 0.598585,-0.607198 0.37896,-0.193786 0.844048,-0.193786 0.310058,0 0.611504,0.120578 0.301446,0.120578 0.546909,0.422024 0.198093,0.245463 0.266995,0.602891 0.04306,0.236851 0.04306,0.693325 l -0.0086,2.958475 h -1.25746 v -2.988619 q 0,-0.266995 -0.08613,-0.43925 -0.163642,-0.327283 -0.602891,-0.327283 -0.508152,0 -0.701938,0.422024 -0.09905,0.223931 -0.09905,0.538295 v 2.794833 h -1.235927 v -2.794833 q 0,-0.417717 -0.08613,-0.607197 z m 9.120887,-0.697632 q 0.594278,0.745002 0.594278,1.761304 0,1.033528 -0.594278,1.769917 -0.594279,0.732083 -1.804368,0.732083 -1.210089,0 -1.804368,-0.732083 -0.594279,-0.736389 -0.594279,-1.769917 0,-1.016302 0.594279,-1.761304 0.594279,-0.745001 1.804368,-0.745001 1.210089,0 1.804368,0.745001 z m -1.808675,0.292833 q -0.538295,0 -0.831128,0.383267 -0.288527,0.37896 -0.288527,1.085204 0,0.706245 0.288527,1.089511 0.292833,0.383267 0.831128,0.383267 0.538296,0 0.826823,-0.383267 0.288527,-0.383266 0.288527,-1.089511 0,-0.706244 -0.288527,-1.085204 -0.288527,-0.383267 -0.826823,-0.383267 z m 5.430328,2.932636 v 0.917256 l -0.581359,0.02153 q -0.869886,0.03014 -1.188558,-0.301446 -0.206705,-0.211011 -0.206705,-0.650261 v -2.889572 h -0.654568 v -0.874193 h 0.654568 v -1.309135 h 1.214395 v 1.309135 h 0.762227 v 0.874193 h -0.762227 v 2.480467 q 0,0.288527 0.07321,0.361735 0.07321,0.0689 0.447862,0.0689 0.05598,0 0.116272,0 0.06459,-0.0043 0.124884,-0.0086 z m 2.049832,-3.819747 v 4.69394 h -1.24454 v -4.69394 z m 0,-1.692403 v 1.132575 h -1.24454 v -1.132575 z m 5.103043,2.286681 q 0.594279,0.745002 0.594279,1.761304 0,1.033528 -0.594279,1.769917 -0.594279,0.732083 -1.804368,0.732083 -1.210089,0 -1.804367,-0.732083 -0.594279,-0.736389 -0.594279,-1.769917 0,-1.016302 0.594279,-1.761304 0.594278,-0.745001 1.804367,-0.745001 1.210089,0 1.804368,0.745001 z m -1.808674,0.292833 q -0.538296,0 -0.831129,0.383267 -0.288526,0.37896 -0.288526,1.085204 0,0.706245 0.288526,1.089511 0.292833,0.383267 0.831129,0.383267 0.538296,0 0.826822,-0.383267 0.288527,-0.383266 0.288527,-1.089511 0,-0.706244 -0.288527,-1.085204 -0.288526,-0.383267 -0.826822,-0.383267 z m 5.490617,0.02153 q -0.624423,0 -0.856967,0.529683 -0.120578,0.279914 -0.120578,0.714857 v 2.540757 h -1.223009 v -4.685328 h 1.184251 v 0.684713 q 0.236851,-0.361735 0.447863,-0.521071 0.37896,-0.28422 0.960319,-0.28422 0.727776,0 1.188558,0.383267 0.465087,0.37896 0.465087,1.261765 v 3.160874 h -1.257459 v -2.855122 q 0,-0.370347 -0.09905,-0.56844 -0.180868,-0.361735 -0.689019,-0.361735 z m 3.354663,-0.400492 q 0.486619,-0.620117 1.67087,-0.620117 0.77084,0 1.369425,0.305752 0.598585,0.305752 0.598585,1.154106 v 2.153184 q 0,0.223931 0.0086,0.542602 0.01292,0.241157 0.07321,0.327284 0.06029,0.08613 0.180867,0.14211 v 0.180868 H 90.83094 q -0.05598,-0.14211 -0.07752,-0.266995 -0.02153,-0.124885 -0.03445,-0.28422 -0.254076,0.275607 -0.585666,0.469394 -0.396186,0.228237 -0.895724,0.228237 -0.637343,0 -1.05506,-0.361735 -0.413411,-0.366041 -0.413411,-1.033528 0,-0.86558 0.667486,-1.253153 0.366042,-0.211012 1.076592,-0.301445 l 0.417718,-0.05168 q 0.340203,-0.04306 0.486619,-0.107659 0.262689,-0.111965 0.262689,-0.348816 0,-0.288526 -0.202399,-0.396185 -0.198093,-0.111966 -0.585666,-0.111966 -0.434943,0 -0.615811,0.215318 -0.129191,0.159336 -0.172255,0.430637 h -1.184251 q 0.03876,-0.61581 0.34451,-1.011996 z m 0.91295,3.298677 q 0.172254,0.14211 0.422024,0.14211 0.396185,0 0.727776,-0.232544 0.335896,-0.232543 0.348815,-0.848354 v -0.456475 q -0.116272,0.07321 -0.23685,0.120578 -0.116272,0.04306 -0.322977,0.08182 l -0.275608,0.05168 q -0.387573,0.0689 -0.555521,0.167948 -0.28422,0.167948 -0.28422,0.521071 0,0.314364 0.176561,0.452168 z m 3.84128,-5.460473 h 1.227315 v 6.347585 h -1.227315 z m 9.474005,1.123961 h -3.182406 v 1.459859 h 2.786216 v 1.10243 h -2.786216 v 2.661335 h -1.317748 v -6.338973 h 4.500154 z m 3.14796,1.662258 q -0.7407,0 -0.99477,0.482313 -0.14211,0.271301 -0.14211,0.835435 v 2.243618 h -1.23593 v -4.69394 h 1.17133 v 0.818209 q 0.28422,-0.469394 0.49523,-0.641648 0.34451,-0.288527 0.89573,-0.288527 0.0344,0 0.056,0.0043 0.0258,0 0.10766,0.0043 v 1.257459 q -0.11627,-0.01292 -0.20671,-0.01723 -0.0904,-0.0043 -0.14641,-0.0043 z m 5.09012,2.183328 q -0.0474,0.417718 -0.43494,0.848355 -0.60289,0.684712 -1.6881,0.684712 -0.89572,0 -1.58043,-0.577053 -0.68472,-0.577053 -0.68472,-1.877576 0,-1.218702 0.61581,-1.868964 0.62012,-0.650261 1.60628,-0.650261 0.58567,0 1.05506,0.219625 0.46939,0.219624 0.77515,0.693325 0.2756,0.417717 0.35742,0.968932 0.0474,0.322978 0.0388,0.930176 h -3.21255 q 0.0258,0.706244 0.44356,0.990464 0.25407,0.176561 0.6115,0.176561 0.37896,0 0.61581,-0.215318 0.12919,-0.116272 0.22824,-0.322978 z m -1.21439,-1.438326 q -0.0302,-0.48662 -0.29714,-0.736389 -0.26269,-0.254076 -0.65457,-0.254076 -0.42633,0 -0.66318,0.266995 -0.23254,0.266995 -0.29283,0.72347 z m 6.11935,1.438326 q -0.0474,0.417718 -0.43495,0.848355 -0.60289,0.684712 -1.68809,0.684712 -0.89573,0 -1.58044,-0.577053 -0.68471,-0.577053 -0.68471,-1.877576 0,-1.218702 0.61581,-1.868964 0.62011,-0.650261 1.60627,-0.650261 0.58567,0 1.05506,0.219625 0.4694,0.219624 0.77515,0.693325 0.27561,0.417717 0.35743,0.968932 0.0474,0.322978 0.0387,0.930176 h -3.21255 q 0.0258,0.706244 0.44356,0.990464 0.25408,0.176561 0.6115,0.176561 0.37896,0 0.61582,-0.215318 0.12919,-0.116272 0.22823,-0.322978 z m -1.2144,-1.438326 q -0.0301,-0.48662 -0.29714,-0.736389 -0.26269,-0.254076 -0.65457,-0.254076 -0.42633,0 -0.66318,0.266995 -0.23254,0.266995 -0.29283,0.72347 z m 6.37342,-3.522609 v 6.338973 h -1.19286 v -0.650262 q -0.26269,0.417718 -0.59858,0.607198 -0.3359,0.18948 -0.83544,0.18948 -0.82252,0 -1.38665,-0.66318 -0.55983,-0.667487 -0.55983,-1.709628 0,-1.201477 0.55122,-1.890495 0.55552,-0.689019 1.48139,-0.689019 0.42633,0 0.75792,0.18948 0.33159,0.185174 0.53829,0.516764 v -2.239311 z m -3.30729,4.022147 q 0,0.650262 0.25839,1.037835 0.25407,0.391879 0.77514,0.391879 0.52107,0 0.79237,-0.387573 0.2713,-0.387573 0.2713,-1.003384 0,-0.861273 -0.43494,-1.231621 -0.26699,-0.223931 -0.62012,-0.223931 -0.53829,0 -0.79237,0.409105 -0.24977,0.404799 -0.24977,1.00769 z m 8.33713,-1.782836 q 0.59427,0.745002 0.59427,1.761304 0,1.033528 -0.59427,1.769917 -0.59428,0.732083 -1.80437,0.732083 -1.21009,0 -1.80437,-0.732083 -0.59428,-0.736389 -0.59428,-1.769917 0,-1.016302 0.59428,-1.761304 0.59428,-0.745001 1.80437,-0.745001 1.21009,0 1.80437,0.745001 z m -1.80868,0.292833 q -0.53829,0 -0.83113,0.383267 -0.28852,0.37896 -0.28852,1.085204 0,0.706245 0.28852,1.089511 0.29284,0.383267 0.83113,0.383267 0.5383,0 0.82682,-0.383267 0.28853,-0.383266 0.28853,-1.089511 0,-0.706244 -0.28853,-1.085204 -0.28852,-0.383267 -0.82682,-0.383267 z m 5.91695,0.404799 q -0.15503,-0.340203 -0.60719,-0.340203 -0.52538,0 -0.70625,0.340203 -0.0991,0.193786 -0.0991,0.577053 v 2.824977 h -1.24454 v -4.685328 h 1.19287 v 0.684713 q 0.22824,-0.366042 0.43063,-0.521071 0.35743,-0.275607 0.92587,-0.275607 0.5383,0 0.86989,0.23685 0.26699,0.219625 0.4048,0.564134 0.24116,-0.413411 0.59858,-0.607198 0.37896,-0.193786 0.84405,-0.193786 0.31006,0 0.61151,0.120578 0.30144,0.120578 0.5469,0.422024 0.1981,0.245463 0.267,0.602891 0.0431,0.236851 0.0431,0.693325 l -0.009,2.958475 h -1.25746 v -2.988619 q 0,-0.266995 -0.0861,-0.43925 -0.16364,-0.327283 -0.60289,-0.327283 -0.50815,0 -0.70194,0.422024 -0.099,0.223931 -0.099,0.538295 v 2.794833 h -1.23593 v -2.794833 q 0,-0.417717 -0.0861,-0.607197 z m 12.36789,-2.945555 v 1.123961 h -1.89911 v 5.223624 h -1.33498 v -5.223624 h -1.90772 v -1.123961 z m 4.04367,4.969547 q -0.0474,0.417718 -0.43494,0.848355 -0.60289,0.684712 -1.6881,0.684712 -0.89572,0 -1.58044,-0.577053 -0.68471,-0.577053 -0.68471,-1.877576 0,-1.218702 0.61581,-1.868964 0.62012,-0.650261 1.60628,-0.650261 0.58566,0 1.05506,0.219625 0.46939,0.219624 0.77514,0.693325 0.27561,0.417717 0.35743,0.968932 0.0474,0.322978 0.0388,0.930176 h -3.21255 q 0.0258,0.706244 0.44355,0.990464 0.25408,0.176561 0.61151,0.176561 0.37896,0 0.61581,-0.215318 0.12919,-0.116272 0.22824,-0.322978 z m -1.2144,-1.438326 q -0.0301,-0.48662 -0.29713,-0.736389 -0.26269,-0.254076 -0.65457,-0.254076 -0.42633,0 -0.66318,0.266995 -0.23255,0.266995 -0.29284,0.72347 z m 6.16242,-0.193787 h -1.25746 q -0.0345,-0.262688 -0.17656,-0.4737 -0.2067,-0.284221 -0.64164,-0.284221 -0.62012,0 -0.84836,0.615811 -0.12058,0.327284 -0.12058,0.869886 0,0.516764 0.12058,0.831129 0.21963,0.585666 0.82682,0.585666 0.43064,0 0.61151,-0.232544 0.18086,-0.232544 0.21962,-0.602891 h 1.25316 q -0.0431,0.559827 -0.4048,1.059366 -0.57706,0.805291 -1.70963,0.805291 -1.13258,0 -1.66657,-0.671794 -0.53398,-0.671793 -0.53398,-1.744078 0,-1.210089 0.58997,-1.881883 0.58997,-0.671793 1.6278,-0.671793 0.88281,0 1.44264,0.396186 0.56413,0.396186 0.66748,1.399569 z m 5.08582,0.254076 v 2.756075 H 155.125 v -2.855122 q 0,-0.37896 -0.12919,-0.611504 -0.16795,-0.327284 -0.63734,-0.327284 -0.48662,0 -0.7407,0.327284 -0.24977,0.322978 -0.24977,0.925869 v 2.540757 h -1.223 v -6.326054 h 1.223 v 2.243618 q 0.267,-0.409105 0.61581,-0.568441 0.35313,-0.163642 0.7407,-0.163642 0.43494,0 0.78806,0.150723 0.35743,0.150723 0.58567,0.460781 0.19379,0.262689 0.23685,0.542603 0.0431,0.275607 0.0431,0.904337 z m 3.35467,-1.029222 q -0.62443,0 -0.85697,0.529683 -0.12058,0.279914 -0.12058,0.714857 v 2.540757 h -1.22301 v -4.685328 h 1.18425 v 0.684713 q 0.23685,-0.361735 0.44787,-0.521071 0.37896,-0.28422 0.96032,-0.28422 0.72777,0 1.18855,0.383267 0.46509,0.37896 0.46509,1.261765 v 3.160874 h -1.25746 v -2.855122 q 0,-0.370347 -0.099,-0.56844 -0.18087,-0.361735 -0.68902,-0.361735 z m 4.43985,-0.908643 v 4.69394 h -1.24454 v -4.69394 z m 0,-1.692403 v 1.132575 h -1.24454 v -1.132575 z m 4.21594,8.246693 v -2.44171 q -0.1378,0.28422 -0.4737,0.508151 -0.33159,0.219625 -0.90864,0.219625 -0.8139,0 -1.38665,-0.650261 -0.57275,-0.650262 -0.57275,-1.735466 0,-1.171332 0.57275,-1.87327 0.57705,-0.701938 1.4211,-0.701938 0.58567,0 0.9474,0.288527 0.21101,0.163642 0.43064,0.538296 v -0.697632 h 1.18425 v 6.545678 z m -1.93356,-3.35466 q 0.24116,0.589973 0.89573,0.589973 0.63303,0 0.90003,-0.542603 0.17225,-0.357428 0.17225,-0.904337 0,-0.430636 -0.14641,-0.770839 -0.26269,-0.611505 -0.92157,-0.611505 -0.46508,0 -0.7493,0.357429 -0.27992,0.357428 -0.27992,1.085204 0,0.48662 0.12919,0.796678 z m 7.30361,0.831129 q -0.0172,0.02153 -0.0861,0.129191 -0.0689,0.107659 -0.16364,0.18948 -0.28853,0.258382 -0.55983,0.353122 -0.267,0.09474 -0.62873,0.09474 -1.04214,0 -1.40388,-0.749307 -0.2024,-0.413412 -0.2024,-1.218702 v -2.829283 h 1.25746 v 2.829283 q 0,0.400492 0.0947,0.602891 0.16795,0.357429 0.65888,0.357429 0.62873,0 0.86127,-0.508152 0.12058,-0.275607 0.12058,-0.727776 v -2.553675 h 1.24454 v 4.69394 h -1.19286 z m 6.39494,-0.714857 q -0.0474,0.417718 -0.43495,0.848355 -0.60289,0.684712 -1.68809,0.684712 -0.89573,0 -1.58044,-0.577053 -0.68471,-0.577053 -0.68471,-1.877576 0,-1.218702 0.61581,-1.868964 0.62012,-0.650261 1.60628,-0.650261 0.58566,0 1.05506,0.219625 0.46939,0.219624 0.77514,0.693325 0.27561,0.417717 0.35743,0.968932 0.0474,0.322978 0.0388,0.930176 h -3.21255 q 0.0258,0.706244 0.44355,0.990464 0.25408,0.176561 0.61151,0.176561 0.37896,0 0.61581,-0.215318 0.12919,-0.116272 0.22824,-0.322978 z m -1.2144,-1.438326 q -0.0301,-0.48662 -0.29714,-0.736389 -0.26269,-0.254076 -0.65456,-0.254076 -0.42634,0 -0.66319,0.266995 -0.23254,0.266995 -0.29283,0.72347 z m 5.33559,-1.662258 q 0.55122,0.353122 0.63304,1.214395 h -1.22732 q -0.0258,-0.23685 -0.13349,-0.374654 -0.2024,-0.249769 -0.68902,-0.249769 -0.40049,0 -0.57275,0.124885 -0.16795,0.124884 -0.16795,0.292833 0,0.211012 0.18087,0.305752 0.18087,0.09905 1.27899,0.340203 0.73208,0.172255 1.09812,0.52107 0.36174,0.353122 0.36174,0.882806 0,0.697631 -0.52107,1.141187 -0.51677,0.439249 -1.60197,0.439249 -1.10674,0 -1.63642,-0.465087 -0.52538,-0.469394 -0.52538,-1.192864 h 1.24454 q 0.0388,0.327284 0.16795,0.465088 0.22824,0.245462 0.84405,0.245462 0.36174,0 0.57275,-0.107659 0.21532,-0.107659 0.21532,-0.322977 0,-0.206706 -0.17226,-0.314365 -0.17225,-0.107659 -1.27899,-0.370348 -0.79668,-0.198092 -1.12396,-0.495232 -0.32729,-0.292833 -0.32729,-0.844048 0,-0.650261 0.50816,-1.115349 0.51245,-0.469394 1.43832,-0.469394 0.8785,0 1.43402,0.348816 z m 5.4691,6.257151 -0.30575,-0.417717 Q 189.141,58.639307 188.8051,57.89 q -0.59858,-1.339281 -0.59858,-2.635497 0,-1.179945 0.50384,-2.342664 0.3402,-0.792371 0.99477,-1.705321 h 0.92587 l -0.26269,0.482313 q -0.5426,0.994771 -0.75361,2.084282 -0.13781,0.714856 -0.13781,1.558904 0,1.317749 0.38327,2.424485 0.22393,0.654568 0.79237,1.679483 z m 6.10642,-4.55183 h -3.08336 v 1.632113 h 3.514 v 1.141188 h -4.81021 v -6.347585 h 4.65518 v 1.123961 h -3.35897 v 1.347893 h 3.08336 z m 5.96431,-2.450323 h -3.1824 v 1.459859 h 2.78622 v 1.10243 h -2.78622 v 2.661335 h -1.31775 v -6.338973 h 4.50015 z m 5.49924,-1.123961 v 1.123961 h -1.89911 v 5.223624 h -1.33497 v -5.223624 h -1.90773 v -1.123961 z m 1.40818,7.708397 -0.30575,0.417717 h -0.90864 q 0.56844,-1.024915 0.79237,-1.679483 0.38326,-1.106736 0.38326,-2.424485 0,-0.844048 -0.1378,-1.558904 -0.21101,-1.089511 -0.75361,-2.084282 l -0.26269,-0.482313 h 0.92587 q 0.65457,0.91295 0.99477,1.705321 0.50384,1.162719 0.50384,2.342664 0,1.296216 -0.59858,2.635497 -0.3359,0.749307 -0.63304,1.128268 z"
         id="path15" />
      <path
         style="font-weight:bold;-inkscape-font-specification:'Helvetica Bold';text-align:center;baseline-shift:super;text-anchor:middle"
         d="m 213.30402,48.488339 0.2024,0.641648 -0.91725,0.284221 0.59858,0.856967 -0.55121,0.391879 -0.59859,-0.809597 -0.61581,0.809597 -0.55121,-0.391879 0.60289,-0.856967 -0.91726,-0.284221 0.2024,-0.641648 0.90003,0.292833 v -1.037835 h 0.745 v 1.037835 z"
         id="path16" />
      <path
         style="font-weight:bold;-inkscape-font-specification:'Helvetica Bold';text-align:center;text-anchor:middle"
         d="m 214.33755,56.374158 h 1.30483 v 1.283298 h -1.30483 z"
         id="path17" />
    </g>
    <path
       id="rect5"
       style="fill:#9fd7f5;stroke-width:0"
       d="m 81.289589,70.908333 h 76.340001 c 4.432,0 8,3.068108 8,6.879166 0,3.811059 -3.568,6.879167 -8,6.879167 H 81.289589 c -4.432,0 -8,-3.068108 -8,-6.879167 0,-3.811058 3.568,-6.879166 8,-6.879166 z" />
    <path
       d="m 80.865678,80.315512 q -0.399287,0.245463 -0.981853,0.245463 -0.958942,0 -1.570964,-0.664387 -0.638204,-0.667659 -0.638204,-1.826245 0,-1.171678 0.64475,-1.878611 0.64475,-0.706934 1.705151,-0.706934 0.919668,0 1.476051,0.468016 0.559656,0.464744 0.641477,1.161859 h -0.991671 q -0.114549,-0.494199 -0.559656,-0.69057 -0.248736,-0.108003 -0.55311,-0.108003 -0.582566,0 -0.958943,0.441833 -0.373104,0.438561 -0.373104,1.322228 0,0.890213 0.405833,1.260044 0.405832,0.369831 0.922941,0.369831 0.507291,0 0.831302,-0.291283 0.324011,-0.294555 0.399287,-0.769117 h -1.116039 v -0.805119 h 2.009524 v 2.588817 h -0.667659 l -0.101458,-0.602203 q -0.291283,0.343649 -0.523655,0.484381 z m 4.388881,0.252009 q -1.034218,0 -1.580783,-0.562929 -0.733116,-0.69057 -0.733116,-1.989888 0,-1.325501 0.733116,-1.989887 0.546565,-0.562929 1.580783,-0.562929 1.034218,0 1.580782,0.562929 0.729844,0.664386 0.729844,1.989887 0,1.299318 -0.729844,1.989888 -0.546564,0.562929 -1.580782,0.562929 z m 0.952397,-1.296045 q 0.350194,-0.441834 0.350194,-1.256772 0,-0.811664 -0.353467,-1.253498 -0.350194,-0.445106 -0.949124,-0.445106 -0.59893,0 -0.95567,0.441833 -0.35674,0.441834 -0.35674,1.256771 0,0.814938 0.35674,1.256772 0.35674,0.441833 0.95567,0.441833 0.59893,0 0.952397,-0.441833 z m 7.494807,-3.66231 v 0.854211 H 92.25844 v 3.969957 H 91.243859 V 76.463377 H 89.79399 v -0.854211 z m 2.605182,4.958355 q -1.034217,0 -1.580782,-0.562929 -0.733117,-0.69057 -0.733117,-1.989888 0,-1.325501 0.733117,-1.989887 0.546565,-0.562929 1.580782,-0.562929 1.034218,0 1.580783,0.562929 0.729844,0.664386 0.729844,1.989887 0,1.299318 -0.729844,1.989888 -0.546565,0.562929 -1.580783,0.562929 z m 0.952397,-1.296045 q 0.350194,-0.441834 0.350194,-1.256772 0,-0.811664 -0.353466,-1.253498 -0.350194,-0.445106 -0.949125,-0.445106 -0.59893,0 -0.955669,0.441833 -0.35674,0.441834 -0.35674,1.256771 0,0.814938 0.35674,1.256772 0.356739,0.441833 0.955669,0.441833 0.598931,0 0.952397,-0.441833 z m 4.912538,1.161858 h -0.93931 v -4.824168 h 1.46624 l 0.87712,3.793223 0.87057,-3.793223 h 1.44987 v 4.824168 h -0.9393 v -3.263023 q 0,-0.140732 0.003,-0.392741 0.003,-0.255281 0.003,-0.392741 l -0.91312,4.048505 h -0.97858 l -0.90658,-4.048505 q 0,0.13746 0.003,0.392741 0.003,0.252009 0.003,0.392741 z m 8.55521,-4.824168 -1.61352,3.011014 v 1.813154 h -1.00803 V 78.62018 l -1.66915,-3.011014 h 1.18804 l 1.00149,2.101164 0.95894,-2.101164 z m 5.72419,4.464156 q -0.54002,0.494199 -1.38114,0.494199 -1.04076,0 -1.63642,-0.66766 -0.59565,-0.670932 -0.59565,-1.839337 0,-1.263317 0.67747,-1.947341 0.58912,-0.595657 1.49897,-0.595657 1.21749,0 1.78042,0.798574 0.31092,0.448379 0.33383,0.900031 h -1.00803 q -0.0982,-0.346921 -0.25201,-0.523655 -0.27492,-0.314192 -0.81494,-0.314192 -0.54984,0 -0.8673,0.445106 -0.31747,0.441834 -0.31747,1.253498 0,0.811665 0.33383,1.217497 0.3371,0.40256 0.85421,0.40256 0.5302,0 0.80839,-0.346921 0.15383,-0.186552 0.25529,-0.559656 h 0.99821 q -0.13091,0.788755 -0.66766,1.282954 z m 4.26124,-0.631659 h -1.77715 l -0.33383,0.991671 h -1.05385 l 1.72151,-4.824168 h 1.13895 l 1.70842,4.824168 h -1.09313 z m -0.28146,-0.831301 -0.6022,-1.898249 -0.62184,1.898249 z m 2.29754,-3.001196 h 1.00803 v 3.956865 h 2.38918 v 0.867303 h -3.39721 z m 7.45225,2.716458 h -2.34335 v 1.240407 h 2.67064 v 0.867303 h -3.65577 v -4.824168 h 3.53795 v 0.854211 h -2.55282 v 1.0244 h 2.34335 z m 5.014,2.10771 h -1.00804 l -1.97025,-3.426665 v 3.426665 h -0.9393 v -4.824168 h 1.05713 l 1.92115,3.367754 v -3.367754 h 0.93931 z m 3.01756,0 h -2.07825 v -4.824168 h 2.07825 q 0.44838,0.0065 0.74621,0.104731 0.50729,0.166915 0.82148,0.612021 0.25201,0.360013 0.34365,0.778936 0.0916,0.418924 0.0916,0.798574 0,0.962215 -0.3862,1.629875 -0.52365,0.900031 -1.61678,0.900031 z m 0.74948,-3.59358 q -0.23237,-0.392741 -0.91967,-0.392741 h -0.92948 v 3.148474 h 0.92948 q 0.71348,0 0.99495,-0.703661 0.15382,-0.386195 0.15382,-0.919669 0,-0.736389 -0.2291,-1.132403 z m 4.83726,2.601909 H 142.022 l -0.33383,0.991671 h -1.05386 l 1.72152,-4.824168 h 1.13894 l 1.70843,4.824168 h -1.09313 z m -0.28147,-0.831301 -0.6022,-1.898249 -0.62184,1.898249 z m 4.34634,-0.06873 h -1.04077 v 1.891702 h -0.98512 v -4.824168 h 2.36626 q 0.50729,0.0098 0.77894,0.124368 0.27492,0.114549 0.46474,0.337102 0.1571,0.18328 0.24874,0.405833 0.0916,0.222553 0.0916,0.50729 0,0.343649 -0.17346,0.677478 -0.17346,0.330557 -0.57275,0.468017 0.33383,0.134186 0.47129,0.382922 0.14073,0.245463 0.14073,0.752754 v 0.324011 q 0,0.330557 0.0262,0.44838 0.0393,0.186551 0.18328,0.274918 v 0.121095 h -1.10949 q -0.0458,-0.160369 -0.0655,-0.258554 -0.0393,-0.202916 -0.0426,-0.415651 l -0.007,-0.448379 q -0.007,-0.461471 -0.17019,-0.615295 -0.16037,-0.153823 -0.60547,-0.153823 z m 0.61202,-0.877122 q 0.3011,-0.137459 0.3011,-0.543291 0,-0.438561 -0.29128,-0.589112 -0.16365,-0.08509 -0.49093,-0.08509 h -1.17168 v 1.296045 h 1.14222 q 0.34038,0 0.51057,-0.07855 z"
       id="text5"
       style="font-weight:bold;font-size:6.70278px;font-family:Helvetica;-inkscape-font-specification:'Helvetica Bold';text-align:center;text-anchor:middle;fill:#004aad;stroke-width:0"
       aria-label="GO TO MY CALENDAR" />
    <path
       id="path5"
       style="fill:#004aad;stroke-width:0"
       d="m 163.77708,77.787506 a 5.0270834,5.0270834 0 0 1 -5.02708,5.027084 5.0270834,5.0270834 0 0 1 -5.02708,-5.027084 5.0270834,5.0270834 0 0 1 5.02708,-5.027083 5.0270834,5.0270834 0 0 1 5.02708,5.027083 z" />
    <circle
       id="path6"
       style="fill:#000000;stroke:none;stroke-width:0.264583"
       cx="86.254166"
       cy="68.527084"
       r="0" />
    <circle
       id="path7"
       style="fill:#004aad;stroke:none;stroke-width:0.264583;fill-opacity:1"
       cx="178.85834"
       cy="66.145836"
       r="0" />
    <path
       style="fill:none;fill-opacity:1;stroke:#ffffff;stroke-width:0.6;stroke-dasharray:none;stroke-opacity:1"
       d="m 157.08474,74.966709 3.69258,2.823733 -3.69258,2.968541 v 0"
       id="path11" />
  </g>
</svg>
